<svg xmlns="http://www.w3.org/2000/svg" xmlns:xlink="http://www.w3.org/1999/xlink" width="1366" zoomAndPan="magnify" viewBox="0 0 1024.5 576" height="768" preserveAspectRatio="xMidYMid meet" version="1.2"><defs><clipPath id="87659f9673"><path d="M 131 0.140625 L 202 0.140625 L 202 167 L 131 167 Z M 131 0.140625 "/></clipPath><clipPath id="eb9bc9b8a2"><path d="M 472 0.140625 L 543 0.140625 L 543 167 L 472 167 Z M 472 0.140625 "/></clipPath></defs><g id="ca97730004"><g style="fill:#ffdde3;fill-opacity:1;"><g transform="translate(8.065784, 165.155312)"><path style="stroke:none" d="M 73.84375 -29.3125 C 73.84375 -31.519531 72.84375 -33.316406 70.84375 -34.703125 C 68.84375 -36.097656 66.164062 -37.304688 62.8125 -38.328125 C 59.457031 -39.359375 55.671875 -40.363281 51.453125 -41.34375 C 47.242188 -42.320312 42.910156 -43.484375 38.453125 -44.828125 C 33.992188 -46.179688 29.660156 -47.878906 25.453125 -49.921875 C 21.242188 -51.972656 17.460938 -54.570312 14.109375 -57.71875 C 10.753906 -60.863281 8.070312 -64.722656 6.0625 -69.296875 C 4.0625 -73.878906 3.0625 -79.40625 3.0625 -85.875 C 3.0625 -92.414062 4.492188 -98.097656 7.359375 -102.921875 C 10.222656 -107.742188 14.128906 -111.75 19.078125 -114.9375 C 24.023438 -118.132812 29.664062 -120.53125 36 -122.125 C 42.34375 -123.71875 48.945312 -124.515625 55.8125 -124.515625 C 59.820312 -124.515625 64.238281 -124.285156 69.0625 -123.828125 C 73.882812 -123.378906 78.707031 -122.601562 83.53125 -121.5 C 88.363281 -120.394531 92.800781 -118.863281 96.84375 -116.90625 C 100.894531 -114.945312 104.144531 -112.472656 106.59375 -109.484375 C 109.050781 -106.492188 110.28125 -102.875 110.28125 -98.625 C 110.28125 -93.394531 108.5625 -89.445312 105.125 -86.78125 C 101.695312 -84.125 97.363281 -82.796875 92.125 -82.796875 C 87.625 -82.796875 83.632812 -83.304688 80.15625 -84.328125 C 76.6875 -85.359375 73.582031 -86.628906 70.84375 -88.140625 C 68.101562 -89.648438 65.523438 -91.160156 63.109375 -92.671875 C 60.703125 -94.191406 58.351562 -95.460938 56.0625 -96.484375 C 53.769531 -97.503906 51.316406 -98.015625 48.703125 -98.015625 C 47.304688 -98.015625 45.851562 -97.726562 44.34375 -97.15625 C 42.832031 -96.582031 42.078125 -95.316406 42.078125 -93.359375 C 42.078125 -91.554688 43.097656 -90.039062 45.140625 -88.8125 C 47.179688 -87.582031 49.921875 -86.476562 53.359375 -85.5 C 56.796875 -84.519531 60.640625 -83.519531 64.890625 -82.5 C 69.140625 -81.476562 73.554688 -80.269531 78.140625 -78.875 C 82.722656 -77.488281 87.140625 -75.789062 91.390625 -73.78125 C 95.640625 -71.78125 99.484375 -69.304688 102.921875 -66.359375 C 106.359375 -63.421875 109.097656 -59.882812 111.140625 -55.75 C 113.179688 -51.625 114.203125 -46.695312 114.203125 -40.96875 C 114.203125 -33.125 112.648438 -26.476562 109.546875 -21.03125 C 106.441406 -15.59375 102.207031 -11.195312 96.84375 -7.84375 C 91.488281 -4.5 85.4375 -2.046875 78.6875 -0.484375 C 71.945312 1.066406 64.894531 1.84375 57.53125 1.84375 C 50.664062 1.84375 44 1.429688 37.53125 0.609375 C 31.070312 -0.203125 25.265625 -1.585938 20.109375 -3.546875 C 14.960938 -5.515625 10.875 -8.195312 7.84375 -11.59375 C 4.820312 -14.988281 3.3125 -19.300781 3.3125 -24.53125 C 3.3125 -30.09375 4.96875 -34.488281 8.28125 -37.71875 C 11.59375 -40.945312 15.945312 -42.5625 21.34375 -42.5625 C 25.1875 -42.5625 28.660156 -41.882812 31.765625 -40.53125 C 34.878906 -39.1875 37.804688 -37.550781 40.546875 -35.625 C 43.285156 -33.707031 45.984375 -31.765625 48.640625 -29.796875 C 51.296875 -27.835938 54.054688 -26.179688 56.921875 -24.828125 C 59.785156 -23.484375 62.929688 -22.8125 66.359375 -22.8125 C 68.648438 -22.894531 70.46875 -23.488281 71.8125 -24.59375 C 73.164062 -25.695312 73.84375 -27.269531 73.84375 -29.3125 Z M 73.84375 -29.3125 "/></g></g><g clip-rule="nonzero" clip-path="url(#87659f9673)"><g style="fill:#ffdde3;fill-opacity:1;"><g transform="translate(130.49049, 165.155312)"><path style="stroke:none" d="M 42.078125 1.84375 C 34.472656 1.84375 27.582031 0.226562 21.40625 -3 C 15.226562 -6.226562 10.320312 -10.929688 6.6875 -17.109375 C 3.050781 -23.285156 1.234375 -30.75 1.234375 -39.5 C 1.234375 -45.300781 1.96875 -50.859375 3.4375 -56.171875 C 4.90625 -61.492188 6.742188 -66.523438 8.953125 -71.265625 C 11.160156 -76.015625 13.347656 -80.429688 15.515625 -84.515625 C 17.679688 -88.609375 19.5 -92.351562 20.96875 -95.75 C 22.445312 -99.144531 23.1875 -102.191406 23.1875 -104.890625 C 23.1875 -107.015625 22.898438 -108.441406 22.328125 -109.171875 C 21.753906 -109.910156 20.894531 -110.28125 19.75 -110.28125 C 18.6875 -110.28125 17.378906 -110.078125 15.828125 -109.671875 C 14.273438 -109.265625 12.597656 -109.0625 10.796875 -109.0625 C 7.359375 -109.0625 4.921875 -109.773438 3.484375 -111.203125 C 2.054688 -112.628906 1.34375 -114.613281 1.34375 -117.15625 C 1.34375 -120.257812 3.304688 -123.976562 7.234375 -128.3125 C 11.160156 -132.644531 16.234375 -137.675781 22.453125 -143.40625 C 26.128906 -146.84375 29.664062 -150.234375 33.0625 -153.578125 C 36.457031 -156.929688 39.484375 -159.710938 42.140625 -161.921875 C 44.796875 -164.128906 46.816406 -165.234375 48.203125 -165.234375 C 49.835938 -165.234375 51.046875 -164.679688 51.828125 -163.578125 C 52.609375 -162.472656 53.140625 -161.101562 53.421875 -159.46875 C 53.710938 -157.832031 53.859375 -156.28125 53.859375 -154.8125 L 53.859375 -122.671875 L 58.875 -122.671875 C 60.84375 -122.671875 62.4375 -122.054688 63.65625 -120.828125 C 64.882812 -119.597656 65.5 -118.003906 65.5 -116.046875 L 65.5 -115.671875 C 65.5 -113.710938 64.882812 -112.117188 63.65625 -110.890625 C 62.4375 -109.671875 60.84375 -109.0625 58.875 -109.0625 L 53.859375 -109.0625 L 53.859375 -61.328125 C 53.859375 -53.804688 54.425781 -47.671875 55.5625 -42.921875 C 56.707031 -38.179688 58.140625 -34.398438 59.859375 -31.578125 C 61.578125 -28.765625 63.296875 -26.5 65.015625 -24.78125 C 66.734375 -23.0625 68.164062 -21.523438 69.3125 -20.171875 C 70.457031 -18.828125 71.03125 -17.175781 71.03125 -15.21875 C 71.03125 -12.507812 70.148438 -10.09375 68.390625 -7.96875 C 66.628906 -5.84375 64.316406 -4.046875 61.453125 -2.578125 C 58.597656 -1.109375 55.472656 -0.00390625 52.078125 0.734375 C 48.679688 1.472656 45.347656 1.84375 42.078125 1.84375 Z M 42.078125 1.84375 "/></g></g></g><g style="fill:#ffdde3;fill-opacity:1;"><g transform="translate(207.895421, 165.155312)"><path style="stroke:none" d="M 3.0625 -61.328125 C 3.0625 -69.835938 4.019531 -77.320312 5.9375 -83.78125 C 7.863281 -90.238281 10.460938 -95.796875 13.734375 -100.453125 C 17.003906 -105.117188 20.644531 -108.984375 24.65625 -112.046875 C 28.664062 -115.117188 32.796875 -117.578125 37.046875 -119.421875 C 41.296875 -121.265625 45.382812 -122.570312 49.3125 -123.34375 C 53.238281 -124.125 56.675781 -124.515625 59.625 -124.515625 C 64.9375 -124.597656 69.164062 -124.472656 72.3125 -124.140625 C 75.457031 -123.816406 78.070312 -123.488281 80.15625 -123.15625 C 82.25 -122.832031 84.316406 -122.671875 86.359375 -122.671875 C 90.609375 -122.671875 94.039062 -122.832031 96.65625 -123.15625 C 99.28125 -123.488281 101.550781 -123.796875 103.46875 -124.078125 C 105.394531 -124.367188 107.296875 -124.515625 109.171875 -124.515625 C 110.484375 -124.515625 112.019531 -124.347656 113.78125 -124.015625 C 115.539062 -123.691406 117.273438 -123.039062 118.984375 -122.0625 C 120.703125 -121.082031 122.132812 -119.691406 123.28125 -117.890625 C 124.425781 -116.085938 125 -113.710938 125 -110.765625 C 125 -107.910156 124.566406 -104.925781 123.703125 -101.8125 C 122.847656 -98.707031 121.890625 -95.273438 120.828125 -91.515625 C 119.765625 -87.753906 118.800781 -83.421875 117.9375 -78.515625 C 117.082031 -73.609375 116.65625 -67.878906 116.65625 -61.328125 C 116.65625 -55.691406 116.960938 -50.890625 117.578125 -46.921875 C 118.191406 -42.953125 118.96875 -39.515625 119.90625 -36.609375 C 120.851562 -33.710938 121.796875 -31.179688 122.734375 -29.015625 C 123.671875 -26.847656 124.445312 -24.78125 125.0625 -22.8125 C 125.675781 -20.851562 125.984375 -18.769531 125.984375 -16.5625 C 125.984375 -12.957031 124.59375 -9.765625 121.8125 -6.984375 C 119.03125 -4.210938 115.304688 -2.046875 110.640625 -0.484375 C 105.984375 1.066406 100.753906 1.84375 94.953125 1.84375 C 92.410156 1.84375 90.441406 1.472656 89.046875 0.734375 C 87.660156 -0.00390625 86.535156 -0.84375 85.671875 -1.78125 C 84.816406 -2.71875 83.898438 -3.550781 82.921875 -4.28125 C 81.941406 -5.019531 80.632812 -5.390625 79 -5.390625 C 77.195312 -5.390625 75.597656 -5.019531 74.203125 -4.28125 C 72.816406 -3.550781 71.242188 -2.71875 69.484375 -1.78125 C 67.734375 -0.84375 65.546875 -0.00390625 62.921875 0.734375 C 60.304688 1.472656 56.875 1.84375 52.625 1.84375 C 45.832031 1.84375 39.429688 0.332031 33.421875 -2.6875 C 27.410156 -5.71875 22.132812 -10.015625 17.59375 -15.578125 C 13.0625 -21.140625 9.503906 -27.804688 6.921875 -35.578125 C 4.347656 -43.347656 3.0625 -51.929688 3.0625 -61.328125 Z M 60.59375 -92.125 C 57.320312 -92.125 54.6875 -89.300781 52.6875 -83.65625 C 50.6875 -78.019531 49.6875 -70.578125 49.6875 -61.328125 C 49.6875 -52.171875 50.6875 -44.769531 52.6875 -39.125 C 54.6875 -33.488281 57.320312 -30.671875 60.59375 -30.671875 C 63.863281 -30.671875 66.5 -33.488281 68.5 -39.125 C 70.507812 -44.769531 71.515625 -52.171875 71.515625 -61.328125 C 71.515625 -70.578125 70.507812 -78.019531 68.5 -83.65625 C 66.5 -89.300781 63.863281 -92.125 60.59375 -92.125 Z M 60.59375 -92.125 "/></g></g><g style="fill:#ffdde3;fill-opacity:1;"><g transform="translate(340.133717, 165.155312)"><path style="stroke:none" d="M 1.234375 -105.375 C 1.234375 -108.238281 2.375 -110.46875 4.65625 -112.0625 C 6.945312 -113.65625 9.847656 -114.960938 13.359375 -115.984375 C 16.878906 -117.003906 20.484375 -118.003906 24.171875 -118.984375 C 25.640625 -119.398438 27.5 -119.910156 29.75 -120.515625 C 32 -121.128906 34.285156 -121.742188 36.609375 -122.359375 C 38.941406 -122.972656 41.03125 -123.484375 42.875 -123.890625 C 44.71875 -124.304688 46.046875 -124.515625 46.859375 -124.515625 C 49.234375 -124.515625 51.5625 -123.550781 53.84375 -121.625 C 56.132812 -119.707031 57.8125 -116.128906 58.875 -110.890625 C 61.988281 -113.179688 65.445312 -115.367188 69.25 -117.453125 C 73.050781 -119.546875 77.078125 -121.242188 81.328125 -122.546875 C 85.578125 -123.859375 89.910156 -124.515625 94.328125 -124.515625 C 99.734375 -124.515625 104.785156 -123.222656 109.484375 -120.640625 C 114.179688 -118.066406 117.960938 -114.367188 120.828125 -109.546875 C 123.691406 -104.722656 125.125 -98.914062 125.125 -92.125 C 125.125 -84.351562 123.976562 -78.21875 121.6875 -73.71875 C 119.394531 -69.226562 116.125 -66.039062 111.875 -64.15625 C 107.625 -62.269531 102.59375 -61.328125 96.78125 -61.328125 C 93.101562 -61.328125 90.222656 -61.921875 88.140625 -63.109375 C 86.054688 -64.296875 84.519531 -65.804688 83.53125 -67.640625 C 82.550781 -69.484375 81.816406 -71.46875 81.328125 -73.59375 C 80.835938 -75.726562 80.347656 -77.710938 79.859375 -79.546875 C 79.367188 -81.390625 78.59375 -82.90625 77.53125 -84.09375 C 76.46875 -85.28125 74.832031 -85.875 72.625 -85.875 C 70.082031 -85.875 68.015625 -85.132812 66.421875 -83.65625 C 64.828125 -82.1875 63.597656 -80.242188 62.734375 -77.828125 C 61.878906 -75.421875 61.25 -72.785156 60.84375 -69.921875 C 60.4375 -67.054688 60.191406 -64.234375 60.109375 -61.453125 C 60.023438 -58.671875 59.984375 -56.175781 59.984375 -53.96875 C 59.984375 -48.488281 60.535156 -43.679688 61.640625 -39.546875 C 62.742188 -35.421875 64.050781 -31.742188 65.5625 -28.515625 C 67.082031 -25.285156 68.394531 -22.257812 69.5 -19.4375 C 70.601562 -16.625 71.15625 -13.785156 71.15625 -10.921875 C 71.15625 -7.972656 70.539062 -5.742188 69.3125 -4.234375 C 68.082031 -2.722656 66.546875 -1.660156 64.703125 -1.046875 C 62.867188 -0.429688 61.03125 -0.101562 59.1875 -0.0625 C 57.34375 -0.0195312 55.769531 0 54.46875 0 L 18.890625 0 C 17.578125 0 16 -0.0195312 14.15625 -0.0625 C 12.320312 -0.101562 10.484375 -0.429688 8.640625 -1.046875 C 6.804688 -1.660156 5.273438 -2.722656 4.046875 -4.234375 C 2.816406 -5.742188 2.203125 -7.972656 2.203125 -10.921875 C 2.203125 -13.785156 2.753906 -16.625 3.859375 -19.4375 C 4.960938 -22.257812 6.25 -25.285156 7.71875 -28.515625 C 9.195312 -31.742188 10.488281 -35.421875 11.59375 -39.546875 C 12.695312 -43.679688 13.25 -48.488281 13.25 -53.96875 C 13.25 -60.4375 12.835938 -65.976562 12.015625 -70.59375 C 11.203125 -75.21875 10.203125 -79.1875 9.015625 -82.5 C 7.828125 -85.8125 6.640625 -88.710938 5.453125 -91.203125 C 4.273438 -93.703125 3.273438 -96.054688 2.453125 -98.265625 C 1.640625 -100.472656 1.234375 -102.84375 1.234375 -105.375 Z M 1.234375 -105.375 "/></g></g><g clip-rule="nonzero" clip-path="url(#eb9bc9b8a2)"><g style="fill:#ffdde3;fill-opacity:1;"><g transform="translate(471.635968, 165.155312)"><path style="stroke:none" d="M 42.078125 1.84375 C 34.472656 1.84375 27.582031 0.226562 21.40625 -3 C 15.226562 -6.226562 10.320312 -10.929688 6.6875 -17.109375 C 3.050781 -23.285156 1.234375 -30.75 1.234375 -39.5 C 1.234375 -45.300781 1.96875 -50.859375 3.4375 -56.171875 C 4.90625 -61.492188 6.742188 -66.523438 8.953125 -71.265625 C 11.160156 -76.015625 13.347656 -80.429688 15.515625 -84.515625 C 17.679688 -88.609375 19.5 -92.351562 20.96875 -95.75 C 22.445312 -99.144531 23.1875 -102.191406 23.1875 -104.890625 C 23.1875 -107.015625 22.898438 -108.441406 22.328125 -109.171875 C 21.753906 -109.910156 20.894531 -110.28125 19.75 -110.28125 C 18.6875 -110.28125 17.378906 -110.078125 15.828125 -109.671875 C 14.273438 -109.265625 12.597656 -109.0625 10.796875 -109.0625 C 7.359375 -109.0625 4.921875 -109.773438 3.484375 -111.203125 C 2.054688 -112.628906 1.34375 -114.613281 1.34375 -117.15625 C 1.34375 -120.257812 3.304688 -123.976562 7.234375 -128.3125 C 11.160156 -132.644531 16.234375 -137.675781 22.453125 -143.40625 C 26.128906 -146.84375 29.664062 -150.234375 33.0625 -153.578125 C 36.457031 -156.929688 39.484375 -159.710938 42.140625 -161.921875 C 44.796875 -164.128906 46.816406 -165.234375 48.203125 -165.234375 C 49.835938 -165.234375 51.046875 -164.679688 51.828125 -163.578125 C 52.609375 -162.472656 53.140625 -161.101562 53.421875 -159.46875 C 53.710938 -157.832031 53.859375 -156.28125 53.859375 -154.8125 L 53.859375 -122.671875 L 58.875 -122.671875 C 60.84375 -122.671875 62.4375 -122.054688 63.65625 -120.828125 C 64.882812 -119.597656 65.5 -118.003906 65.5 -116.046875 L 65.5 -115.671875 C 65.5 -113.710938 64.882812 -112.117188 63.65625 -110.890625 C 62.4375 -109.671875 60.84375 -109.0625 58.875 -109.0625 L 53.859375 -109.0625 L 53.859375 -61.328125 C 53.859375 -53.804688 54.425781 -47.671875 55.5625 -42.921875 C 56.707031 -38.179688 58.140625 -34.398438 59.859375 -31.578125 C 61.578125 -28.765625 63.296875 -26.5 65.015625 -24.78125 C 66.734375 -23.0625 68.164062 -21.523438 69.3125 -20.171875 C 70.457031 -18.828125 71.03125 -17.175781 71.03125 -15.21875 C 71.03125 -12.507812 70.148438 -10.09375 68.390625 -7.96875 C 66.628906 -5.84375 64.316406 -4.046875 61.453125 -2.578125 C 58.597656 -1.109375 55.472656 -0.00390625 52.078125 0.734375 C 48.679688 1.472656 45.347656 1.84375 42.078125 1.84375 Z M 42.078125 1.84375 "/></g></g></g><g style="fill:#ffdde3;fill-opacity:1;"><g transform="translate(549.040899, 165.155312)"><path style="stroke:none" d="M 6.140625 -21.71875 C 6.140625 -26.132812 7.203125 -30.117188 9.328125 -33.671875 C 11.453125 -37.234375 14.289062 -40.078125 17.84375 -42.203125 C 21.40625 -44.328125 25.351562 -45.390625 29.6875 -45.390625 C 34.101562 -45.390625 38.085938 -44.328125 41.640625 -42.203125 C 45.203125 -40.078125 48.046875 -37.234375 50.171875 -33.671875 C 52.296875 -30.117188 53.359375 -26.132812 53.359375 -21.71875 C 53.359375 -17.382812 52.296875 -13.4375 50.171875 -9.875 C 48.046875 -6.3125 45.203125 -3.46875 41.640625 -1.34375 C 38.085938 0.78125 34.101562 1.84375 29.6875 1.84375 C 25.351562 1.84375 21.40625 0.78125 17.84375 -1.34375 C 14.289062 -3.46875 11.453125 -6.3125 9.328125 -9.875 C 7.203125 -13.4375 6.140625 -17.382812 6.140625 -21.71875 Z M 6.140625 -100.84375 C 6.140625 -105.25 7.203125 -109.234375 9.328125 -112.796875 C 11.453125 -116.359375 14.289062 -119.203125 17.84375 -121.328125 C 21.40625 -123.453125 25.351562 -124.515625 29.6875 -124.515625 C 34.101562 -124.515625 38.085938 -123.453125 41.640625 -121.328125 C 45.203125 -119.203125 48.046875 -116.359375 50.171875 -112.796875 C 52.296875 -109.234375 53.359375 -105.25 53.359375 -100.84375 C 53.359375 -96.5 52.296875 -92.546875 50.171875 -88.984375 C 48.046875 -85.429688 45.203125 -82.59375 41.640625 -80.46875 C 38.085938 -78.34375 34.101562 -77.28125 29.6875 -77.28125 C 25.351562 -77.28125 21.40625 -78.34375 17.84375 -80.46875 C 14.289062 -82.59375 11.453125 -85.429688 9.328125 -88.984375 C 7.203125 -92.546875 6.140625 -96.5 6.140625 -100.84375 Z M 6.140625 -100.84375 "/></g></g></g></svg>