<svg xmlns="http://www.w3.org/2000/svg" xmlns:xlink="http://www.w3.org/1999/xlink" width="1366" zoomAndPan="magnify" viewBox="0 0 1024.5 576" height="768" preserveAspectRatio="xMidYMid meet" version="1.2"><defs/><g id="abe1e42181"><g style="fill:#ffffff;fill-opacity:1;"><g transform="translate(7.443007, 141.470159)"><path style="stroke:none" d="M 0.9375 -85.890625 C 0.9375 -88.398438 1.769531 -90.40625 3.4375 -91.90625 C 5.101562 -93.414062 7.191406 -94.171875 9.703125 -94.171875 L 39.734375 -94.171875 C 41.492188 -94.171875 43.316406 -93.96875 45.203125 -93.5625 C 47.085938 -93.15625 48.671875 -92.335938 49.953125 -91.109375 C 51.242188 -89.890625 51.890625 -88.054688 51.890625 -85.609375 C 51.890625 -83.597656 51.476562 -81.523438 50.65625 -79.390625 C 49.84375 -77.253906 49.4375 -74.867188 49.4375 -72.234375 C 49.4375 -68.648438 50.15625 -64.863281 51.59375 -60.875 C 53.039062 -56.894531 54.550781 -52.582031 56.125 -47.9375 C 57.695312 -52.582031 59.203125 -56.894531 60.640625 -60.875 C 62.085938 -64.863281 62.8125 -68.648438 62.8125 -72.234375 C 62.8125 -74.867188 62.398438 -77.253906 61.578125 -79.390625 C 60.765625 -81.523438 60.359375 -83.597656 60.359375 -85.609375 C 60.359375 -88.054688 61 -89.890625 62.28125 -91.109375 C 63.570312 -92.335938 65.160156 -93.15625 67.046875 -93.5625 C 68.929688 -93.96875 70.753906 -94.171875 72.515625 -94.171875 L 88.046875 -94.171875 C 89.804688 -94.171875 91.628906 -93.96875 93.515625 -93.5625 C 95.398438 -93.15625 96.984375 -92.335938 98.265625 -91.109375 C 99.554688 -89.890625 100.203125 -88.054688 100.203125 -85.609375 C 100.203125 -83.597656 99.789062 -81.523438 98.96875 -79.390625 C 98.15625 -77.253906 97.75 -74.867188 97.75 -72.234375 C 97.75 -69.210938 98.09375 -66.445312 98.78125 -63.9375 C 99.476562 -61.425781 100.34375 -58.898438 101.375 -56.359375 C 102.414062 -53.816406 103.4375 -51.007812 104.4375 -47.9375 C 106.007812 -52.582031 107.515625 -56.894531 108.953125 -60.875 C 110.398438 -64.863281 111.125 -68.648438 111.125 -72.234375 C 111.125 -74.867188 110.710938 -77.253906 109.890625 -79.390625 C 109.078125 -81.523438 108.671875 -83.597656 108.671875 -85.609375 C 108.671875 -88.054688 109.3125 -89.890625 110.59375 -91.109375 C 111.882812 -92.335938 113.472656 -93.15625 115.359375 -93.5625 C 117.242188 -93.96875 119.066406 -94.171875 120.828125 -94.171875 L 142.671875 -94.171875 C 145.179688 -94.171875 147.265625 -93.414062 148.921875 -91.90625 C 150.585938 -90.40625 151.421875 -88.398438 151.421875 -85.890625 C 151.421875 -84.066406 151.109375 -82.304688 150.484375 -80.609375 C 149.859375 -78.910156 148.898438 -76.992188 147.609375 -74.859375 C 146.328125 -72.734375 144.742188 -70.128906 142.859375 -67.046875 C 140.972656 -63.972656 138.789062 -60.207031 136.3125 -55.75 C 133.832031 -51.289062 131.054688 -45.828125 127.984375 -39.359375 C 126.472656 -36.222656 125.023438 -32.816406 123.640625 -29.140625 C 122.265625 -25.472656 120.789062 -21.847656 119.21875 -18.265625 C 117.644531 -14.691406 115.898438 -11.410156 113.984375 -8.421875 C 112.078125 -5.441406 109.882812 -3.054688 107.40625 -1.265625 C 104.925781 0.515625 102.019531 1.40625 98.6875 1.40625 C 95.488281 1.40625 92.773438 0.4375 90.546875 -1.5 C 88.316406 -3.445312 86.367188 -6.019531 84.703125 -9.21875 C 83.046875 -12.425781 81.539062 -15.925781 80.1875 -19.71875 C 78.832031 -23.519531 77.46875 -27.304688 76.09375 -31.078125 C 74.582031 -27.304688 73.039062 -23.519531 71.46875 -19.71875 C 69.90625 -15.925781 68.132812 -12.425781 66.15625 -9.21875 C 64.175781 -6.019531 61.914062 -3.445312 59.375 -1.5 C 56.832031 0.4375 53.832031 1.40625 50.375 1.40625 C 47.300781 1.40625 44.664062 0.515625 42.46875 -1.265625 C 40.269531 -3.054688 38.367188 -5.441406 36.765625 -8.421875 C 35.171875 -11.410156 33.710938 -14.691406 32.390625 -18.265625 C 31.078125 -21.847656 29.789062 -25.472656 28.53125 -29.140625 C 27.28125 -32.816406 25.898438 -36.222656 24.390625 -39.359375 C 21.628906 -45.140625 19.054688 -50.035156 16.671875 -54.046875 C 14.285156 -58.066406 12.132812 -61.519531 10.21875 -64.40625 C 8.300781 -67.300781 6.648438 -69.863281 5.265625 -72.09375 C 3.890625 -74.320312 2.820312 -76.515625 2.0625 -78.671875 C 1.3125 -80.835938 0.9375 -83.242188 0.9375 -85.890625 Z M 0.9375 -85.890625 "/></g></g><g style="fill:#ffffff;fill-opacity:1;"><g transform="translate(163.758496, 141.470159)"><path style="stroke:none" d="M 2.359375 -47.078125 C 2.359375 -53.046875 3.375 -58.914062 5.40625 -64.6875 C 7.445312 -70.46875 10.554688 -75.679688 14.734375 -80.328125 C 18.910156 -84.972656 24.179688 -88.675781 30.546875 -91.4375 C 36.921875 -94.195312 44.472656 -95.578125 53.203125 -95.578125 C 58.035156 -95.578125 62.679688 -94.960938 67.140625 -93.734375 C 71.597656 -92.515625 75.566406 -90.664062 79.046875 -88.1875 C 82.535156 -85.707031 85.300781 -82.613281 87.34375 -78.90625 C 89.382812 -75.207031 90.40625 -70.878906 90.40625 -65.921875 C 90.40625 -60.460938 89.570312 -55.722656 87.90625 -51.703125 C 86.238281 -47.679688 84.007812 -44.289062 81.21875 -41.53125 C 78.425781 -38.769531 75.332031 -36.492188 71.9375 -34.703125 C 68.550781 -32.910156 65.132812 -31.484375 61.6875 -30.421875 C 58.414062 -29.410156 55.539062 -28.9375 53.0625 -29 C 50.582031 -29.0625 48.625 -29.09375 47.1875 -29.09375 C 46.363281 -29.09375 45.75 -29.015625 45.34375 -28.859375 C 44.9375 -28.703125 44.734375 -28.34375 44.734375 -27.78125 C 44.734375 -26.78125 45.28125 -25.960938 46.375 -25.328125 C 47.476562 -24.703125 48.796875 -24.25 50.328125 -23.96875 C 51.867188 -23.6875 53.269531 -23.546875 54.53125 -23.546875 C 57.914062 -23.546875 60.769531 -23.96875 63.09375 -24.8125 C 65.414062 -25.65625 67.457031 -26.609375 69.21875 -27.671875 C 70.976562 -28.742188 72.671875 -29.703125 74.296875 -30.546875 C 75.929688 -31.398438 77.722656 -31.828125 79.671875 -31.828125 C 81.804688 -31.828125 83.640625 -31.304688 85.171875 -30.265625 C 86.710938 -29.234375 87.96875 -27.914062 88.9375 -26.3125 C 89.914062 -24.71875 90.640625 -23.070312 91.109375 -21.375 C 91.578125 -19.675781 91.8125 -18.140625 91.8125 -16.765625 C 91.8125 -13.941406 90.445312 -11.128906 87.71875 -8.328125 C 84.988281 -5.535156 80.78125 -3.210938 75.09375 -1.359375 C 69.414062 0.484375 62.117188 1.40625 53.203125 1.40625 C 44.921875 1.40625 37.625 0.0390625 31.3125 -2.6875 C 25 -5.414062 19.691406 -9.101562 15.390625 -13.75 C 11.097656 -18.394531 7.851562 -23.601562 5.65625 -29.375 C 3.457031 -35.15625 2.359375 -41.054688 2.359375 -47.078125 Z M 38.703125 -57.0625 C 37.128906 -53.050781 36.5625 -49.800781 37 -47.3125 C 37.445312 -44.832031 38.832031 -43.59375 41.15625 -43.59375 C 43.539062 -43.59375 45.941406 -44.832031 48.359375 -47.3125 C 50.773438 -49.800781 52.769531 -53.050781 54.34375 -57.0625 C 55.96875 -61.144531 56.546875 -64.425781 56.078125 -66.90625 C 55.609375 -69.382812 54.179688 -70.625 51.796875 -70.625 C 49.472656 -70.625 47.117188 -69.382812 44.734375 -66.90625 C 42.347656 -64.425781 40.335938 -61.144531 38.703125 -57.0625 Z M 38.703125 -57.0625 "/></g></g><g style="fill:#ffffff;fill-opacity:1;"><g transform="translate(259.996211, 141.470159)"><path style="stroke:none" d="M 0.9375 -8.375 C 0.9375 -10.882812 1.140625 -13.019531 1.546875 -14.78125 C 1.960938 -16.539062 2.5 -18.300781 3.15625 -20.0625 C 3.8125 -21.820312 4.5 -23.894531 5.21875 -26.28125 C 5.945312 -28.664062 6.640625 -31.675781 7.296875 -35.3125 C 7.953125 -38.957031 8.484375 -43.554688 8.890625 -49.109375 C 9.304688 -54.660156 9.515625 -61.519531 9.515625 -69.6875 C 9.515625 -76.21875 9.304688 -81.851562 8.890625 -86.59375 C 8.484375 -91.332031 7.953125 -95.410156 7.296875 -98.828125 C 6.640625 -102.253906 5.945312 -105.207031 5.21875 -107.6875 C 4.5 -110.164062 3.8125 -112.425781 3.15625 -114.46875 C 2.5 -116.507812 1.960938 -118.53125 1.546875 -120.53125 C 1.140625 -122.539062 0.9375 -124.769531 0.9375 -127.21875 C 0.9375 -129.476562 1.484375 -131.1875 2.578125 -132.34375 C 3.679688 -133.507812 5.035156 -134.328125 6.640625 -134.796875 C 8.242188 -135.273438 9.828125 -135.53125 11.390625 -135.5625 C 12.960938 -135.59375 14.25 -135.609375 15.25 -135.609375 L 39.546875 -135.609375 C 40.554688 -135.609375 41.84375 -135.59375 43.40625 -135.5625 C 44.976562 -135.53125 46.5625 -135.273438 48.15625 -134.796875 C 49.757812 -134.328125 51.109375 -133.507812 52.203125 -132.34375 C 53.304688 -131.1875 53.859375 -129.476562 53.859375 -127.21875 C 53.859375 -124.769531 53.65625 -122.539062 53.25 -120.53125 C 52.84375 -118.53125 52.3125 -116.507812 51.65625 -114.46875 C 51 -112.425781 50.304688 -110.164062 49.578125 -107.6875 C 48.859375 -105.207031 48.164062 -102.253906 47.5 -98.828125 C 46.84375 -95.410156 46.3125 -91.332031 45.90625 -86.59375 C 45.5 -81.851562 45.296875 -76.21875 45.296875 -69.6875 C 45.296875 -61.519531 45.5 -54.660156 45.90625 -49.109375 C 46.3125 -43.554688 46.84375 -38.957031 47.5 -35.3125 C 48.164062 -31.675781 48.859375 -28.664062 49.578125 -26.28125 C 50.304688 -23.894531 51 -21.820312 51.65625 -20.0625 C 52.3125 -18.300781 52.84375 -16.539062 53.25 -14.78125 C 53.65625 -13.019531 53.859375 -10.882812 53.859375 -8.375 C 53.859375 -6.113281 53.304688 -4.398438 52.203125 -3.234375 C 51.109375 -2.078125 49.757812 -1.265625 48.15625 -0.796875 C 46.5625 -0.328125 44.976562 -0.078125 43.40625 -0.046875 C 41.84375 -0.015625 40.554688 0 39.546875 0 L 15.25 0 C 14.25 0 12.960938 -0.015625 11.390625 -0.046875 C 9.828125 -0.078125 8.242188 -0.328125 6.640625 -0.796875 C 5.035156 -1.265625 3.679688 -2.078125 2.578125 -3.234375 C 1.484375 -4.398438 0.9375 -6.113281 0.9375 -8.375 Z M 0.9375 -8.375 "/></g></g><g style="fill:#ffffff;fill-opacity:1;"><g transform="translate(318.755925, 141.470159)"><path style="stroke:none" d="M 2.359375 -47.078125 C 2.359375 -53.734375 3.3125 -59.679688 5.21875 -64.921875 C 7.132812 -70.171875 9.769531 -74.722656 13.125 -78.578125 C 16.488281 -82.441406 20.367188 -85.628906 24.765625 -88.140625 C 29.160156 -90.648438 33.851562 -92.515625 38.84375 -93.734375 C 43.832031 -94.960938 48.898438 -95.578125 54.046875 -95.578125 C 61.960938 -95.578125 68.929688 -94.382812 74.953125 -92 C 80.984375 -89.613281 85.691406 -86.113281 89.078125 -81.5 C 92.472656 -76.882812 94.171875 -71.285156 94.171875 -64.703125 C 94.171875 -62.054688 93.757812 -59.445312 92.9375 -56.875 C 92.125 -54.300781 90.929688 -51.945312 89.359375 -49.8125 C 87.796875 -47.675781 85.835938 -45.976562 83.484375 -44.71875 C 81.128906 -43.46875 78.414062 -42.84375 75.34375 -42.84375 C 70.757812 -42.84375 67.242188 -43.722656 64.796875 -45.484375 C 62.347656 -47.242188 60.664062 -49.503906 59.75 -52.265625 C 58.84375 -55.023438 58.390625 -57.878906 58.390625 -60.828125 C 58.390625 -62.460938 58.3125 -64.015625 58.15625 -65.484375 C 58 -66.960938 57.585938 -68.1875 56.921875 -69.15625 C 56.265625 -70.132812 55.148438 -70.625 53.578125 -70.625 C 51.316406 -70.625 49.242188 -69.820312 47.359375 -68.21875 C 45.484375 -66.625 43.867188 -64.585938 42.515625 -62.109375 C 41.171875 -59.628906 40.117188 -57.019531 39.359375 -54.28125 C 38.609375 -51.550781 38.234375 -49.054688 38.234375 -46.796875 C 38.234375 -42.085938 38.8125 -38.226562 39.96875 -35.21875 C 41.132812 -32.207031 42.628906 -29.851562 44.453125 -28.15625 C 46.273438 -26.457031 48.265625 -25.265625 50.421875 -24.578125 C 52.585938 -23.890625 54.644531 -23.546875 56.59375 -23.546875 C 59.414062 -23.546875 61.847656 -23.96875 63.890625 -24.8125 C 65.929688 -25.65625 67.769531 -26.609375 69.40625 -27.671875 C 71.039062 -28.742188 72.671875 -29.703125 74.296875 -30.546875 C 75.929688 -31.398438 77.722656 -31.828125 79.671875 -31.828125 C 81.804688 -31.828125 83.640625 -31.304688 85.171875 -30.265625 C 86.710938 -29.234375 87.96875 -27.914062 88.9375 -26.3125 C 89.914062 -24.71875 90.640625 -23.070312 91.109375 -21.375 C 91.578125 -19.675781 91.8125 -18.140625 91.8125 -16.765625 C 91.8125 -13.941406 90.445312 -11.128906 87.71875 -8.328125 C 84.988281 -5.535156 80.78125 -3.210938 75.09375 -1.359375 C 69.414062 0.484375 62.117188 1.40625 53.203125 1.40625 C 44.921875 1.40625 37.625 0.0390625 31.3125 -2.6875 C 25 -5.414062 19.691406 -9.101562 15.390625 -13.75 C 11.097656 -18.394531 7.851562 -23.601562 5.65625 -29.375 C 3.457031 -35.15625 2.359375 -41.054688 2.359375 -47.078125 Z M 2.359375 -47.078125 "/></g></g><g style="fill:#ffffff;fill-opacity:1;"><g transform="translate(419.231102, 141.470159)"><path style="stroke:none" d="M 46.984375 1.40625 C 37.566406 1.40625 29.53125 -0.613281 22.875 -4.65625 C 16.226562 -8.707031 11.144531 -14.375 7.625 -21.65625 C 4.113281 -28.9375 2.359375 -37.445312 2.359375 -47.1875 C 2.359375 -56.851562 4.113281 -65.3125 7.625 -72.5625 C 11.144531 -79.8125 16.226562 -85.457031 22.875 -89.5 C 29.53125 -93.550781 37.566406 -95.578125 46.984375 -95.578125 C 56.410156 -95.578125 64.445312 -93.550781 71.09375 -89.5 C 77.75 -85.457031 82.832031 -79.8125 86.34375 -72.5625 C 89.863281 -65.3125 91.625 -56.851562 91.625 -47.1875 C 91.625 -37.445312 89.863281 -28.9375 86.34375 -21.65625 C 82.832031 -14.375 77.75 -8.707031 71.09375 -4.65625 C 64.445312 -0.613281 56.410156 1.40625 46.984375 1.40625 Z M 38.609375 -46.984375 C 38.609375 -39.953125 39.375 -34.269531 40.90625 -29.9375 C 42.445312 -25.613281 44.472656 -23.453125 46.984375 -23.453125 C 49.503906 -23.453125 51.53125 -25.613281 53.0625 -29.9375 C 54.601562 -34.269531 55.375 -39.953125 55.375 -46.984375 C 55.375 -54.085938 54.601562 -59.800781 53.0625 -64.125 C 51.53125 -68.457031 49.503906 -70.625 46.984375 -70.625 C 44.472656 -70.625 42.445312 -68.457031 40.90625 -64.125 C 39.375 -59.800781 38.609375 -54.085938 38.609375 -46.984375 Z M 38.609375 -46.984375 "/></g></g><g style="fill:#ffffff;fill-opacity:1;"><g transform="translate(517.163809, 141.470159)"><path style="stroke:none" d="M 0.9375 -80.890625 C 0.9375 -83.085938 1.816406 -84.796875 3.578125 -86.015625 C 5.335938 -87.242188 7.566406 -88.25 10.265625 -89.03125 C 12.960938 -89.820312 15.722656 -90.59375 18.546875 -91.34375 C 19.679688 -91.65625 21.109375 -92.046875 22.828125 -92.515625 C 24.554688 -92.992188 26.316406 -93.46875 28.109375 -93.9375 C 29.898438 -94.40625 31.5 -94.796875 32.90625 -95.109375 C 34.320312 -95.421875 35.34375 -95.578125 35.96875 -95.578125 C 37.726562 -95.578125 39.40625 -94.898438 41 -93.546875 C 42.601562 -92.203125 43.910156 -89.710938 44.921875 -86.078125 C 45.046875 -85.566406 45.25 -85.15625 45.53125 -84.84375 C 45.8125 -84.53125 46.265625 -84.375 46.890625 -84.375 C 47.460938 -84.375 48.5 -84.9375 50 -86.0625 C 51.507812 -87.195312 53.457031 -88.5 55.84375 -89.96875 C 58.226562 -91.445312 61.050781 -92.75 64.3125 -93.875 C 67.582031 -95.007812 71.289062 -95.578125 75.4375 -95.578125 C 81.082031 -95.578125 85.675781 -94.304688 89.21875 -91.765625 C 92.769531 -89.222656 95.363281 -85.753906 97 -81.359375 C 97.75 -82.367188 99.128906 -83.65625 101.140625 -85.21875 C 103.148438 -86.789062 105.613281 -88.375 108.53125 -89.96875 C 111.445312 -91.570312 114.660156 -92.90625 118.171875 -93.96875 C 121.691406 -95.039062 125.304688 -95.578125 129.015625 -95.578125 C 134.722656 -95.578125 139.332031 -94.304688 142.84375 -91.765625 C 146.363281 -89.222656 148.957031 -85.722656 150.625 -81.265625 C 152.289062 -76.804688 153.125 -71.691406 153.125 -65.921875 L 153.125 -47.078125 C 153.125 -42.753906 153.546875 -38.769531 154.390625 -35.125 C 155.242188 -31.488281 156.25 -28.113281 157.40625 -25 C 158.570312 -21.894531 159.578125 -18.972656 160.421875 -16.234375 C 161.265625 -13.503906 161.6875 -10.882812 161.6875 -8.375 C 161.6875 -6.113281 161.132812 -4.398438 160.03125 -3.234375 C 158.9375 -2.078125 157.585938 -1.265625 155.984375 -0.796875 C 154.390625 -0.328125 152.804688 -0.078125 151.234375 -0.046875 C 149.671875 -0.015625 148.382812 0 147.375 0 L 126.5625 0 C 125.1875 0 123.664062 -0.109375 122 -0.328125 C 120.332031 -0.546875 118.742188 -0.9375 117.234375 -1.5 C 115.734375 -2.070312 114.492188 -2.90625 113.515625 -4 C 112.546875 -5.101562 112.0625 -6.5625 112.0625 -8.375 C 112.0625 -12.582031 112.515625 -16.804688 113.421875 -21.046875 C 114.335938 -25.285156 115.25 -29.570312 116.15625 -33.90625 C 117.070312 -38.238281 117.46875 -42.628906 117.34375 -47.078125 C 117.28125 -49.023438 117.117188 -51.082031 116.859375 -53.25 C 116.609375 -55.414062 116.171875 -57.457031 115.546875 -59.375 C 114.921875 -61.289062 114.007812 -62.859375 112.8125 -64.078125 C 111.625 -65.304688 110.085938 -65.921875 108.203125 -65.921875 C 106.316406 -65.921875 104.789062 -65.304688 103.625 -64.078125 C 102.46875 -62.859375 101.609375 -61.289062 101.046875 -59.375 C 100.484375 -57.457031 100.09375 -55.414062 99.875 -53.25 C 99.65625 -51.082031 99.546875 -49.023438 99.546875 -47.078125 C 99.484375 -43.066406 99.890625 -39.238281 100.765625 -35.59375 C 101.640625 -31.957031 102.640625 -28.503906 103.765625 -25.234375 C 104.898438 -21.972656 105.90625 -18.925781 106.78125 -16.09375 C 107.664062 -13.269531 108.109375 -10.695312 108.109375 -8.375 C 108.109375 -6.3125 107.648438 -4.695312 106.734375 -3.53125 C 105.828125 -2.375 104.648438 -1.554688 103.203125 -1.078125 C 101.765625 -0.609375 100.210938 -0.3125 98.546875 -0.1875 C 96.890625 -0.0625 95.304688 0 93.796875 0 L 72.984375 0 C 71.597656 0 70.070312 -0.109375 68.40625 -0.328125 C 66.75 -0.546875 65.164062 -0.9375 63.65625 -1.5 C 62.15625 -2.070312 60.914062 -2.90625 59.9375 -4 C 58.96875 -5.101562 58.484375 -6.5625 58.484375 -8.375 C 58.484375 -12.582031 58.9375 -16.804688 59.84375 -21.046875 C 60.757812 -25.285156 61.671875 -29.570312 62.578125 -33.90625 C 63.484375 -38.238281 63.875 -42.628906 63.75 -47.078125 C 63.6875 -49.023438 63.53125 -51.082031 63.28125 -53.25 C 63.03125 -55.414062 62.585938 -57.457031 61.953125 -59.375 C 61.328125 -61.289062 60.414062 -62.859375 59.21875 -64.078125 C 58.03125 -65.304688 56.5 -65.921875 54.625 -65.921875 C 52.738281 -65.921875 51.210938 -65.304688 50.046875 -64.078125 C 48.890625 -62.859375 48.007812 -61.289062 47.40625 -59.375 C 46.8125 -57.457031 46.40625 -55.398438 46.1875 -53.203125 C 45.96875 -51.003906 45.859375 -48.960938 45.859375 -47.078125 C 45.859375 -43.441406 46.28125 -39.894531 47.125 -36.4375 C 47.976562 -32.988281 48.984375 -29.660156 50.140625 -26.453125 C 51.304688 -23.253906 52.328125 -20.148438 53.203125 -17.140625 C 54.085938 -14.128906 54.53125 -11.207031 54.53125 -8.375 C 54.53125 -6.5625 54.039062 -5.101562 53.0625 -4 C 52.09375 -2.90625 50.851562 -2.070312 49.34375 -1.5 C 47.832031 -0.9375 46.242188 -0.546875 44.578125 -0.328125 C 42.921875 -0.109375 41.398438 0 40.015625 0 L 15.921875 0 C 14.910156 0 13.617188 -0.015625 12.046875 -0.046875 C 10.484375 -0.078125 8.898438 -0.328125 7.296875 -0.796875 C 5.691406 -1.265625 4.335938 -2.078125 3.234375 -3.234375 C 2.140625 -4.398438 1.59375 -6.113281 1.59375 -8.375 C 1.59375 -10.882812 2.015625 -13.503906 2.859375 -16.234375 C 3.710938 -18.972656 4.71875 -21.894531 5.875 -25 C 7.039062 -28.113281 8.046875 -31.488281 8.890625 -35.125 C 9.742188 -38.769531 10.171875 -42.753906 10.171875 -47.078125 C 10.171875 -51.222656 9.851562 -54.738281 9.21875 -57.625 C 8.59375 -60.519531 7.828125 -63.003906 6.921875 -65.078125 C 6.015625 -67.148438 5.101562 -69 4.1875 -70.625 C 3.28125 -72.257812 2.507812 -73.875 1.875 -75.46875 C 1.25 -77.070312 0.9375 -78.878906 0.9375 -80.890625 Z M 0.9375 -80.890625 "/></g></g><g style="fill:#ffffff;fill-opacity:1;"><g transform="translate(683.743391, 141.470159)"><path style="stroke:none" d="M 2.359375 -47.078125 C 2.359375 -53.046875 3.375 -58.914062 5.40625 -64.6875 C 7.445312 -70.46875 10.554688 -75.679688 14.734375 -80.328125 C 18.910156 -84.972656 24.179688 -88.675781 30.546875 -91.4375 C 36.921875 -94.195312 44.472656 -95.578125 53.203125 -95.578125 C 58.035156 -95.578125 62.679688 -94.960938 67.140625 -93.734375 C 71.597656 -92.515625 75.566406 -90.664062 79.046875 -88.1875 C 82.535156 -85.707031 85.300781 -82.613281 87.34375 -78.90625 C 89.382812 -75.207031 90.40625 -70.878906 90.40625 -65.921875 C 90.40625 -60.460938 89.570312 -55.722656 87.90625 -51.703125 C 86.238281 -47.679688 84.007812 -44.289062 81.21875 -41.53125 C 78.425781 -38.769531 75.332031 -36.492188 71.9375 -34.703125 C 68.550781 -32.910156 65.132812 -31.484375 61.6875 -30.421875 C 58.414062 -29.410156 55.539062 -28.9375 53.0625 -29 C 50.582031 -29.0625 48.625 -29.09375 47.1875 -29.09375 C 46.363281 -29.09375 45.75 -29.015625 45.34375 -28.859375 C 44.9375 -28.703125 44.734375 -28.34375 44.734375 -27.78125 C 44.734375 -26.78125 45.28125 -25.960938 46.375 -25.328125 C 47.476562 -24.703125 48.796875 -24.25 50.328125 -23.96875 C 51.867188 -23.6875 53.269531 -23.546875 54.53125 -23.546875 C 57.914062 -23.546875 60.769531 -23.96875 63.09375 -24.8125 C 65.414062 -25.65625 67.457031 -26.609375 69.21875 -27.671875 C 70.976562 -28.742188 72.671875 -29.703125 74.296875 -30.546875 C 75.929688 -31.398438 77.722656 -31.828125 79.671875 -31.828125 C 81.804688 -31.828125 83.640625 -31.304688 85.171875 -30.265625 C 86.710938 -29.234375 87.96875 -27.914062 88.9375 -26.3125 C 89.914062 -24.71875 90.640625 -23.070312 91.109375 -21.375 C 91.578125 -19.675781 91.8125 -18.140625 91.8125 -16.765625 C 91.8125 -13.941406 90.445312 -11.128906 87.71875 -8.328125 C 84.988281 -5.535156 80.78125 -3.210938 75.09375 -1.359375 C 69.414062 0.484375 62.117188 1.40625 53.203125 1.40625 C 44.921875 1.40625 37.625 0.0390625 31.3125 -2.6875 C 25 -5.414062 19.691406 -9.101562 15.390625 -13.75 C 11.097656 -18.394531 7.851562 -23.601562 5.65625 -29.375 C 3.457031 -35.15625 2.359375 -41.054688 2.359375 -47.078125 Z M 38.703125 -57.0625 C 37.128906 -53.050781 36.5625 -49.800781 37 -47.3125 C 37.445312 -44.832031 38.832031 -43.59375 41.15625 -43.59375 C 43.539062 -43.59375 45.941406 -44.832031 48.359375 -47.3125 C 50.773438 -49.800781 52.769531 -53.050781 54.34375 -57.0625 C 55.96875 -61.144531 56.546875 -64.425781 56.078125 -66.90625 C 55.609375 -69.382812 54.179688 -70.625 51.796875 -70.625 C 49.472656 -70.625 47.117188 -69.382812 44.734375 -66.90625 C 42.347656 -64.425781 40.335938 -61.144531 38.703125 -57.0625 Z M 38.703125 -57.0625 "/></g></g></g></svg>