<svg xmlns="http://www.w3.org/2000/svg" xmlns:xlink="http://www.w3.org/1999/xlink" width="1366" zoomAndPan="magnify" viewBox="0 0 1024.5 576" height="768" preserveAspectRatio="xMidYMid meet" version="1.2"><defs/><g id="10d1f8b35f"><g style="fill:#000000;fill-opacity:1;"><g transform="translate(142.372877, 223.657653)"><path style="stroke:none" d="M 16.359375 -22.234375 C 14.535156 -25.191406 14.078125 -27.722656 14.984375 -29.828125 C 15.898438 -31.929688 17.359375 -33.894531 19.359375 -35.71875 C 19.554688 -36 19.796875 -36.234375 20.078125 -36.421875 C 20.367188 -36.617188 20.609375 -36.863281 20.796875 -37.15625 C 23.085938 -39.632812 25.476562 -42.066406 27.96875 -44.453125 C 30.457031 -46.847656 32.894531 -49.335938 35.28125 -51.921875 C 37.957031 -54.984375 38.890625 -57.753906 38.078125 -60.234375 C 37.265625 -62.722656 35.1875 -64.59375 31.84375 -65.84375 C 30.601562 -66.320312 28.691406 -66.460938 26.109375 -66.265625 C 23.523438 -66.078125 20.773438 -65.625 17.859375 -64.90625 C 14.941406 -64.1875 12.238281 -63.273438 9.75 -62.171875 C 7.269531 -61.078125 5.503906 -59.8125 4.453125 -58.375 C 3.679688 -57.414062 3.148438 -56.335938 2.859375 -55.140625 C 2.578125 -53.953125 3.34375 -52.878906 5.15625 -51.921875 C 6.882812 -54.796875 8.96875 -56.828125 11.40625 -58.015625 C 13.84375 -59.210938 16.472656 -60 19.296875 -60.375 C 22.117188 -60.757812 24.914062 -61.144531 27.6875 -61.53125 C 28.644531 -61.726562 29.597656 -61.632812 30.546875 -61.25 C 31.503906 -60.863281 32.078125 -60.003906 32.265625 -58.671875 C 32.460938 -57.898438 32.34375 -57.203125 31.90625 -56.578125 C 31.476562 -55.960938 30.976562 -55.414062 30.40625 -54.9375 C 26.863281 -51.394531 23.226562 -47.925781 19.5 -44.53125 C 15.769531 -41.132812 12.425781 -37.429688 9.46875 -33.421875 C 8.507812 -32.078125 7.863281 -30.785156 7.53125 -29.546875 C 7.195312 -28.304688 7.363281 -27.015625 8.03125 -25.671875 C 9.46875 -22.421875 12.242188 -21.273438 16.359375 -22.234375 Z M 10.46875 -11.1875 C 9.613281 -10.894531 8.875 -10.128906 8.25 -8.890625 C 7.625 -7.648438 7.410156 -6.21875 7.609375 -4.59375 C 7.609375 -2.675781 8.128906 -1.144531 9.171875 0 C 10.222656 1.144531 11.800781 1.625 13.90625 1.4375 C 16.113281 1.050781 18.148438 0.550781 20.015625 -0.0625 C 21.878906 -0.6875 23 -2.382812 23.375 -5.15625 C 23.476562 -5.445312 23.023438 -5.925781 22.015625 -6.59375 C 21.015625 -7.269531 19.769531 -7.941406 18.28125 -8.609375 C 16.800781 -9.273438 15.34375 -9.867188 13.90625 -10.390625 C 12.476562 -10.921875 11.332031 -11.1875 10.46875 -11.1875 Z M 13.625 -6.3125 C 14.195312 -6.3125 15.101562 -6.023438 16.34375 -5.453125 C 17.59375 -4.878906 18.117188 -4.492188 17.921875 -4.296875 C 17.828125 -3.347656 17.445312 -2.773438 16.78125 -2.578125 C 16.113281 -2.390625 15.445312 -2.203125 14.78125 -2.015625 C 14.101562 -1.910156 13.597656 -2.050781 13.265625 -2.4375 C 12.929688 -2.820312 12.765625 -3.347656 12.765625 -4.015625 C 12.671875 -4.492188 12.71875 -4.945312 12.90625 -5.375 C 13.101562 -5.8125 13.34375 -6.125 13.625 -6.3125 Z M 13.625 -6.3125 "/></g></g><g style="fill:#000000;fill-opacity:1;"><g transform="translate(182.1035, 223.657653)"><path style="stroke:none" d="M -0.71875 1.4375 C 0.625 2.863281 2.175781 3.335938 3.9375 2.859375 C 5.707031 2.390625 7.117188 1.675781 8.171875 0.71875 C 10.179688 -1 11.757812 -3.171875 12.90625 -5.796875 C 14.050781 -8.429688 14.910156 -11.085938 15.484375 -13.765625 C 16.535156 -20.742188 17.5625 -27.867188 18.5625 -35.140625 C 19.570312 -42.410156 21.414062 -49.25 24.09375 -55.65625 C 26.289062 -61.007812 28.921875 -66.078125 31.984375 -70.859375 C 35.046875 -75.640625 38.875 -79.273438 43.46875 -81.765625 C 44.519531 -82.335938 45.925781 -82.671875 47.6875 -82.765625 C 49.457031 -82.859375 50.914062 -82.09375 52.0625 -80.46875 L 55.359375 -77.171875 C 56.222656 -76.304688 56.796875 -76.28125 57.078125 -77.09375 C 57.367188 -77.90625 57.441406 -79.078125 57.296875 -80.609375 C 57.160156 -82.140625 56.828125 -83.644531 56.296875 -85.125 C 55.773438 -86.613281 55.082031 -87.597656 54.21875 -88.078125 C 53.257812 -88.648438 51.847656 -89.050781 49.984375 -89.28125 C 48.117188 -89.519531 46.660156 -89.453125 45.609375 -89.078125 C 42.648438 -88.117188 39.832031 -86.660156 37.15625 -84.703125 C 34.476562 -82.742188 31.894531 -80.375 29.40625 -77.59375 C 26.15625 -73.863281 23.523438 -70.039062 21.515625 -66.125 C 19.503906 -62.207031 17.925781 -58.046875 16.78125 -53.640625 C 15.25 -47.804688 13.910156 -41.878906 12.765625 -35.859375 C 11.617188 -29.835938 10.519531 -23.859375 9.46875 -17.921875 C 9.082031 -15.828125 8.554688 -13.507812 7.890625 -10.96875 C 7.222656 -8.4375 6.21875 -6.070312 4.875 -3.875 C 3.539062 -1.675781 1.675781 0.09375 -0.71875 1.4375 Z M -0.71875 1.4375 "/></g></g><g style="fill:#000000;fill-opacity:1;"><g transform="translate(202.327386, 223.657653)"><path style="stroke:none" d="M 13.203125 -29.984375 C 13.203125 -30.742188 13.203125 -31.382812 13.203125 -31.90625 C 13.203125 -32.4375 13.101562 -32.894531 12.90625 -33.28125 C 12.71875 -34.90625 11.90625 -35.765625 10.46875 -35.859375 C 9.707031 -36.046875 8.96875 -35.898438 8.25 -35.421875 C 7.53125 -34.953125 7.125 -34.285156 7.03125 -33.421875 C 6.363281 -30.359375 5.738281 -27.320312 5.15625 -24.3125 C 4.582031 -21.300781 4.054688 -18.265625 3.578125 -15.203125 C 3.484375 -14.816406 3.578125 -14.382812 3.859375 -13.90625 C 4.148438 -13.4375 4.394531 -13.203125 4.59375 -13.203125 C 5.070312 -13.203125 5.617188 -13.25 6.234375 -13.34375 C 6.859375 -13.4375 7.21875 -13.675781 7.3125 -14.0625 C 8.75 -16.738281 9.992188 -19.390625 11.046875 -22.015625 C 12.097656 -24.648438 12.816406 -27.304688 13.203125 -29.984375 Z M 13.203125 -29.984375 "/></g></g><g style="fill:#000000;fill-opacity:1;"><g transform="translate(216.24027, 223.657653)"><path style="stroke:none" d="M 41.734375 -24.234375 C 41.453125 -30.640625 39.707031 -34.988281 36.5 -37.28125 C 33.300781 -39.582031 29.40625 -40.78125 24.8125 -40.875 C 23.570312 -40.875 22.425781 -40.707031 21.375 -40.375 C 20.320312 -40.039062 19.316406 -39.394531 18.359375 -38.4375 C 17.785156 -37.101562 16.734375 -36.148438 15.203125 -35.578125 C 14.054688 -34.898438 13.21875 -34.15625 12.6875 -33.34375 C 12.164062 -32.53125 11.710938 -31.457031 11.328125 -30.125 C 9.222656 -24.476562 7.476562 -18.710938 6.09375 -12.828125 C 4.707031 -6.953125 2.722656 -1.191406 0.140625 4.453125 C 0.046875 4.546875 0.0195312 4.660156 0.0625 4.796875 C 0.113281 4.941406 0.140625 5.113281 0.140625 5.3125 C 0.140625 5.976562 0.378906 6.503906 0.859375 6.890625 C 1.242188 7.265625 1.816406 7.359375 2.578125 7.171875 C 3.722656 6.785156 4.65625 6.160156 5.375 5.296875 C 6.09375 4.441406 6.644531 3.488281 7.03125 2.4375 C 8.175781 -0.71875 9.34375 -3.800781 10.53125 -6.8125 C 11.726562 -9.820312 12.90625 -12.859375 14.0625 -15.921875 C 14.34375 -16.972656 14.722656 -17.925781 15.203125 -18.78125 C 15.679688 -19.644531 16.539062 -20.125 17.78125 -20.21875 C 18.738281 -20.414062 19.3125 -20.847656 19.5 -21.515625 C 19.695312 -22.179688 19.84375 -22.851562 19.9375 -23.53125 C 19.84375 -24.675781 19.796875 -25.796875 19.796875 -26.890625 C 19.796875 -27.992188 19.84375 -29.023438 19.9375 -29.984375 C 20.320312 -31.890625 21.375 -33.222656 23.09375 -33.984375 C 24.8125 -34.753906 26.53125 -34.660156 28.25 -33.703125 C 29.976562 -32.648438 31.414062 -31.453125 32.5625 -30.109375 C 33.707031 -28.773438 34.425781 -27.101562 34.71875 -25.09375 C 34.90625 -23.09375 35.019531 -21.109375 35.0625 -19.140625 C 35.113281 -17.179688 34.804688 -15.25 34.140625 -13.34375 C 33.273438 -11.519531 32.484375 -9.601562 31.765625 -7.59375 C 31.054688 -5.59375 30.363281 -3.632812 29.6875 -1.71875 C 29.78125 -1.53125 29.851562 -1.289062 29.90625 -1 C 29.957031 -0.71875 30.078125 -0.476562 30.265625 -0.28125 C 30.453125 -0.1875 30.710938 -0.09375 31.046875 0 C 31.390625 0.09375 31.65625 0.046875 31.84375 -0.140625 C 32.601562 -0.523438 33.390625 -0.929688 34.203125 -1.359375 C 35.015625 -1.796875 35.613281 -2.347656 36 -3.015625 C 37.914062 -6.171875 39.375 -9.515625 40.375 -13.046875 C 41.382812 -16.585938 41.835938 -20.316406 41.734375 -24.234375 Z M 41.734375 -24.234375 "/></g></g><g style="fill:#000000;fill-opacity:1;"><g transform="translate(259.413259, 223.657653)"><path style="stroke:none" d="M 17.921875 -24.390625 C 11.515625 -25.335938 8.601562 -22.945312 9.1875 -17.21875 C 9.46875 -15.78125 9.5625 -14.488281 9.46875 -13.34375 C 6.789062 -6.644531 3.679688 -0.257812 0.140625 5.8125 C -3.390625 11.882812 -7.976562 17.359375 -13.625 22.234375 C -22.132812 29.597656 -31.503906 35.097656 -41.734375 38.734375 C -43.835938 39.398438 -45.988281 39.851562 -48.1875 40.09375 C -50.394531 40.332031 -52.597656 40.59375 -54.796875 40.875 C -55.367188 40.96875 -55.988281 41.015625 -56.65625 41.015625 C -57.320312 41.015625 -57.992188 41.113281 -58.671875 41.3125 C -58.859375 41.40625 -58.613281 41.929688 -57.9375 42.890625 C -57.269531 43.847656 -56.507812 44.515625 -55.65625 44.890625 C -54.601562 45.566406 -53.476562 45.878906 -52.28125 45.828125 C -51.082031 45.773438 -49.863281 45.703125 -48.625 45.609375 C -43.84375 44.847656 -39.203125 43.675781 -34.703125 42.09375 C -30.210938 40.519531 -25.816406 38.679688 -21.515625 36.578125 C -15.972656 33.703125 -11.265625 30.085938 -7.390625 25.734375 C -3.515625 21.390625 0.429688 17.113281 4.453125 12.90625 L 14.203125 -7.03125 C 14.679688 -7.988281 15.109375 -9.015625 15.484375 -10.109375 C 15.867188 -11.210938 16.253906 -12.289062 16.640625 -13.34375 C 17.304688 -14.488281 18.164062 -14.582031 19.21875 -13.625 C 20.9375 -12.1875 22.535156 -10.703125 24.015625 -9.171875 C 25.503906 -7.648438 26.773438 -5.882812 27.828125 -3.875 C 28.015625 -3.488281 28.441406 -3.175781 29.109375 -2.9375 C 29.785156 -2.695312 30.316406 -2.675781 30.703125 -2.875 C 31.078125 -2.96875 31.40625 -3.300781 31.6875 -3.875 C 31.976562 -4.445312 32.125 -4.925781 32.125 -5.3125 C 32.21875 -5.976562 32.144531 -6.617188 31.90625 -7.234375 C 31.675781 -7.859375 31.414062 -8.507812 31.125 -9.1875 C 29.976562 -11.957031 28.328125 -14.320312 26.171875 -16.28125 C 24.023438 -18.238281 22.140625 -20.363281 20.515625 -22.65625 C 20.128906 -23.132812 19.671875 -23.515625 19.140625 -23.796875 C 18.617188 -24.085938 18.210938 -24.285156 17.921875 -24.390625 Z M 17.921875 -24.390625 "/></g></g><g style="fill:#000000;fill-opacity:1;"><g transform="translate(292.976317, 223.657653)"><path style="stroke:none" d="M 35.71875 -24.953125 C 35.332031 -27.734375 34.660156 -30.269531 33.703125 -32.5625 C 32.742188 -34.851562 31.21875 -36.765625 29.125 -38.296875 C 26.539062 -40.210938 23.835938 -41.171875 21.015625 -41.171875 C 18.191406 -41.171875 15.515625 -40.644531 12.984375 -39.59375 C 10.453125 -38.539062 8.394531 -37.222656 6.8125 -35.640625 C 5.238281 -34.066406 4.453125 -32.5625 4.453125 -31.125 C 4.453125 -30.738281 4.5 -30.378906 4.59375 -30.046875 C 4.6875 -29.710938 4.78125 -29.351562 4.875 -28.96875 C 5.257812 -29.070312 5.640625 -29.171875 6.015625 -29.265625 C 6.398438 -29.359375 6.691406 -29.546875 6.890625 -29.828125 C 7.941406 -30.503906 8.894531 -31.25 9.75 -32.0625 C 10.613281 -32.875 11.664062 -33.566406 12.90625 -34.140625 C 14.625 -34.898438 16.296875 -35.1875 17.921875 -35 C 19.554688 -34.8125 21.234375 -34.332031 22.953125 -33.5625 C 24.003906 -33.082031 24.863281 -32.507812 25.53125 -31.84375 C 26.195312 -31.175781 26.722656 -30.21875 27.109375 -28.96875 C 28.066406 -25.4375 28.210938 -21.753906 27.546875 -17.921875 C 26.960938 -14.296875 25.976562 -10.90625 24.59375 -7.75 C 23.207031 -4.59375 21.222656 -1.675781 18.640625 1 C 18.160156 1.289062 18.019531 1.769531 18.21875 2.4375 C 18.125 2.625 18.144531 2.835938 18.28125 3.078125 C 18.425781 3.316406 18.597656 3.484375 18.796875 3.578125 C 20.035156 3.867188 21.15625 3.773438 22.15625 3.296875 C 23.164062 2.816406 24.003906 2.195312 24.671875 1.4375 C 25.722656 0.289062 26.703125 -0.898438 27.609375 -2.140625 C 28.515625 -3.390625 29.304688 -4.6875 29.984375 -6.03125 C 31.703125 -9.082031 33.085938 -12.1875 34.140625 -15.34375 C 35.191406 -18.5 35.71875 -21.703125 35.71875 -24.953125 Z M 16.0625 -20.375 C 15.675781 -21.132812 15.269531 -21.773438 14.84375 -22.296875 C 14.414062 -22.828125 13.914062 -23.140625 13.34375 -23.234375 C 12.476562 -23.523438 11.710938 -23.40625 11.046875 -22.875 C 10.378906 -22.351562 9.945312 -21.660156 9.75 -20.796875 C 9.46875 -19.929688 9.226562 -19.117188 9.03125 -18.359375 C 8.84375 -17.597656 8.601562 -16.832031 8.3125 -16.0625 C 7.257812 -13.863281 6.207031 -11.640625 5.15625 -9.390625 C 4.101562 -7.148438 3.101562 -4.878906 2.15625 -2.578125 C 1.769531 -1.816406 1.191406 -1.097656 0.421875 -0.421875 C -0.335938 0.242188 -0.238281 1.148438 0.71875 2.296875 C 1.476562 1.910156 2.238281 1.523438 3 1.140625 C 3.769531 0.765625 4.441406 0.335938 5.015625 -0.140625 C 6.742188 -1.484375 8.082031 -2.867188 9.03125 -4.296875 C 9.800781 -5.347656 10.519531 -6.472656 11.1875 -7.671875 C 11.851562 -8.867188 12.378906 -9.847656 12.765625 -10.609375 C 13.628906 -12.523438 14.296875 -14.175781 14.765625 -15.5625 C 15.242188 -16.945312 15.675781 -18.550781 16.0625 -20.375 Z M 16.0625 -20.375 "/></g></g><g style="fill:#000000;fill-opacity:1;"><g transform="translate(331.559478, 223.657653)"><path style="stroke:none" d="M -0.71875 1.4375 C 0.625 2.863281 2.175781 3.335938 3.9375 2.859375 C 5.707031 2.390625 7.117188 1.675781 8.171875 0.71875 C 10.179688 -1 11.757812 -3.171875 12.90625 -5.796875 C 14.050781 -8.429688 14.910156 -11.085938 15.484375 -13.765625 C 16.535156 -20.742188 17.5625 -27.867188 18.5625 -35.140625 C 19.570312 -42.410156 21.414062 -49.25 24.09375 -55.65625 C 26.289062 -61.007812 28.921875 -66.078125 31.984375 -70.859375 C 35.046875 -75.640625 38.875 -79.273438 43.46875 -81.765625 C 44.519531 -82.335938 45.925781 -82.671875 47.6875 -82.765625 C 49.457031 -82.859375 50.914062 -82.09375 52.0625 -80.46875 L 55.359375 -77.171875 C 56.222656 -76.304688 56.796875 -76.28125 57.078125 -77.09375 C 57.367188 -77.90625 57.441406 -79.078125 57.296875 -80.609375 C 57.160156 -82.140625 56.828125 -83.644531 56.296875 -85.125 C 55.773438 -86.613281 55.082031 -87.597656 54.21875 -88.078125 C 53.257812 -88.648438 51.847656 -89.050781 49.984375 -89.28125 C 48.117188 -89.519531 46.660156 -89.453125 45.609375 -89.078125 C 42.648438 -88.117188 39.832031 -86.660156 37.15625 -84.703125 C 34.476562 -82.742188 31.894531 -80.375 29.40625 -77.59375 C 26.15625 -73.863281 23.523438 -70.039062 21.515625 -66.125 C 19.503906 -62.207031 17.925781 -58.046875 16.78125 -53.640625 C 15.25 -47.804688 13.910156 -41.878906 12.765625 -35.859375 C 11.617188 -29.835938 10.519531 -23.859375 9.46875 -17.921875 C 9.082031 -15.828125 8.554688 -13.507812 7.890625 -10.96875 C 7.222656 -8.4375 6.21875 -6.070312 4.875 -3.875 C 3.539062 -1.675781 1.675781 0.09375 -0.71875 1.4375 Z M -0.71875 1.4375 "/></g></g><g style="fill:#000000;fill-opacity:1;"><g transform="translate(351.783365, 223.657653)"><path style="stroke:none" d=""/></g></g><g style="fill:#000000;fill-opacity:1;"><g transform="translate(383.338374, 223.657653)"><path style="stroke:none" d="M 21.796875 -37.296875 C 22.085938 -38.828125 21.679688 -40.140625 20.578125 -41.234375 C 19.484375 -42.335938 18.265625 -42.9375 16.921875 -43.03125 C 14.816406 -43.03125 13.625 -41.359375 13.34375 -38.015625 C 13.25 -33.804688 12.742188 -29.71875 11.828125 -25.75 C 10.921875 -21.78125 9.65625 -17.832031 8.03125 -13.90625 C 7.070312 -11.226562 5.875 -8.597656 4.4375 -6.015625 C 3.007812 -3.441406 2.390625 -0.578125 2.578125 2.578125 C 2.578125 3.242188 3.75 2.523438 6.09375 0.421875 C 8.4375 -1.671875 10.945312 -5.394531 13.625 -10.75 C 14.863281 -13.144531 16.035156 -15.921875 17.140625 -19.078125 C 18.242188 -22.234375 19.203125 -25.4375 20.015625 -28.6875 C 20.828125 -31.9375 21.421875 -34.804688 21.796875 -37.296875 Z M 21.796875 -37.296875 "/></g></g><g style="fill:#000000;fill-opacity:1;"><g transform="translate(405.713747, 223.657653)"><path style="stroke:none" d="M 24.671875 -60.671875 C 20.367188 -61.816406 16.019531 -61.722656 11.625 -60.390625 C 9.320312 -59.722656 8.125 -58.335938 8.03125 -56.234375 C 7.84375 -55.078125 8.128906 -54.117188 8.890625 -53.359375 C 9.085938 -53.171875 9.519531 -53.097656 10.1875 -53.140625 C 10.851562 -53.191406 11.378906 -53.3125 11.765625 -53.5 C 13.484375 -54.164062 15.488281 -54.617188 17.78125 -54.859375 C 20.082031 -55.097656 22.519531 -54.976562 25.09375 -54.5 C 27.007812 -54.125 28.613281 -53.265625 29.90625 -51.921875 C 31.195312 -50.585938 32.035156 -48.960938 32.421875 -47.046875 C 32.609375 -46.472656 32.703125 -45.875 32.703125 -45.25 C 32.703125 -44.632812 32.609375 -44.179688 32.421875 -43.890625 C 30.890625 -41.503906 29.140625 -39.445312 27.171875 -37.71875 C 25.210938 -36 22.5625 -35.378906 19.21875 -35.859375 C 18.832031 -35.953125 18.425781 -36.046875 18 -36.140625 C 17.570312 -36.242188 17.164062 -36.148438 16.78125 -35.859375 C 16.394531 -35.671875 15.988281 -35.382812 15.5625 -35 C 15.132812 -34.613281 14.875 -34.179688 14.78125 -33.703125 C 14.582031 -32.648438 14.867188 -31.648438 15.640625 -30.703125 C 16.210938 -30.316406 16.804688 -30.050781 17.421875 -29.90625 C 18.046875 -29.757812 18.691406 -29.59375 19.359375 -29.40625 C 22.804688 -28.632812 25.53125 -27.101562 27.53125 -24.8125 C 29.539062 -22.519531 31.265625 -19.890625 32.703125 -16.921875 C 34.234375 -13.960938 34.140625 -11.046875 32.421875 -8.171875 C 30.691406 -5.878906 28.773438 -3.941406 26.671875 -2.359375 C 24.578125 -0.785156 22.09375 0.238281 19.21875 0.71875 C 16.632812 1.195312 14.050781 1.53125 11.46875 1.71875 C 8.894531 1.914062 6.265625 1.820312 3.578125 1.4375 L -0.4375 1 C -0.90625 1.195312 -1.238281 1.582031 -1.4375 2.15625 C -1.53125 2.25 -1.503906 2.460938 -1.359375 2.796875 C -1.210938 3.128906 -1.09375 3.34375 -1 3.4375 C 0.90625 4.78125 2.929688 5.570312 5.078125 5.8125 C 7.234375 6.050781 9.363281 6.265625 11.46875 6.453125 C 15.675781 6.835938 19.644531 6.40625 23.375 5.15625 C 27.101562 3.914062 30.59375 2.148438 33.84375 -0.140625 C 35.945312 -1.578125 37.617188 -3.367188 38.859375 -5.515625 C 40.109375 -7.671875 40.492188 -10.085938 40.015625 -12.765625 C 39.347656 -16.015625 38.460938 -19.144531 37.359375 -22.15625 C 36.265625 -25.164062 34.1875 -27.722656 31.125 -29.828125 C 29.3125 -31.171875 29.3125 -32.460938 31.125 -33.703125 C 34.851562 -35.804688 37.53125 -38.820312 39.15625 -42.75 C 40.207031 -45.800781 40.226562 -48.738281 39.21875 -51.5625 C 38.21875 -54.382812 36.238281 -56.5625 33.28125 -58.09375 C 32.03125 -58.664062 30.640625 -59.164062 29.109375 -59.59375 C 27.585938 -60.03125 26.109375 -60.390625 24.671875 -60.671875 Z M 24.671875 -60.671875 "/></g></g><g style="fill:#000000;fill-opacity:1;"><g transform="translate(450.894766, 223.657653)"><path style="stroke:none" d="M 33.703125 -18.9375 L 33.703125 -19.796875 C 33.609375 -22.285156 32.796875 -24.554688 31.265625 -26.609375 C 29.734375 -28.660156 27.84375 -30.304688 25.59375 -31.546875 C 23.351562 -32.796875 20.988281 -33.5625 18.5 -33.84375 C 16.019531 -34.132812 13.675781 -33.707031 11.46875 -32.5625 C 10.613281 -32.082031 9.78125 -31.554688 8.96875 -30.984375 C 8.15625 -30.410156 7.363281 -29.835938 6.59375 -29.265625 C 3.25 -27.160156 2.148438 -24.050781 3.296875 -19.9375 C 3.296875 -19.269531 3.582031 -18.9375 4.15625 -18.9375 C 4.351562 -18.84375 4.59375 -18.84375 4.875 -18.9375 C 5.164062 -19.03125 5.359375 -19.125 5.453125 -19.21875 C 5.929688 -19.882812 6.359375 -20.671875 6.734375 -21.578125 C 7.117188 -22.492188 7.644531 -23.09375 8.3125 -23.375 C 10.414062 -24.332031 12.59375 -25.097656 14.84375 -25.671875 C 17.09375 -26.242188 19.410156 -26.050781 21.796875 -25.09375 C 23.234375 -24.519531 24.40625 -23.5625 25.3125 -22.21875 C 26.21875 -20.882812 26.4375 -19.453125 25.96875 -17.921875 C 25.582031 -15.347656 25.050781 -12.789062 24.375 -10.25 C 23.707031 -7.71875 22.375 -5.492188 20.375 -3.578125 C 19.601562 -2.910156 18.953125 -2.070312 18.421875 -1.0625 C 17.898438 -0.0625 17.398438 0.960938 16.921875 2.015625 C 16.828125 2.203125 16.828125 2.535156 16.921875 3.015625 C 17.015625 3.492188 17.113281 3.828125 17.21875 4.015625 C 17.5 4.203125 17.898438 4.296875 18.421875 4.296875 C 18.953125 4.296875 19.3125 4.203125 19.5 4.015625 C 21.132812 2.390625 22.8125 0.789062 24.53125 -0.78125 C 26.25 -2.363281 27.726562 -4.113281 28.96875 -6.03125 C 30.21875 -7.9375 31.367188 -9.960938 32.421875 -12.109375 C 33.472656 -14.265625 33.898438 -16.539062 33.703125 -18.9375 Z M 33.703125 -18.9375 "/></g></g><g style="fill:#000000;fill-opacity:1;"><g transform="translate(487.469879, 223.657653)"><path style="stroke:none" d="M 17.921875 -24.390625 C 11.515625 -25.335938 8.601562 -22.945312 9.1875 -17.21875 C 9.46875 -15.78125 9.5625 -14.488281 9.46875 -13.34375 C 6.789062 -6.644531 3.679688 -0.257812 0.140625 5.8125 C -3.390625 11.882812 -7.976562 17.359375 -13.625 22.234375 C -22.132812 29.597656 -31.503906 35.097656 -41.734375 38.734375 C -43.835938 39.398438 -45.988281 39.851562 -48.1875 40.09375 C -50.394531 40.332031 -52.597656 40.59375 -54.796875 40.875 C -55.367188 40.96875 -55.988281 41.015625 -56.65625 41.015625 C -57.320312 41.015625 -57.992188 41.113281 -58.671875 41.3125 C -58.859375 41.40625 -58.613281 41.929688 -57.9375 42.890625 C -57.269531 43.847656 -56.507812 44.515625 -55.65625 44.890625 C -54.601562 45.566406 -53.476562 45.878906 -52.28125 45.828125 C -51.082031 45.773438 -49.863281 45.703125 -48.625 45.609375 C -43.84375 44.847656 -39.203125 43.675781 -34.703125 42.09375 C -30.210938 40.519531 -25.816406 38.679688 -21.515625 36.578125 C -15.972656 33.703125 -11.265625 30.085938 -7.390625 25.734375 C -3.515625 21.390625 0.429688 17.113281 4.453125 12.90625 L 14.203125 -7.03125 C 14.679688 -7.988281 15.109375 -9.015625 15.484375 -10.109375 C 15.867188 -11.210938 16.253906 -12.289062 16.640625 -13.34375 C 17.304688 -14.488281 18.164062 -14.582031 19.21875 -13.625 C 20.9375 -12.1875 22.535156 -10.703125 24.015625 -9.171875 C 25.503906 -7.648438 26.773438 -5.882812 27.828125 -3.875 C 28.015625 -3.488281 28.441406 -3.175781 29.109375 -2.9375 C 29.785156 -2.695312 30.316406 -2.675781 30.703125 -2.875 C 31.078125 -2.96875 31.40625 -3.300781 31.6875 -3.875 C 31.976562 -4.445312 32.125 -4.925781 32.125 -5.3125 C 32.21875 -5.976562 32.144531 -6.617188 31.90625 -7.234375 C 31.675781 -7.859375 31.414062 -8.507812 31.125 -9.1875 C 29.976562 -11.957031 28.328125 -14.320312 26.171875 -16.28125 C 24.023438 -18.238281 22.140625 -20.363281 20.515625 -22.65625 C 20.128906 -23.132812 19.671875 -23.515625 19.140625 -23.796875 C 18.617188 -24.085938 18.210938 -24.285156 17.921875 -24.390625 Z M 17.921875 -24.390625 "/></g></g><g style="fill:#000000;fill-opacity:1;"><g transform="translate(521.032919, 223.657653)"><path style="stroke:none" d=""/></g></g><g style="fill:#000000;fill-opacity:1;"><g transform="translate(552.587946, 223.657653)"><path style="stroke:none" d="M 23.671875 -41.015625 C 23.378906 -41.210938 23.113281 -41.429688 22.875 -41.671875 C 22.632812 -41.910156 22.375 -42.03125 22.09375 -42.03125 C 19.789062 -42.03125 17.992188 -41.382812 16.703125 -40.09375 C 15.421875 -38.800781 14.394531 -37.195312 13.625 -35.28125 L 8.03125 -22.375 C 7.164062 -20.5625 6.375 -18.695312 5.65625 -16.78125 C 4.945312 -14.863281 4.207031 -12.953125 3.4375 -11.046875 L -5.015625 10.46875 C -5.398438 11.519531 -5.757812 12.644531 -6.09375 13.84375 C -6.425781 15.039062 -6.738281 16.210938 -7.03125 17.359375 C -7.125 17.453125 -7.070312 17.617188 -6.875 17.859375 C -6.6875 18.097656 -6.5 18.3125 -6.3125 18.5 C -5.738281 18.789062 -5.164062 18.835938 -4.59375 18.640625 C -3.25 17.304688 -1.90625 15.96875 -0.5625 14.625 C 0.769531 13.289062 1.769531 11.710938 2.4375 9.890625 C 4.632812 4.347656 6.90625 -1.117188 9.25 -6.515625 C 11.59375 -11.921875 13.863281 -17.351562 16.0625 -22.8125 L 18.9375 -29.6875 C 19.414062 -31.3125 19.914062 -32.984375 20.4375 -34.703125 C 20.96875 -36.429688 21.945312 -37.914062 23.375 -39.15625 C 23.570312 -39.34375 23.644531 -39.601562 23.59375 -39.9375 C 23.550781 -40.28125 23.578125 -40.640625 23.671875 -41.015625 Z M 36.859375 3.015625 C 39.628906 3.015625 42.140625 2.222656 44.390625 0.640625 C 46.640625 -0.929688 47.957031 -2.914062 48.34375 -5.3125 C 48.53125 -5.59375 48.476562 -5.898438 48.1875 -6.234375 C 47.90625 -6.566406 47.671875 -6.734375 47.484375 -6.734375 C 47.003906 -6.640625 46.546875 -6.5 46.109375 -6.3125 C 45.679688 -6.125 45.226562 -5.929688 44.75 -5.734375 C 41.789062 -4.203125 38.734375 -3.410156 35.578125 -3.359375 C 32.421875 -3.316406 29.550781 -4.632812 26.96875 -7.3125 C 26.488281 -7.882812 26.082031 -8.71875 25.75 -9.8125 C 25.414062 -10.914062 25.488281 -11.898438 25.96875 -12.765625 C 27.019531 -14.867188 28.59375 -16.421875 30.6875 -17.421875 C 32.789062 -18.429688 35.0625 -18.835938 37.5 -18.640625 C 39.945312 -18.453125 42.078125 -17.640625 43.890625 -16.203125 C 44.367188 -15.828125 44.847656 -15.445312 45.328125 -15.0625 C 45.804688 -14.675781 46.378906 -14.289062 47.046875 -13.90625 C 47.140625 -13.8125 47.351562 -13.785156 47.6875 -13.828125 C 48.019531 -13.878906 48.332031 -13.957031 48.625 -14.0625 C 48.71875 -14.34375 48.835938 -14.675781 48.984375 -15.0625 C 49.128906 -15.445312 49.15625 -15.78125 49.0625 -16.0625 C 48.957031 -16.632812 48.832031 -17.253906 48.6875 -17.921875 C 48.550781 -18.597656 48.289062 -19.125 47.90625 -19.5 C 46.757812 -20.457031 45.585938 -21.367188 44.390625 -22.234375 C 43.191406 -23.097656 42.019531 -23.910156 40.875 -24.671875 C 40.5 -24.859375 40.046875 -24.972656 39.515625 -25.015625 C 38.992188 -25.066406 38.492188 -25.09375 38.015625 -25.09375 C 34.859375 -25.289062 31.722656 -24.863281 28.609375 -23.8125 C 25.503906 -22.757812 23.140625 -21.179688 21.515625 -19.078125 C 19.703125 -16.679688 18.484375 -14.40625 17.859375 -12.25 C 17.234375 -10.101562 17.925781 -7.789062 19.9375 -5.3125 C 22.039062 -2.632812 24.503906 -0.578125 27.328125 0.859375 C 30.148438 2.296875 33.328125 3.015625 36.859375 3.015625 Z M 36.859375 3.015625 "/></g></g><g style="fill:#000000;fill-opacity:1;"><g transform="translate(603.075961, 223.657653)"><path style="stroke:none" d="M 31.984375 -30.703125 C 30.359375 -28.878906 28.515625 -27.273438 26.453125 -25.890625 C 24.398438 -24.503906 22.375 -23.046875 20.375 -21.515625 C 19.414062 -20.847656 18.050781 -20.035156 16.28125 -19.078125 C 14.507812 -18.117188 13.097656 -17.546875 12.046875 -17.359375 C 12.140625 -18.410156 12.1875 -19.722656 12.1875 -21.296875 C 12.1875 -22.878906 12.234375 -24.195312 12.328125 -25.25 C 12.617188 -27.15625 13.21875 -29.519531 14.125 -32.34375 C 15.03125 -35.164062 16.148438 -38.128906 17.484375 -41.234375 C 18.828125 -44.347656 20.3125 -47.289062 21.9375 -50.0625 C 23.570312 -52.832031 25.222656 -55.125 26.890625 -56.9375 C 28.566406 -58.757812 30.21875 -59.765625 31.84375 -59.953125 C 34.039062 -60.335938 36.023438 -59.90625 37.796875 -58.65625 C 39.566406 -57.414062 40.738281 -55.554688 41.3125 -53.078125 C 41.976562 -50.398438 41.832031 -47.648438 40.875 -44.828125 C 39.914062 -42.003906 38.597656 -39.375 36.921875 -36.9375 C 35.253906 -34.5 33.609375 -32.421875 31.984375 -30.703125 Z M 24.671875 8.609375 C 25.242188 8.515625 25.789062 8.414062 26.3125 8.3125 C 26.84375 8.21875 27.394531 8.125 27.96875 8.03125 C 32.269531 6.5 36.070312 3.941406 39.375 0.359375 C 42.675781 -3.222656 45.953125 -7.117188 49.203125 -11.328125 C 49.773438 -12.191406 49.894531 -13.21875 49.5625 -14.40625 C 49.226562 -15.601562 48.722656 -16.300781 48.046875 -16.5 C 47.765625 -16.6875 47.40625 -16.632812 46.96875 -16.34375 C 46.539062 -16.0625 46.132812 -15.773438 45.75 -15.484375 C 45.5625 -15.296875 45.394531 -15.007812 45.25 -14.625 C 45.113281 -14.25 44.945312 -13.960938 44.75 -13.765625 C 42.363281 -10.609375 39.734375 -7.8125 36.859375 -5.375 C 33.992188 -2.9375 30.890625 -0.710938 27.546875 1.296875 C 26.390625 1.960938 25.238281 2.414062 24.09375 2.65625 C 22.945312 2.894531 21.847656 2.96875 20.796875 2.875 C 18.410156 2.875 16.691406 1.867188 15.640625 -0.140625 C 14.867188 -1.960938 14.097656 -4.113281 13.328125 -6.59375 C 12.566406 -9.082031 12.332031 -11.09375 12.625 -12.625 C 13.675781 -12.8125 15.347656 -13.332031 17.640625 -14.1875 C 19.929688 -15.050781 21.703125 -15.820312 22.953125 -16.5 C 25.429688 -17.832031 27.84375 -19.476562 30.1875 -21.4375 C 32.53125 -23.40625 34.800781 -25.488281 37 -27.6875 C 39.488281 -30.070312 41.566406 -32.9375 43.234375 -36.28125 C 44.910156 -39.632812 46.226562 -43.078125 47.1875 -46.609375 C 47.757812 -48.523438 48.09375 -50.488281 48.1875 -52.5 C 48.289062 -54.507812 47.671875 -56.421875 46.328125 -58.234375 C 43.078125 -62.921875 39.441406 -65.503906 35.421875 -65.984375 C 31.410156 -66.460938 27.539062 -65.125 23.8125 -61.96875 C 20.082031 -58.8125 16.878906 -54.125 14.203125 -47.90625 C 12.191406 -43.3125 10.394531 -38.625 8.8125 -33.84375 C 7.238281 -29.0625 6.210938 -24.140625 5.734375 -19.078125 C 5.828125 -18.984375 5.847656 -18.863281 5.796875 -18.71875 C 5.753906 -18.570312 5.734375 -18.453125 5.734375 -18.359375 C 5.734375 -16.347656 4.726562 -15.390625 2.71875 -15.484375 C 2.144531 -15.679688 1.71875 -15.734375 1.4375 -15.640625 C 1.34375 -15.640625 1.101562 -15.539062 0.71875 -15.34375 C 0.53125 -14.863281 0.578125 -14.484375 0.859375 -14.203125 C 1.148438 -13.816406 1.507812 -13.457031 1.9375 -13.125 C 2.363281 -12.789062 2.769531 -12.578125 3.15625 -12.484375 C 4.78125 -12.378906 5.851562 -11.773438 6.375 -10.671875 C 6.90625 -9.578125 7.316406 -8.363281 7.609375 -7.03125 C 8.078125 -5.976562 8.40625 -4.851562 8.59375 -3.65625 C 8.789062 -2.457031 9.082031 -1.332031 9.46875 -0.28125 C 10.707031 3.25 12.351562 5.707031 14.40625 7.09375 C 16.46875 8.488281 19.410156 9.039062 23.234375 8.75 C 23.429688 8.75 23.644531 8.722656 23.875 8.671875 C 24.113281 8.628906 24.378906 8.609375 24.671875 8.609375 Z M 24.671875 8.609375 "/></g></g><g style="fill:#000000;fill-opacity:1;"><g transform="translate(655.715426, 223.657653)"><path style="stroke:none" d="M 21.796875 -37.296875 C 22.085938 -38.828125 21.679688 -40.140625 20.578125 -41.234375 C 19.484375 -42.335938 18.265625 -42.9375 16.921875 -43.03125 C 14.816406 -43.03125 13.625 -41.359375 13.34375 -38.015625 C 13.25 -33.804688 12.742188 -29.71875 11.828125 -25.75 C 10.921875 -21.78125 9.65625 -17.832031 8.03125 -13.90625 C 7.070312 -11.226562 5.875 -8.597656 4.4375 -6.015625 C 3.007812 -3.441406 2.390625 -0.578125 2.578125 2.578125 C 2.578125 3.242188 3.75 2.523438 6.09375 0.421875 C 8.4375 -1.671875 10.945312 -5.394531 13.625 -10.75 C 14.863281 -13.144531 16.035156 -15.921875 17.140625 -19.078125 C 18.242188 -22.234375 19.203125 -25.4375 20.015625 -28.6875 C 20.828125 -31.9375 21.421875 -34.804688 21.796875 -37.296875 Z M 21.796875 -37.296875 "/></g></g><g style="fill:#000000;fill-opacity:1;"><g transform="translate(678.090833, 223.657653)"><path style="stroke:none" d="M 12.90625 -37.4375 C 11.46875 -35.039062 10.554688 -32.476562 10.171875 -29.75 C 9.796875 -27.03125 9.367188 -24.285156 8.890625 -21.515625 C 7.453125 -14.054688 5.203125 -6.976562 2.140625 -0.28125 C -0.910156 6.40625 -4.6875 12.765625 -9.1875 18.796875 C -11.28125 21.472656 -13.710938 23.71875 -16.484375 25.53125 C -19.265625 27.34375 -22.472656 28.539062 -26.109375 29.125 C -29.066406 29.59375 -31.523438 29.179688 -33.484375 27.890625 C -35.453125 26.609375 -37.148438 24.769531 -38.578125 22.375 C -39.347656 23.613281 -39.679688 24.613281 -39.578125 25.375 C -39.484375 26.144531 -39.148438 26.769531 -38.578125 27.25 C -35.710938 30.976562 -32.25 33.269531 -28.1875 34.125 C -24.125 34.988281 -19.890625 34.46875 -15.484375 32.5625 C -10.898438 30.457031 -7.21875 27.585938 -4.4375 23.953125 C -1.664062 20.316406 1.003906 16.492188 3.578125 12.484375 C 8.078125 5.398438 11.160156 -1.914062 12.828125 -9.46875 C 14.503906 -17.019531 15.582031 -24.8125 16.0625 -32.84375 C 16.257812 -33.894531 16.1875 -34.78125 15.84375 -35.5 C 15.507812 -36.21875 14.53125 -36.863281 12.90625 -37.4375 Z M 12.90625 -37.4375 "/></g></g><g style="fill:#000000;fill-opacity:1;"><g transform="translate(697.167258, 223.657653)"><path style="stroke:none" d=""/></g></g><g style="fill:#000000;fill-opacity:1;"><g transform="translate(728.722249, 223.657653)"><path style="stroke:none" d="M 35.71875 -24.953125 C 35.332031 -27.734375 34.660156 -30.269531 33.703125 -32.5625 C 32.742188 -34.851562 31.21875 -36.765625 29.125 -38.296875 C 26.539062 -40.210938 23.835938 -41.171875 21.015625 -41.171875 C 18.191406 -41.171875 15.515625 -40.644531 12.984375 -39.59375 C 10.453125 -38.539062 8.394531 -37.222656 6.8125 -35.640625 C 5.238281 -34.066406 4.453125 -32.5625 4.453125 -31.125 C 4.453125 -30.738281 4.5 -30.378906 4.59375 -30.046875 C 4.6875 -29.710938 4.78125 -29.351562 4.875 -28.96875 C 5.257812 -29.070312 5.640625 -29.171875 6.015625 -29.265625 C 6.398438 -29.359375 6.691406 -29.546875 6.890625 -29.828125 C 7.941406 -30.503906 8.894531 -31.25 9.75 -32.0625 C 10.613281 -32.875 11.664062 -33.566406 12.90625 -34.140625 C 14.625 -34.898438 16.296875 -35.1875 17.921875 -35 C 19.554688 -34.8125 21.234375 -34.332031 22.953125 -33.5625 C 24.003906 -33.082031 24.863281 -32.507812 25.53125 -31.84375 C 26.195312 -31.175781 26.722656 -30.21875 27.109375 -28.96875 C 28.066406 -25.4375 28.210938 -21.753906 27.546875 -17.921875 C 26.960938 -14.296875 25.976562 -10.90625 24.59375 -7.75 C 23.207031 -4.59375 21.222656 -1.675781 18.640625 1 C 18.160156 1.289062 18.019531 1.769531 18.21875 2.4375 C 18.125 2.625 18.144531 2.835938 18.28125 3.078125 C 18.425781 3.316406 18.597656 3.484375 18.796875 3.578125 C 20.035156 3.867188 21.15625 3.773438 22.15625 3.296875 C 23.164062 2.816406 24.003906 2.195312 24.671875 1.4375 C 25.722656 0.289062 26.703125 -0.898438 27.609375 -2.140625 C 28.515625 -3.390625 29.304688 -4.6875 29.984375 -6.03125 C 31.703125 -9.082031 33.085938 -12.1875 34.140625 -15.34375 C 35.191406 -18.5 35.71875 -21.703125 35.71875 -24.953125 Z M 16.0625 -20.375 C 15.675781 -21.132812 15.269531 -21.773438 14.84375 -22.296875 C 14.414062 -22.828125 13.914062 -23.140625 13.34375 -23.234375 C 12.476562 -23.523438 11.710938 -23.40625 11.046875 -22.875 C 10.378906 -22.351562 9.945312 -21.660156 9.75 -20.796875 C 9.46875 -19.929688 9.226562 -19.117188 9.03125 -18.359375 C 8.84375 -17.597656 8.601562 -16.832031 8.3125 -16.0625 C 7.257812 -13.863281 6.207031 -11.640625 5.15625 -9.390625 C 4.101562 -7.148438 3.101562 -4.878906 2.15625 -2.578125 C 1.769531 -1.816406 1.191406 -1.097656 0.421875 -0.421875 C -0.335938 0.242188 -0.238281 1.148438 0.71875 2.296875 C 1.476562 1.910156 2.238281 1.523438 3 1.140625 C 3.769531 0.765625 4.441406 0.335938 5.015625 -0.140625 C 6.742188 -1.484375 8.082031 -2.867188 9.03125 -4.296875 C 9.800781 -5.347656 10.519531 -6.472656 11.1875 -7.671875 C 11.851562 -8.867188 12.378906 -9.847656 12.765625 -10.609375 C 13.628906 -12.523438 14.296875 -14.175781 14.765625 -15.5625 C 15.242188 -16.945312 15.675781 -18.550781 16.0625 -20.375 Z M 16.0625 -20.375 "/></g></g><g style="fill:#000000;fill-opacity:1;"><g transform="translate(767.305447, 223.657653)"><path style="stroke:none" d="M -14.921875 13.203125 C -13.191406 14.253906 -11.082031 14.921875 -8.59375 15.203125 C -6.113281 15.492188 -3.628906 15.539062 -1.140625 15.34375 C 1.335938 15.15625 3.4375 14.820312 5.15625 14.34375 C 8.789062 13.195312 12.234375 11.640625 15.484375 9.671875 C 18.742188 7.710938 21.710938 5.300781 24.390625 2.4375 C 26.867188 -0.332031 27.914062 -3.078125 27.53125 -5.796875 C 27.15625 -8.523438 25.296875 -10.941406 21.953125 -13.046875 C 21.660156 -13.335938 21.347656 -13.578125 21.015625 -13.765625 C 20.679688 -13.960938 20.367188 -14.109375 20.078125 -14.203125 C 15.960938 -17.265625 13.617188 -21.066406 13.046875 -25.609375 C 12.472656 -30.148438 13.957031 -34.378906 17.5 -38.296875 C 18.257812 -39.054688 19.070312 -39.675781 19.9375 -40.15625 C 20.125 -40.539062 20.359375 -40.925781 20.640625 -41.3125 C 20.929688 -41.695312 20.9375 -42.175781 20.65625 -42.75 C 19.988281 -44.28125 18.984375 -45.046875 17.640625 -45.046875 C 15.921875 -45.140625 14.488281 -44.613281 13.34375 -43.46875 C 11.8125 -42.21875 10.472656 -40.78125 9.328125 -39.15625 C 8.179688 -37.53125 7.507812 -35.617188 7.3125 -33.421875 C 5.78125 -23.671875 8.890625 -15.539062 16.640625 -9.03125 C 18.648438 -7.3125 19.675781 -5.804688 19.71875 -4.515625 C 19.769531 -3.222656 18.882812 -1.71875 17.0625 0 C 13.144531 4.394531 8.554688 7.550781 3.296875 9.46875 C 1.765625 9.945312 0.257812 10.328125 -1.21875 10.609375 C -2.695312 10.898438 -4.394531 11.140625 -6.3125 11.328125 C -6.789062 11.328125 -7.648438 11.300781 -8.890625 11.25 C -10.128906 11.207031 -11.394531 11.234375 -12.6875 11.328125 C -13.976562 11.421875 -14.910156 11.609375 -15.484375 11.890625 C -16.066406 12.179688 -15.878906 12.617188 -14.921875 13.203125 Z M -14.921875 13.203125 "/></g></g><g style="fill:#000000;fill-opacity:1;"><g transform="translate(796.278676, 223.657653)"><path style="stroke:none" d="M 13.203125 -29.984375 C 13.203125 -30.742188 13.203125 -31.382812 13.203125 -31.90625 C 13.203125 -32.4375 13.101562 -32.894531 12.90625 -33.28125 C 12.71875 -34.90625 11.90625 -35.765625 10.46875 -35.859375 C 9.707031 -36.046875 8.96875 -35.898438 8.25 -35.421875 C 7.53125 -34.953125 7.125 -34.285156 7.03125 -33.421875 C 6.363281 -30.359375 5.738281 -27.320312 5.15625 -24.3125 C 4.582031 -21.300781 4.054688 -18.265625 3.578125 -15.203125 C 3.484375 -14.816406 3.578125 -14.382812 3.859375 -13.90625 C 4.148438 -13.4375 4.394531 -13.203125 4.59375 -13.203125 C 5.070312 -13.203125 5.617188 -13.25 6.234375 -13.34375 C 6.859375 -13.4375 7.21875 -13.675781 7.3125 -14.0625 C 8.75 -16.738281 9.992188 -19.390625 11.046875 -22.015625 C 12.097656 -24.648438 12.816406 -27.304688 13.203125 -29.984375 Z M 13.203125 -29.984375 "/></g></g><g style="fill:#000000;fill-opacity:1;"><g transform="translate(810.191543, 223.657653)"><path style="stroke:none" d="M 23.671875 -41.015625 C 23.378906 -41.210938 23.113281 -41.429688 22.875 -41.671875 C 22.632812 -41.910156 22.375 -42.03125 22.09375 -42.03125 C 19.789062 -42.03125 17.992188 -41.382812 16.703125 -40.09375 C 15.421875 -38.800781 14.394531 -37.195312 13.625 -35.28125 L 8.03125 -22.375 C 7.164062 -20.5625 6.375 -18.695312 5.65625 -16.78125 C 4.945312 -14.863281 4.207031 -12.953125 3.4375 -11.046875 L -5.015625 10.46875 C -5.398438 11.519531 -5.757812 12.644531 -6.09375 13.84375 C -6.425781 15.039062 -6.738281 16.210938 -7.03125 17.359375 C -7.125 17.453125 -7.070312 17.617188 -6.875 17.859375 C -6.6875 18.097656 -6.5 18.3125 -6.3125 18.5 C -5.738281 18.789062 -5.164062 18.835938 -4.59375 18.640625 C -3.25 17.304688 -1.90625 15.96875 -0.5625 14.625 C 0.769531 13.289062 1.769531 11.710938 2.4375 9.890625 C 4.632812 4.347656 6.90625 -1.117188 9.25 -6.515625 C 11.59375 -11.921875 13.863281 -17.351562 16.0625 -22.8125 L 18.9375 -29.6875 C 19.414062 -31.3125 19.914062 -32.984375 20.4375 -34.703125 C 20.96875 -36.429688 21.945312 -37.914062 23.375 -39.15625 C 23.570312 -39.34375 23.644531 -39.601562 23.59375 -39.9375 C 23.550781 -40.28125 23.578125 -40.640625 23.671875 -41.015625 Z M 36.859375 3.015625 C 39.628906 3.015625 42.140625 2.222656 44.390625 0.640625 C 46.640625 -0.929688 47.957031 -2.914062 48.34375 -5.3125 C 48.53125 -5.59375 48.476562 -5.898438 48.1875 -6.234375 C 47.90625 -6.566406 47.671875 -6.734375 47.484375 -6.734375 C 47.003906 -6.640625 46.546875 -6.5 46.109375 -6.3125 C 45.679688 -6.125 45.226562 -5.929688 44.75 -5.734375 C 41.789062 -4.203125 38.734375 -3.410156 35.578125 -3.359375 C 32.421875 -3.316406 29.550781 -4.632812 26.96875 -7.3125 C 26.488281 -7.882812 26.082031 -8.71875 25.75 -9.8125 C 25.414062 -10.914062 25.488281 -11.898438 25.96875 -12.765625 C 27.019531 -14.867188 28.59375 -16.421875 30.6875 -17.421875 C 32.789062 -18.429688 35.0625 -18.835938 37.5 -18.640625 C 39.945312 -18.453125 42.078125 -17.640625 43.890625 -16.203125 C 44.367188 -15.828125 44.847656 -15.445312 45.328125 -15.0625 C 45.804688 -14.675781 46.378906 -14.289062 47.046875 -13.90625 C 47.140625 -13.8125 47.351562 -13.785156 47.6875 -13.828125 C 48.019531 -13.878906 48.332031 -13.957031 48.625 -14.0625 C 48.71875 -14.34375 48.835938 -14.675781 48.984375 -15.0625 C 49.128906 -15.445312 49.15625 -15.78125 49.0625 -16.0625 C 48.957031 -16.632812 48.832031 -17.253906 48.6875 -17.921875 C 48.550781 -18.597656 48.289062 -19.125 47.90625 -19.5 C 46.757812 -20.457031 45.585938 -21.367188 44.390625 -22.234375 C 43.191406 -23.097656 42.019531 -23.910156 40.875 -24.671875 C 40.5 -24.859375 40.046875 -24.972656 39.515625 -25.015625 C 38.992188 -25.066406 38.492188 -25.09375 38.015625 -25.09375 C 34.859375 -25.289062 31.722656 -24.863281 28.609375 -23.8125 C 25.503906 -22.757812 23.140625 -21.179688 21.515625 -19.078125 C 19.703125 -16.679688 18.484375 -14.40625 17.859375 -12.25 C 17.234375 -10.101562 17.925781 -7.789062 19.9375 -5.3125 C 22.039062 -2.632812 24.503906 -0.578125 27.328125 0.859375 C 30.148438 2.296875 33.328125 3.015625 36.859375 3.015625 Z M 36.859375 3.015625 "/></g></g><g style="fill:#000000;fill-opacity:1;"><g transform="translate(860.679558, 223.657653)"><path style="stroke:none" d="M 40.3125 -14.203125 C 40.3125 -13.535156 40.3125 -12.910156 40.3125 -12.328125 C 40.3125 -11.753906 40.257812 -11.179688 40.15625 -10.609375 C 39.96875 -8.796875 39.394531 -7.316406 38.4375 -6.171875 C 37.476562 -5.023438 36.1875 -4.5 34.5625 -4.59375 C 32.75 -4.78125 30.863281 -4.945312 28.90625 -5.09375 C 26.945312 -5.238281 25.054688 -5.785156 23.234375 -6.734375 C 20.554688 -8.265625 18.257812 -10.082031 16.34375 -12.1875 C 14.4375 -14.289062 13.289062 -17.019531 12.90625 -20.375 C 12.90625 -21.039062 12.8125 -21.46875 12.625 -21.65625 C 12.238281 -22.132812 11.757812 -22.613281 11.1875 -23.09375 C 10.613281 -23.570312 10.085938 -23.859375 9.609375 -23.953125 C 9.222656 -24.046875 8.71875 -23.925781 8.09375 -23.59375 C 7.476562 -23.257812 7.078125 -22.898438 6.890625 -22.515625 C 6.210938 -21.273438 5.707031 -19.984375 5.375 -18.640625 C 5.039062 -17.304688 4.679688 -15.96875 4.296875 -14.625 C 3.347656 -11.28125 2.5625 -7.882812 1.9375 -4.4375 C 1.3125 -1 0.664062 2.390625 0 5.734375 C -0.1875 6.304688 -0.0390625 6.738281 0.4375 7.03125 C 1.101562 7.414062 1.578125 7.460938 1.859375 7.171875 C 2.535156 6.597656 3.207031 6.023438 3.875 5.453125 C 4.539062 4.878906 5.019531 4.207031 5.3125 3.4375 C 6.363281 1.53125 7.195312 -0.492188 7.8125 -2.640625 C 8.4375 -4.796875 9.082031 -7.40625 9.75 -10.46875 C 10.226562 -9.707031 11.039062 -8.679688 12.1875 -7.390625 C 13.332031 -6.097656 14.335938 -5.164062 15.203125 -4.59375 C 17.398438 -3.0625 19.570312 -1.890625 21.71875 -1.078125 C 23.875 -0.265625 26.484375 0.425781 29.546875 1 C 32.703125 1.570312 35.640625 1.164062 38.359375 -0.21875 C 41.085938 -1.601562 43.21875 -3.585938 44.75 -6.171875 C 46.28125 -8.753906 46.804688 -11.625 46.328125 -14.78125 C 46.234375 -15.351562 46.207031 -15.972656 46.25 -16.640625 C 46.300781 -17.304688 46.234375 -17.925781 46.046875 -18.5 C 45.660156 -20.125 45.273438 -21.796875 44.890625 -23.515625 C 44.515625 -25.242188 43.941406 -26.875 43.171875 -28.40625 C 41.359375 -32.03125 39.015625 -34.894531 36.140625 -37 C 33.273438 -39.101562 29.738281 -40.15625 25.53125 -40.15625 C 20.082031 -40.15625 16.734375 -37.476562 15.484375 -32.125 C 15.203125 -31.644531 15.253906 -31.21875 15.640625 -30.84375 C 16.015625 -30.75 16.367188 -30.722656 16.703125 -30.765625 C 17.046875 -30.816406 17.359375 -30.890625 17.640625 -30.984375 C 17.828125 -30.984375 18.015625 -31.101562 18.203125 -31.34375 C 18.398438 -31.582031 18.546875 -31.75 18.640625 -31.84375 C 26.960938 -35.957031 33.082031 -34.378906 37 -27.109375 C 38.050781 -25.097656 38.910156 -23.015625 39.578125 -20.859375 C 40.253906 -18.710938 40.5 -16.492188 40.3125 -14.203125 Z M 40.3125 -14.203125 "/></g></g><g style="fill:#000000;fill-opacity:1;"><g transform="translate(170.7725, 359.540325)"><path style="stroke:none" d=""/></g></g><g style="fill:#000000;fill-opacity:1;"><g transform="translate(202.329654, 359.540325)"><path style="stroke:none" d="M 40.3125 -64.109375 C 39.632812 -64.878906 38.722656 -65.476562 37.578125 -65.90625 C 36.429688 -66.34375 35.140625 -66.65625 33.703125 -66.84375 C 31.316406 -67.226562 29.070312 -66.84375 26.96875 -65.6875 C 24.863281 -64.539062 22.757812 -62.773438 20.65625 -60.390625 C 12.71875 -48.722656 7.144531 -36.53125 3.9375 -23.8125 C 0.738281 -11.09375 0.523438 2.390625 3.296875 16.640625 C 3.867188 18.648438 4.679688 20.5625 5.734375 22.375 C 6.785156 24.1875 7.9375 25.859375 9.1875 27.390625 C 10.132812 28.441406 11.15625 29.160156 12.25 29.546875 C 13.351562 29.929688 14.578125 29.550781 15.921875 28.40625 C 16.972656 27.539062 17.234375 26.703125 16.703125 25.890625 C 16.179688 25.078125 15.539062 24.191406 14.78125 23.234375 C 12.570312 19.890625 10.941406 16.472656 9.890625 12.984375 C 8.835938 9.492188 8.21875 5.644531 8.03125 1.4375 C 8.03125 -6.21875 9.128906 -13.507812 11.328125 -20.4375 C 13.523438 -27.375 16.015625 -34.285156 18.796875 -41.171875 C 20.222656 -45.378906 21.960938 -49.273438 24.015625 -52.859375 C 26.078125 -56.441406 28.972656 -59.285156 32.703125 -61.390625 C 33.753906 -62.054688 35.019531 -62.507812 36.5 -62.75 C 37.988281 -62.988281 39.257812 -63.441406 40.3125 -64.109375 Z M 40.3125 -64.109375 "/></g></g><g style="fill:#000000;fill-opacity:1;"><g transform="translate(223.987858, 359.540325)"><path style="stroke:none" d="M 35.71875 -24.953125 C 35.332031 -27.734375 34.660156 -30.269531 33.703125 -32.5625 C 32.742188 -34.851562 31.21875 -36.765625 29.125 -38.296875 C 26.539062 -40.210938 23.835938 -41.171875 21.015625 -41.171875 C 18.191406 -41.171875 15.515625 -40.644531 12.984375 -39.59375 C 10.453125 -38.539062 8.394531 -37.222656 6.8125 -35.640625 C 5.238281 -34.066406 4.453125 -32.5625 4.453125 -31.125 C 4.453125 -30.738281 4.5 -30.378906 4.59375 -30.046875 C 4.6875 -29.710938 4.78125 -29.351562 4.875 -28.96875 C 5.257812 -29.070312 5.640625 -29.171875 6.015625 -29.265625 C 6.398438 -29.359375 6.691406 -29.546875 6.890625 -29.828125 C 7.941406 -30.503906 8.894531 -31.25 9.75 -32.0625 C 10.613281 -32.875 11.664062 -33.566406 12.90625 -34.140625 C 14.625 -34.898438 16.296875 -35.1875 17.921875 -35 C 19.554688 -34.8125 21.234375 -34.332031 22.953125 -33.5625 C 24.003906 -33.082031 24.863281 -32.507812 25.53125 -31.84375 C 26.195312 -31.175781 26.722656 -30.21875 27.109375 -28.96875 C 28.066406 -25.4375 28.210938 -21.753906 27.546875 -17.921875 C 26.960938 -14.296875 25.976562 -10.90625 24.59375 -7.75 C 23.207031 -4.59375 21.222656 -1.675781 18.640625 1 C 18.160156 1.289062 18.019531 1.769531 18.21875 2.4375 C 18.125 2.625 18.144531 2.835938 18.28125 3.078125 C 18.425781 3.316406 18.597656 3.484375 18.796875 3.578125 C 20.035156 3.867188 21.15625 3.773438 22.15625 3.296875 C 23.164062 2.816406 24.003906 2.195312 24.671875 1.4375 C 25.722656 0.289062 26.703125 -0.898438 27.609375 -2.140625 C 28.515625 -3.390625 29.304688 -4.6875 29.984375 -6.03125 C 31.703125 -9.082031 33.085938 -12.1875 34.140625 -15.34375 C 35.191406 -18.5 35.71875 -21.703125 35.71875 -24.953125 Z M 16.0625 -20.375 C 15.675781 -21.132812 15.269531 -21.773438 14.84375 -22.296875 C 14.414062 -22.828125 13.914062 -23.140625 13.34375 -23.234375 C 12.476562 -23.523438 11.710938 -23.40625 11.046875 -22.875 C 10.378906 -22.351562 9.945312 -21.660156 9.75 -20.796875 C 9.46875 -19.929688 9.226562 -19.117188 9.03125 -18.359375 C 8.84375 -17.597656 8.601562 -16.832031 8.3125 -16.0625 C 7.257812 -13.863281 6.207031 -11.640625 5.15625 -9.390625 C 4.101562 -7.148438 3.101562 -4.878906 2.15625 -2.578125 C 1.769531 -1.816406 1.191406 -1.097656 0.421875 -0.421875 C -0.335938 0.242188 -0.238281 1.148438 0.71875 2.296875 C 1.476562 1.910156 2.238281 1.523438 3 1.140625 C 3.769531 0.765625 4.441406 0.335938 5.015625 -0.140625 C 6.742188 -1.484375 8.082031 -2.867188 9.03125 -4.296875 C 9.800781 -5.347656 10.519531 -6.472656 11.1875 -7.671875 C 11.851562 -8.867188 12.378906 -9.847656 12.765625 -10.609375 C 13.628906 -12.523438 14.296875 -14.175781 14.765625 -15.5625 C 15.242188 -16.945312 15.675781 -18.550781 16.0625 -20.375 Z M 16.0625 -20.375 "/></g></g><g style="fill:#000000;fill-opacity:1;"><g transform="translate(262.57102, 359.540325)"><path style="stroke:none" d="M 13.203125 -29.984375 C 13.203125 -30.742188 13.203125 -31.382812 13.203125 -31.90625 C 13.203125 -32.4375 13.101562 -32.894531 12.90625 -33.28125 C 12.71875 -34.90625 11.90625 -35.765625 10.46875 -35.859375 C 9.707031 -36.046875 8.96875 -35.898438 8.25 -35.421875 C 7.53125 -34.953125 7.125 -34.285156 7.03125 -33.421875 C 6.363281 -30.359375 5.738281 -27.320312 5.15625 -24.3125 C 4.582031 -21.300781 4.054688 -18.265625 3.578125 -15.203125 C 3.484375 -14.816406 3.578125 -14.382812 3.859375 -13.90625 C 4.148438 -13.4375 4.394531 -13.203125 4.59375 -13.203125 C 5.070312 -13.203125 5.617188 -13.25 6.234375 -13.34375 C 6.859375 -13.4375 7.21875 -13.675781 7.3125 -14.0625 C 8.75 -16.738281 9.992188 -19.390625 11.046875 -22.015625 C 12.097656 -24.648438 12.816406 -27.304688 13.203125 -29.984375 Z M 13.203125 -29.984375 "/></g></g><g style="fill:#000000;fill-opacity:1;"><g transform="translate(276.483904, 359.540325)"><path style="stroke:none" d="M 21.796875 -37.296875 C 22.085938 -38.828125 21.679688 -40.140625 20.578125 -41.234375 C 19.484375 -42.335938 18.265625 -42.9375 16.921875 -43.03125 C 14.816406 -43.03125 13.625 -41.359375 13.34375 -38.015625 C 13.25 -33.804688 12.742188 -29.71875 11.828125 -25.75 C 10.921875 -21.78125 9.65625 -17.832031 8.03125 -13.90625 C 7.070312 -11.226562 5.875 -8.597656 4.4375 -6.015625 C 3.007812 -3.441406 2.390625 -0.578125 2.578125 2.578125 C 2.578125 3.242188 3.75 2.523438 6.09375 0.421875 C 8.4375 -1.671875 10.945312 -5.394531 13.625 -10.75 C 14.863281 -13.144531 16.035156 -15.921875 17.140625 -19.078125 C 18.242188 -22.234375 19.203125 -25.4375 20.015625 -28.6875 C 20.828125 -31.9375 21.421875 -34.804688 21.796875 -37.296875 Z M 21.796875 -37.296875 "/></g></g><g style="fill:#000000;fill-opacity:1;"><g transform="translate(298.859276, 359.540325)"><path style="stroke:none" d="M 24.671875 -60.671875 C 20.367188 -61.816406 16.019531 -61.722656 11.625 -60.390625 C 9.320312 -59.722656 8.125 -58.335938 8.03125 -56.234375 C 7.84375 -55.078125 8.128906 -54.117188 8.890625 -53.359375 C 9.085938 -53.171875 9.519531 -53.097656 10.1875 -53.140625 C 10.851562 -53.191406 11.378906 -53.3125 11.765625 -53.5 C 13.484375 -54.164062 15.488281 -54.617188 17.78125 -54.859375 C 20.082031 -55.097656 22.519531 -54.976562 25.09375 -54.5 C 27.007812 -54.125 28.613281 -53.265625 29.90625 -51.921875 C 31.195312 -50.585938 32.035156 -48.960938 32.421875 -47.046875 C 32.609375 -46.472656 32.703125 -45.875 32.703125 -45.25 C 32.703125 -44.632812 32.609375 -44.179688 32.421875 -43.890625 C 30.890625 -41.503906 29.140625 -39.445312 27.171875 -37.71875 C 25.210938 -36 22.5625 -35.378906 19.21875 -35.859375 C 18.832031 -35.953125 18.425781 -36.046875 18 -36.140625 C 17.570312 -36.242188 17.164062 -36.148438 16.78125 -35.859375 C 16.394531 -35.671875 15.988281 -35.382812 15.5625 -35 C 15.132812 -34.613281 14.875 -34.179688 14.78125 -33.703125 C 14.582031 -32.648438 14.867188 -31.648438 15.640625 -30.703125 C 16.210938 -30.316406 16.804688 -30.050781 17.421875 -29.90625 C 18.046875 -29.757812 18.691406 -29.59375 19.359375 -29.40625 C 22.804688 -28.632812 25.53125 -27.101562 27.53125 -24.8125 C 29.539062 -22.519531 31.265625 -19.890625 32.703125 -16.921875 C 34.234375 -13.960938 34.140625 -11.046875 32.421875 -8.171875 C 30.691406 -5.878906 28.773438 -3.941406 26.671875 -2.359375 C 24.578125 -0.785156 22.09375 0.238281 19.21875 0.71875 C 16.632812 1.195312 14.050781 1.53125 11.46875 1.71875 C 8.894531 1.914062 6.265625 1.820312 3.578125 1.4375 L -0.4375 1 C -0.90625 1.195312 -1.238281 1.582031 -1.4375 2.15625 C -1.53125 2.25 -1.503906 2.460938 -1.359375 2.796875 C -1.210938 3.128906 -1.09375 3.34375 -1 3.4375 C 0.90625 4.78125 2.929688 5.570312 5.078125 5.8125 C 7.234375 6.050781 9.363281 6.265625 11.46875 6.453125 C 15.675781 6.835938 19.644531 6.40625 23.375 5.15625 C 27.101562 3.914062 30.59375 2.148438 33.84375 -0.140625 C 35.945312 -1.578125 37.617188 -3.367188 38.859375 -5.515625 C 40.109375 -7.671875 40.492188 -10.085938 40.015625 -12.765625 C 39.347656 -16.015625 38.460938 -19.144531 37.359375 -22.15625 C 36.265625 -25.164062 34.1875 -27.722656 31.125 -29.828125 C 29.3125 -31.171875 29.3125 -32.460938 31.125 -33.703125 C 34.851562 -35.804688 37.53125 -38.820312 39.15625 -42.75 C 40.207031 -45.800781 40.226562 -48.738281 39.21875 -51.5625 C 38.21875 -54.382812 36.238281 -56.5625 33.28125 -58.09375 C 32.03125 -58.664062 30.640625 -59.164062 29.109375 -59.59375 C 27.585938 -60.03125 26.109375 -60.390625 24.671875 -60.671875 Z M 24.671875 -60.671875 "/></g></g><g style="fill:#000000;fill-opacity:1;"><g transform="translate(344.040296, 359.540325)"><path style="stroke:none" d="M 33.703125 -18.9375 L 33.703125 -19.796875 C 33.609375 -22.285156 32.796875 -24.554688 31.265625 -26.609375 C 29.734375 -28.660156 27.84375 -30.304688 25.59375 -31.546875 C 23.351562 -32.796875 20.988281 -33.5625 18.5 -33.84375 C 16.019531 -34.132812 13.675781 -33.707031 11.46875 -32.5625 C 10.613281 -32.082031 9.78125 -31.554688 8.96875 -30.984375 C 8.15625 -30.410156 7.363281 -29.835938 6.59375 -29.265625 C 3.25 -27.160156 2.148438 -24.050781 3.296875 -19.9375 C 3.296875 -19.269531 3.582031 -18.9375 4.15625 -18.9375 C 4.351562 -18.84375 4.59375 -18.84375 4.875 -18.9375 C 5.164062 -19.03125 5.359375 -19.125 5.453125 -19.21875 C 5.929688 -19.882812 6.359375 -20.671875 6.734375 -21.578125 C 7.117188 -22.492188 7.644531 -23.09375 8.3125 -23.375 C 10.414062 -24.332031 12.59375 -25.097656 14.84375 -25.671875 C 17.09375 -26.242188 19.410156 -26.050781 21.796875 -25.09375 C 23.234375 -24.519531 24.40625 -23.5625 25.3125 -22.21875 C 26.21875 -20.882812 26.4375 -19.453125 25.96875 -17.921875 C 25.582031 -15.347656 25.050781 -12.789062 24.375 -10.25 C 23.707031 -7.71875 22.375 -5.492188 20.375 -3.578125 C 19.601562 -2.910156 18.953125 -2.070312 18.421875 -1.0625 C 17.898438 -0.0625 17.398438 0.960938 16.921875 2.015625 C 16.828125 2.203125 16.828125 2.535156 16.921875 3.015625 C 17.015625 3.492188 17.113281 3.828125 17.21875 4.015625 C 17.5 4.203125 17.898438 4.296875 18.421875 4.296875 C 18.953125 4.296875 19.3125 4.203125 19.5 4.015625 C 21.132812 2.390625 22.8125 0.789062 24.53125 -0.78125 C 26.25 -2.363281 27.726562 -4.113281 28.96875 -6.03125 C 30.21875 -7.9375 31.367188 -9.960938 32.421875 -12.109375 C 33.472656 -14.265625 33.898438 -16.539062 33.703125 -18.9375 Z M 33.703125 -18.9375 "/></g></g><g style="fill:#000000;fill-opacity:1;"><g transform="translate(380.615409, 359.540325)"><path style="stroke:none" d="M 35.71875 -24.953125 C 35.332031 -27.734375 34.660156 -30.269531 33.703125 -32.5625 C 32.742188 -34.851562 31.21875 -36.765625 29.125 -38.296875 C 26.539062 -40.210938 23.835938 -41.171875 21.015625 -41.171875 C 18.191406 -41.171875 15.515625 -40.644531 12.984375 -39.59375 C 10.453125 -38.539062 8.394531 -37.222656 6.8125 -35.640625 C 5.238281 -34.066406 4.453125 -32.5625 4.453125 -31.125 C 4.453125 -30.738281 4.5 -30.378906 4.59375 -30.046875 C 4.6875 -29.710938 4.78125 -29.351562 4.875 -28.96875 C 5.257812 -29.070312 5.640625 -29.171875 6.015625 -29.265625 C 6.398438 -29.359375 6.691406 -29.546875 6.890625 -29.828125 C 7.941406 -30.503906 8.894531 -31.25 9.75 -32.0625 C 10.613281 -32.875 11.664062 -33.566406 12.90625 -34.140625 C 14.625 -34.898438 16.296875 -35.1875 17.921875 -35 C 19.554688 -34.8125 21.234375 -34.332031 22.953125 -33.5625 C 24.003906 -33.082031 24.863281 -32.507812 25.53125 -31.84375 C 26.195312 -31.175781 26.722656 -30.21875 27.109375 -28.96875 C 28.066406 -25.4375 28.210938 -21.753906 27.546875 -17.921875 C 26.960938 -14.296875 25.976562 -10.90625 24.59375 -7.75 C 23.207031 -4.59375 21.222656 -1.675781 18.640625 1 C 18.160156 1.289062 18.019531 1.769531 18.21875 2.4375 C 18.125 2.625 18.144531 2.835938 18.28125 3.078125 C 18.425781 3.316406 18.597656 3.484375 18.796875 3.578125 C 20.035156 3.867188 21.15625 3.773438 22.15625 3.296875 C 23.164062 2.816406 24.003906 2.195312 24.671875 1.4375 C 25.722656 0.289062 26.703125 -0.898438 27.609375 -2.140625 C 28.515625 -3.390625 29.304688 -4.6875 29.984375 -6.03125 C 31.703125 -9.082031 33.085938 -12.1875 34.140625 -15.34375 C 35.191406 -18.5 35.71875 -21.703125 35.71875 -24.953125 Z M 16.0625 -20.375 C 15.675781 -21.132812 15.269531 -21.773438 14.84375 -22.296875 C 14.414062 -22.828125 13.914062 -23.140625 13.34375 -23.234375 C 12.476562 -23.523438 11.710938 -23.40625 11.046875 -22.875 C 10.378906 -22.351562 9.945312 -21.660156 9.75 -20.796875 C 9.46875 -19.929688 9.226562 -19.117188 9.03125 -18.359375 C 8.84375 -17.597656 8.601562 -16.832031 8.3125 -16.0625 C 7.257812 -13.863281 6.207031 -11.640625 5.15625 -9.390625 C 4.101562 -7.148438 3.101562 -4.878906 2.15625 -2.578125 C 1.769531 -1.816406 1.191406 -1.097656 0.421875 -0.421875 C -0.335938 0.242188 -0.238281 1.148438 0.71875 2.296875 C 1.476562 1.910156 2.238281 1.523438 3 1.140625 C 3.769531 0.765625 4.441406 0.335938 5.015625 -0.140625 C 6.742188 -1.484375 8.082031 -2.867188 9.03125 -4.296875 C 9.800781 -5.347656 10.519531 -6.472656 11.1875 -7.671875 C 11.851562 -8.867188 12.378906 -9.847656 12.765625 -10.609375 C 13.628906 -12.523438 14.296875 -14.175781 14.765625 -15.5625 C 15.242188 -16.945312 15.675781 -18.550781 16.0625 -20.375 Z M 16.0625 -20.375 "/></g></g><g style="fill:#000000;fill-opacity:1;"><g transform="translate(419.19857, 359.540325)"><path style="stroke:none" d=""/></g></g><g style="fill:#000000;fill-opacity:1;"><g transform="translate(450.75358, 359.540325)"><path style="stroke:none" d="M 17.921875 -24.390625 C 11.515625 -25.335938 8.601562 -22.945312 9.1875 -17.21875 C 9.46875 -15.78125 9.5625 -14.488281 9.46875 -13.34375 C 6.789062 -6.644531 3.679688 -0.257812 0.140625 5.8125 C -3.390625 11.882812 -7.976562 17.359375 -13.625 22.234375 C -22.132812 29.597656 -31.503906 35.097656 -41.734375 38.734375 C -43.835938 39.398438 -45.988281 39.851562 -48.1875 40.09375 C -50.394531 40.332031 -52.597656 40.59375 -54.796875 40.875 C -55.367188 40.96875 -55.988281 41.015625 -56.65625 41.015625 C -57.320312 41.015625 -57.992188 41.113281 -58.671875 41.3125 C -58.859375 41.40625 -58.613281 41.929688 -57.9375 42.890625 C -57.269531 43.847656 -56.507812 44.515625 -55.65625 44.890625 C -54.601562 45.566406 -53.476562 45.878906 -52.28125 45.828125 C -51.082031 45.773438 -49.863281 45.703125 -48.625 45.609375 C -43.84375 44.847656 -39.203125 43.675781 -34.703125 42.09375 C -30.210938 40.519531 -25.816406 38.679688 -21.515625 36.578125 C -15.972656 33.703125 -11.265625 30.085938 -7.390625 25.734375 C -3.515625 21.390625 0.429688 17.113281 4.453125 12.90625 L 14.203125 -7.03125 C 14.679688 -7.988281 15.109375 -9.015625 15.484375 -10.109375 C 15.867188 -11.210938 16.253906 -12.289062 16.640625 -13.34375 C 17.304688 -14.488281 18.164062 -14.582031 19.21875 -13.625 C 20.9375 -12.1875 22.535156 -10.703125 24.015625 -9.171875 C 25.503906 -7.648438 26.773438 -5.882812 27.828125 -3.875 C 28.015625 -3.488281 28.441406 -3.175781 29.109375 -2.9375 C 29.785156 -2.695312 30.316406 -2.675781 30.703125 -2.875 C 31.078125 -2.96875 31.40625 -3.300781 31.6875 -3.875 C 31.976562 -4.445312 32.125 -4.925781 32.125 -5.3125 C 32.21875 -5.976562 32.144531 -6.617188 31.90625 -7.234375 C 31.675781 -7.859375 31.414062 -8.507812 31.125 -9.1875 C 29.976562 -11.957031 28.328125 -14.320312 26.171875 -16.28125 C 24.023438 -18.238281 22.140625 -20.363281 20.515625 -22.65625 C 20.128906 -23.132812 19.671875 -23.515625 19.140625 -23.796875 C 18.617188 -24.085938 18.210938 -24.285156 17.921875 -24.390625 Z M 17.921875 -24.390625 "/></g></g><g style="fill:#000000;fill-opacity:1;"><g transform="translate(484.316638, 359.540325)"><path style="stroke:none" d="M 13.203125 -29.984375 C 13.203125 -30.742188 13.203125 -31.382812 13.203125 -31.90625 C 13.203125 -32.4375 13.101562 -32.894531 12.90625 -33.28125 C 12.71875 -34.90625 11.90625 -35.765625 10.46875 -35.859375 C 9.707031 -36.046875 8.96875 -35.898438 8.25 -35.421875 C 7.53125 -34.953125 7.125 -34.285156 7.03125 -33.421875 C 6.363281 -30.359375 5.738281 -27.320312 5.15625 -24.3125 C 4.582031 -21.300781 4.054688 -18.265625 3.578125 -15.203125 C 3.484375 -14.816406 3.578125 -14.382812 3.859375 -13.90625 C 4.148438 -13.4375 4.394531 -13.203125 4.59375 -13.203125 C 5.070312 -13.203125 5.617188 -13.25 6.234375 -13.34375 C 6.859375 -13.4375 7.21875 -13.675781 7.3125 -14.0625 C 8.75 -16.738281 9.992188 -19.390625 11.046875 -22.015625 C 12.097656 -24.648438 12.816406 -27.304688 13.203125 -29.984375 Z M 13.203125 -29.984375 "/></g></g><g style="fill:#000000;fill-opacity:1;"><g transform="translate(498.229522, 359.540325)"><path style="stroke:none" d="M 12.90625 -37.4375 C 11.46875 -35.039062 10.554688 -32.476562 10.171875 -29.75 C 9.796875 -27.03125 9.367188 -24.285156 8.890625 -21.515625 C 7.453125 -14.054688 5.203125 -6.976562 2.140625 -0.28125 C -0.910156 6.40625 -4.6875 12.765625 -9.1875 18.796875 C -11.28125 21.472656 -13.710938 23.71875 -16.484375 25.53125 C -19.265625 27.34375 -22.472656 28.539062 -26.109375 29.125 C -29.066406 29.59375 -31.523438 29.179688 -33.484375 27.890625 C -35.453125 26.609375 -37.148438 24.769531 -38.578125 22.375 C -39.347656 23.613281 -39.679688 24.613281 -39.578125 25.375 C -39.484375 26.144531 -39.148438 26.769531 -38.578125 27.25 C -35.710938 30.976562 -32.25 33.269531 -28.1875 34.125 C -24.125 34.988281 -19.890625 34.46875 -15.484375 32.5625 C -10.898438 30.457031 -7.21875 27.585938 -4.4375 23.953125 C -1.664062 20.316406 1.003906 16.492188 3.578125 12.484375 C 8.078125 5.398438 11.160156 -1.914062 12.828125 -9.46875 C 14.503906 -17.019531 15.582031 -24.8125 16.0625 -32.84375 C 16.257812 -33.894531 16.1875 -34.78125 15.84375 -35.5 C 15.507812 -36.21875 14.53125 -36.863281 12.90625 -37.4375 Z M 12.90625 -37.4375 "/></g></g><g style="fill:#000000;fill-opacity:1;"><g transform="translate(517.305965, 359.540325)"><path style="stroke:none" d="M 21.796875 -37.296875 C 22.085938 -38.828125 21.679688 -40.140625 20.578125 -41.234375 C 19.484375 -42.335938 18.265625 -42.9375 16.921875 -43.03125 C 14.816406 -43.03125 13.625 -41.359375 13.34375 -38.015625 C 13.25 -33.804688 12.742188 -29.71875 11.828125 -25.75 C 10.921875 -21.78125 9.65625 -17.832031 8.03125 -13.90625 C 7.070312 -11.226562 5.875 -8.597656 4.4375 -6.015625 C 3.007812 -3.441406 2.390625 -0.578125 2.578125 2.578125 C 2.578125 3.242188 3.75 2.523438 6.09375 0.421875 C 8.4375 -1.671875 10.945312 -5.394531 13.625 -10.75 C 14.863281 -13.144531 16.035156 -15.921875 17.140625 -19.078125 C 18.242188 -22.234375 19.203125 -25.4375 20.015625 -28.6875 C 20.828125 -31.9375 21.421875 -34.804688 21.796875 -37.296875 Z M 21.796875 -37.296875 "/></g></g><g style="fill:#000000;fill-opacity:1;"><g transform="translate(539.681337, 359.540325)"><path style="stroke:none" d="M 31.984375 -30.703125 C 30.359375 -28.878906 28.515625 -27.273438 26.453125 -25.890625 C 24.398438 -24.503906 22.375 -23.046875 20.375 -21.515625 C 19.414062 -20.847656 18.050781 -20.035156 16.28125 -19.078125 C 14.507812 -18.117188 13.097656 -17.546875 12.046875 -17.359375 C 12.140625 -18.410156 12.1875 -19.722656 12.1875 -21.296875 C 12.1875 -22.878906 12.234375 -24.195312 12.328125 -25.25 C 12.617188 -27.15625 13.21875 -29.519531 14.125 -32.34375 C 15.03125 -35.164062 16.148438 -38.128906 17.484375 -41.234375 C 18.828125 -44.347656 20.3125 -47.289062 21.9375 -50.0625 C 23.570312 -52.832031 25.222656 -55.125 26.890625 -56.9375 C 28.566406 -58.757812 30.21875 -59.765625 31.84375 -59.953125 C 34.039062 -60.335938 36.023438 -59.90625 37.796875 -58.65625 C 39.566406 -57.414062 40.738281 -55.554688 41.3125 -53.078125 C 41.976562 -50.398438 41.832031 -47.648438 40.875 -44.828125 C 39.914062 -42.003906 38.597656 -39.375 36.921875 -36.9375 C 35.253906 -34.5 33.609375 -32.421875 31.984375 -30.703125 Z M 24.671875 8.609375 C 25.242188 8.515625 25.789062 8.414062 26.3125 8.3125 C 26.84375 8.21875 27.394531 8.125 27.96875 8.03125 C 32.269531 6.5 36.070312 3.941406 39.375 0.359375 C 42.675781 -3.222656 45.953125 -7.117188 49.203125 -11.328125 C 49.773438 -12.191406 49.894531 -13.21875 49.5625 -14.40625 C 49.226562 -15.601562 48.722656 -16.300781 48.046875 -16.5 C 47.765625 -16.6875 47.40625 -16.632812 46.96875 -16.34375 C 46.539062 -16.0625 46.132812 -15.773438 45.75 -15.484375 C 45.5625 -15.296875 45.394531 -15.007812 45.25 -14.625 C 45.113281 -14.25 44.945312 -13.960938 44.75 -13.765625 C 42.363281 -10.609375 39.734375 -7.8125 36.859375 -5.375 C 33.992188 -2.9375 30.890625 -0.710938 27.546875 1.296875 C 26.390625 1.960938 25.238281 2.414062 24.09375 2.65625 C 22.945312 2.894531 21.847656 2.96875 20.796875 2.875 C 18.410156 2.875 16.691406 1.867188 15.640625 -0.140625 C 14.867188 -1.960938 14.097656 -4.113281 13.328125 -6.59375 C 12.566406 -9.082031 12.332031 -11.09375 12.625 -12.625 C 13.675781 -12.8125 15.347656 -13.332031 17.640625 -14.1875 C 19.929688 -15.050781 21.703125 -15.820312 22.953125 -16.5 C 25.429688 -17.832031 27.84375 -19.476562 30.1875 -21.4375 C 32.53125 -23.40625 34.800781 -25.488281 37 -27.6875 C 39.488281 -30.070312 41.566406 -32.9375 43.234375 -36.28125 C 44.910156 -39.632812 46.226562 -43.078125 47.1875 -46.609375 C 47.757812 -48.523438 48.09375 -50.488281 48.1875 -52.5 C 48.289062 -54.507812 47.671875 -56.421875 46.328125 -58.234375 C 43.078125 -62.921875 39.441406 -65.503906 35.421875 -65.984375 C 31.410156 -66.460938 27.539062 -65.125 23.8125 -61.96875 C 20.082031 -58.8125 16.878906 -54.125 14.203125 -47.90625 C 12.191406 -43.3125 10.394531 -38.625 8.8125 -33.84375 C 7.238281 -29.0625 6.210938 -24.140625 5.734375 -19.078125 C 5.828125 -18.984375 5.847656 -18.863281 5.796875 -18.71875 C 5.753906 -18.570312 5.734375 -18.453125 5.734375 -18.359375 C 5.734375 -16.347656 4.726562 -15.390625 2.71875 -15.484375 C 2.144531 -15.679688 1.71875 -15.734375 1.4375 -15.640625 C 1.34375 -15.640625 1.101562 -15.539062 0.71875 -15.34375 C 0.53125 -14.863281 0.578125 -14.484375 0.859375 -14.203125 C 1.148438 -13.816406 1.507812 -13.457031 1.9375 -13.125 C 2.363281 -12.789062 2.769531 -12.578125 3.15625 -12.484375 C 4.78125 -12.378906 5.851562 -11.773438 6.375 -10.671875 C 6.90625 -9.578125 7.316406 -8.363281 7.609375 -7.03125 C 8.078125 -5.976562 8.40625 -4.851562 8.59375 -3.65625 C 8.789062 -2.457031 9.082031 -1.332031 9.46875 -0.28125 C 10.707031 3.25 12.351562 5.707031 14.40625 7.09375 C 16.46875 8.488281 19.410156 9.039062 23.234375 8.75 C 23.429688 8.75 23.644531 8.722656 23.875 8.671875 C 24.113281 8.628906 24.378906 8.609375 24.671875 8.609375 Z M 24.671875 8.609375 "/></g></g><g style="fill:#000000;fill-opacity:1;"><g transform="translate(592.320837, 359.540325)"><path style="stroke:none" d="M -0.71875 1.4375 C 0.625 2.863281 2.175781 3.335938 3.9375 2.859375 C 5.707031 2.390625 7.117188 1.675781 8.171875 0.71875 C 10.179688 -1 11.757812 -3.171875 12.90625 -5.796875 C 14.050781 -8.429688 14.910156 -11.085938 15.484375 -13.765625 C 16.535156 -20.742188 17.5625 -27.867188 18.5625 -35.140625 C 19.570312 -42.410156 21.414062 -49.25 24.09375 -55.65625 C 26.289062 -61.007812 28.921875 -66.078125 31.984375 -70.859375 C 35.046875 -75.640625 38.875 -79.273438 43.46875 -81.765625 C 44.519531 -82.335938 45.925781 -82.671875 47.6875 -82.765625 C 49.457031 -82.859375 50.914062 -82.09375 52.0625 -80.46875 L 55.359375 -77.171875 C 56.222656 -76.304688 56.796875 -76.28125 57.078125 -77.09375 C 57.367188 -77.90625 57.441406 -79.078125 57.296875 -80.609375 C 57.160156 -82.140625 56.828125 -83.644531 56.296875 -85.125 C 55.773438 -86.613281 55.082031 -87.597656 54.21875 -88.078125 C 53.257812 -88.648438 51.847656 -89.050781 49.984375 -89.28125 C 48.117188 -89.519531 46.660156 -89.453125 45.609375 -89.078125 C 42.648438 -88.117188 39.832031 -86.660156 37.15625 -84.703125 C 34.476562 -82.742188 31.894531 -80.375 29.40625 -77.59375 C 26.15625 -73.863281 23.523438 -70.039062 21.515625 -66.125 C 19.503906 -62.207031 17.925781 -58.046875 16.78125 -53.640625 C 15.25 -47.804688 13.910156 -41.878906 12.765625 -35.859375 C 11.617188 -29.835938 10.519531 -23.859375 9.46875 -17.921875 C 9.082031 -15.828125 8.554688 -13.507812 7.890625 -10.96875 C 7.222656 -8.4375 6.21875 -6.070312 4.875 -3.875 C 3.539062 -1.675781 1.675781 0.09375 -0.71875 1.4375 Z M -0.71875 1.4375 "/></g></g><g style="fill:#000000;fill-opacity:1;"><g transform="translate(612.544723, 359.540325)"><path style="stroke:none" d="M 40.3125 -14.203125 C 40.3125 -13.535156 40.3125 -12.910156 40.3125 -12.328125 C 40.3125 -11.753906 40.257812 -11.179688 40.15625 -10.609375 C 39.96875 -8.796875 39.394531 -7.316406 38.4375 -6.171875 C 37.476562 -5.023438 36.1875 -4.5 34.5625 -4.59375 C 32.75 -4.78125 30.863281 -4.945312 28.90625 -5.09375 C 26.945312 -5.238281 25.054688 -5.785156 23.234375 -6.734375 C 20.554688 -8.265625 18.257812 -10.082031 16.34375 -12.1875 C 14.4375 -14.289062 13.289062 -17.019531 12.90625 -20.375 C 12.90625 -21.039062 12.8125 -21.46875 12.625 -21.65625 C 12.238281 -22.132812 11.757812 -22.613281 11.1875 -23.09375 C 10.613281 -23.570312 10.085938 -23.859375 9.609375 -23.953125 C 9.222656 -24.046875 8.71875 -23.925781 8.09375 -23.59375 C 7.476562 -23.257812 7.078125 -22.898438 6.890625 -22.515625 C 6.210938 -21.273438 5.707031 -19.984375 5.375 -18.640625 C 5.039062 -17.304688 4.679688 -15.96875 4.296875 -14.625 C 3.347656 -11.28125 2.5625 -7.882812 1.9375 -4.4375 C 1.3125 -1 0.664062 2.390625 0 5.734375 C -0.1875 6.304688 -0.0390625 6.738281 0.4375 7.03125 C 1.101562 7.414062 1.578125 7.460938 1.859375 7.171875 C 2.535156 6.597656 3.207031 6.023438 3.875 5.453125 C 4.539062 4.878906 5.019531 4.207031 5.3125 3.4375 C 6.363281 1.53125 7.195312 -0.492188 7.8125 -2.640625 C 8.4375 -4.796875 9.082031 -7.40625 9.75 -10.46875 C 10.226562 -9.707031 11.039062 -8.679688 12.1875 -7.390625 C 13.332031 -6.097656 14.335938 -5.164062 15.203125 -4.59375 C 17.398438 -3.0625 19.570312 -1.890625 21.71875 -1.078125 C 23.875 -0.265625 26.484375 0.425781 29.546875 1 C 32.703125 1.570312 35.640625 1.164062 38.359375 -0.21875 C 41.085938 -1.601562 43.21875 -3.585938 44.75 -6.171875 C 46.28125 -8.753906 46.804688 -11.625 46.328125 -14.78125 C 46.234375 -15.351562 46.207031 -15.972656 46.25 -16.640625 C 46.300781 -17.304688 46.234375 -17.925781 46.046875 -18.5 C 45.660156 -20.125 45.273438 -21.796875 44.890625 -23.515625 C 44.515625 -25.242188 43.941406 -26.875 43.171875 -28.40625 C 41.359375 -32.03125 39.015625 -34.894531 36.140625 -37 C 33.273438 -39.101562 29.738281 -40.15625 25.53125 -40.15625 C 20.082031 -40.15625 16.734375 -37.476562 15.484375 -32.125 C 15.203125 -31.644531 15.253906 -31.21875 15.640625 -30.84375 C 16.015625 -30.75 16.367188 -30.722656 16.703125 -30.765625 C 17.046875 -30.816406 17.359375 -30.890625 17.640625 -30.984375 C 17.828125 -30.984375 18.015625 -31.101562 18.203125 -31.34375 C 18.398438 -31.582031 18.546875 -31.75 18.640625 -31.84375 C 26.960938 -35.957031 33.082031 -34.378906 37 -27.109375 C 38.050781 -25.097656 38.910156 -23.015625 39.578125 -20.859375 C 40.253906 -18.710938 40.5 -16.492188 40.3125 -14.203125 Z M 40.3125 -14.203125 "/></g></g><g style="fill:#000000;fill-opacity:1;"><g transform="translate(660.450941, 359.540325)"><path style="stroke:none" d=""/></g></g><g style="fill:#000000;fill-opacity:1;"><g transform="translate(692.005968, 359.540325)"><path style="stroke:none" d="M 21.796875 -37.296875 C 22.085938 -38.828125 21.679688 -40.140625 20.578125 -41.234375 C 19.484375 -42.335938 18.265625 -42.9375 16.921875 -43.03125 C 14.816406 -43.03125 13.625 -41.359375 13.34375 -38.015625 C 13.25 -33.804688 12.742188 -29.71875 11.828125 -25.75 C 10.921875 -21.78125 9.65625 -17.832031 8.03125 -13.90625 C 7.070312 -11.226562 5.875 -8.597656 4.4375 -6.015625 C 3.007812 -3.441406 2.390625 -0.578125 2.578125 2.578125 C 2.578125 3.242188 3.75 2.523438 6.09375 0.421875 C 8.4375 -1.671875 10.945312 -5.394531 13.625 -10.75 C 14.863281 -13.144531 16.035156 -15.921875 17.140625 -19.078125 C 18.242188 -22.234375 19.203125 -25.4375 20.015625 -28.6875 C 20.828125 -31.9375 21.421875 -34.804688 21.796875 -37.296875 Z M 21.796875 -37.296875 "/></g></g><g style="fill:#000000;fill-opacity:1;"><g transform="translate(714.381304, 359.540325)"><path style="stroke:none" d="M 33.703125 -18.9375 L 33.703125 -19.796875 C 33.609375 -22.285156 32.796875 -24.554688 31.265625 -26.609375 C 29.734375 -28.660156 27.84375 -30.304688 25.59375 -31.546875 C 23.351562 -32.796875 20.988281 -33.5625 18.5 -33.84375 C 16.019531 -34.132812 13.675781 -33.707031 11.46875 -32.5625 C 10.613281 -32.082031 9.78125 -31.554688 8.96875 -30.984375 C 8.15625 -30.410156 7.363281 -29.835938 6.59375 -29.265625 C 3.25 -27.160156 2.148438 -24.050781 3.296875 -19.9375 C 3.296875 -19.269531 3.582031 -18.9375 4.15625 -18.9375 C 4.351562 -18.84375 4.59375 -18.84375 4.875 -18.9375 C 5.164062 -19.03125 5.359375 -19.125 5.453125 -19.21875 C 5.929688 -19.882812 6.359375 -20.671875 6.734375 -21.578125 C 7.117188 -22.492188 7.644531 -23.09375 8.3125 -23.375 C 10.414062 -24.332031 12.59375 -25.097656 14.84375 -25.671875 C 17.09375 -26.242188 19.410156 -26.050781 21.796875 -25.09375 C 23.234375 -24.519531 24.40625 -23.5625 25.3125 -22.21875 C 26.21875 -20.882812 26.4375 -19.453125 25.96875 -17.921875 C 25.582031 -15.347656 25.050781 -12.789062 24.375 -10.25 C 23.707031 -7.71875 22.375 -5.492188 20.375 -3.578125 C 19.601562 -2.910156 18.953125 -2.070312 18.421875 -1.0625 C 17.898438 -0.0625 17.398438 0.960938 16.921875 2.015625 C 16.828125 2.203125 16.828125 2.535156 16.921875 3.015625 C 17.015625 3.492188 17.113281 3.828125 17.21875 4.015625 C 17.5 4.203125 17.898438 4.296875 18.421875 4.296875 C 18.953125 4.296875 19.3125 4.203125 19.5 4.015625 C 21.132812 2.390625 22.8125 0.789062 24.53125 -0.78125 C 26.25 -2.363281 27.726562 -4.113281 28.96875 -6.03125 C 30.21875 -7.9375 31.367188 -9.960938 32.421875 -12.109375 C 33.472656 -14.265625 33.898438 -16.539062 33.703125 -18.9375 Z M 33.703125 -18.9375 "/></g></g><g style="fill:#000000;fill-opacity:1;"><g transform="translate(750.956453, 359.540325)"><path style="stroke:none" d="M 41.734375 -24.234375 C 41.453125 -30.640625 39.707031 -34.988281 36.5 -37.28125 C 33.300781 -39.582031 29.40625 -40.78125 24.8125 -40.875 C 23.570312 -40.875 22.425781 -40.707031 21.375 -40.375 C 20.320312 -40.039062 19.316406 -39.394531 18.359375 -38.4375 C 17.785156 -37.101562 16.734375 -36.148438 15.203125 -35.578125 C 14.054688 -34.898438 13.21875 -34.15625 12.6875 -33.34375 C 12.164062 -32.53125 11.710938 -31.457031 11.328125 -30.125 C 9.222656 -24.476562 7.476562 -18.710938 6.09375 -12.828125 C 4.707031 -6.953125 2.722656 -1.191406 0.140625 4.453125 C 0.046875 4.546875 0.0195312 4.660156 0.0625 4.796875 C 0.113281 4.941406 0.140625 5.113281 0.140625 5.3125 C 0.140625 5.976562 0.378906 6.503906 0.859375 6.890625 C 1.242188 7.265625 1.816406 7.359375 2.578125 7.171875 C 3.722656 6.785156 4.65625 6.160156 5.375 5.296875 C 6.09375 4.441406 6.644531 3.488281 7.03125 2.4375 C 8.175781 -0.71875 9.34375 -3.800781 10.53125 -6.8125 C 11.726562 -9.820312 12.90625 -12.859375 14.0625 -15.921875 C 14.34375 -16.972656 14.722656 -17.925781 15.203125 -18.78125 C 15.679688 -19.644531 16.539062 -20.125 17.78125 -20.21875 C 18.738281 -20.414062 19.3125 -20.847656 19.5 -21.515625 C 19.695312 -22.179688 19.84375 -22.851562 19.9375 -23.53125 C 19.84375 -24.675781 19.796875 -25.796875 19.796875 -26.890625 C 19.796875 -27.992188 19.84375 -29.023438 19.9375 -29.984375 C 20.320312 -31.890625 21.375 -33.222656 23.09375 -33.984375 C 24.8125 -34.753906 26.53125 -34.660156 28.25 -33.703125 C 29.976562 -32.648438 31.414062 -31.453125 32.5625 -30.109375 C 33.707031 -28.773438 34.425781 -27.101562 34.71875 -25.09375 C 34.90625 -23.09375 35.019531 -21.109375 35.0625 -19.140625 C 35.113281 -17.179688 34.804688 -15.25 34.140625 -13.34375 C 33.273438 -11.519531 32.484375 -9.601562 31.765625 -7.59375 C 31.054688 -5.59375 30.363281 -3.632812 29.6875 -1.71875 C 29.78125 -1.53125 29.851562 -1.289062 29.90625 -1 C 29.957031 -0.71875 30.078125 -0.476562 30.265625 -0.28125 C 30.453125 -0.1875 30.710938 -0.09375 31.046875 0 C 31.390625 0.09375 31.65625 0.046875 31.84375 -0.140625 C 32.601562 -0.523438 33.390625 -0.929688 34.203125 -1.359375 C 35.015625 -1.796875 35.613281 -2.347656 36 -3.015625 C 37.914062 -6.171875 39.375 -9.515625 40.375 -13.046875 C 41.382812 -16.585938 41.835938 -20.316406 41.734375 -24.234375 Z M 41.734375 -24.234375 "/></g></g><g style="fill:#000000;fill-opacity:1;"><g transform="translate(794.129424, 359.540325)"><path style="stroke:none" d="M 13.203125 -29.984375 C 13.203125 -30.742188 13.203125 -31.382812 13.203125 -31.90625 C 13.203125 -32.4375 13.101562 -32.894531 12.90625 -33.28125 C 12.71875 -34.90625 11.90625 -35.765625 10.46875 -35.859375 C 9.707031 -36.046875 8.96875 -35.898438 8.25 -35.421875 C 7.53125 -34.953125 7.125 -34.285156 7.03125 -33.421875 C 6.363281 -30.359375 5.738281 -27.320312 5.15625 -24.3125 C 4.582031 -21.300781 4.054688 -18.265625 3.578125 -15.203125 C 3.484375 -14.816406 3.578125 -14.382812 3.859375 -13.90625 C 4.148438 -13.4375 4.394531 -13.203125 4.59375 -13.203125 C 5.070312 -13.203125 5.617188 -13.25 6.234375 -13.34375 C 6.859375 -13.4375 7.21875 -13.675781 7.3125 -14.0625 C 8.75 -16.738281 9.992188 -19.390625 11.046875 -22.015625 C 12.097656 -24.648438 12.816406 -27.304688 13.203125 -29.984375 Z M 13.203125 -29.984375 "/></g></g><g style="fill:#000000;fill-opacity:1;"><g transform="translate(808.042291, 359.540325)"><path style="stroke:none" d="M 40.3125 -14.203125 C 40.3125 -13.535156 40.3125 -12.910156 40.3125 -12.328125 C 40.3125 -11.753906 40.257812 -11.179688 40.15625 -10.609375 C 39.96875 -8.796875 39.394531 -7.316406 38.4375 -6.171875 C 37.476562 -5.023438 36.1875 -4.5 34.5625 -4.59375 C 32.75 -4.78125 30.863281 -4.945312 28.90625 -5.09375 C 26.945312 -5.238281 25.054688 -5.785156 23.234375 -6.734375 C 20.554688 -8.265625 18.257812 -10.082031 16.34375 -12.1875 C 14.4375 -14.289062 13.289062 -17.019531 12.90625 -20.375 C 12.90625 -21.039062 12.8125 -21.46875 12.625 -21.65625 C 12.238281 -22.132812 11.757812 -22.613281 11.1875 -23.09375 C 10.613281 -23.570312 10.085938 -23.859375 9.609375 -23.953125 C 9.222656 -24.046875 8.71875 -23.925781 8.09375 -23.59375 C 7.476562 -23.257812 7.078125 -22.898438 6.890625 -22.515625 C 6.210938 -21.273438 5.707031 -19.984375 5.375 -18.640625 C 5.039062 -17.304688 4.679688 -15.96875 4.296875 -14.625 C 3.347656 -11.28125 2.5625 -7.882812 1.9375 -4.4375 C 1.3125 -1 0.664062 2.390625 0 5.734375 C -0.1875 6.304688 -0.0390625 6.738281 0.4375 7.03125 C 1.101562 7.414062 1.578125 7.460938 1.859375 7.171875 C 2.535156 6.597656 3.207031 6.023438 3.875 5.453125 C 4.539062 4.878906 5.019531 4.207031 5.3125 3.4375 C 6.363281 1.53125 7.195312 -0.492188 7.8125 -2.640625 C 8.4375 -4.796875 9.082031 -7.40625 9.75 -10.46875 C 10.226562 -9.707031 11.039062 -8.679688 12.1875 -7.390625 C 13.332031 -6.097656 14.335938 -5.164062 15.203125 -4.59375 C 17.398438 -3.0625 19.570312 -1.890625 21.71875 -1.078125 C 23.875 -0.265625 26.484375 0.425781 29.546875 1 C 32.703125 1.570312 35.640625 1.164062 38.359375 -0.21875 C 41.085938 -1.601562 43.21875 -3.585938 44.75 -6.171875 C 46.28125 -8.753906 46.804688 -11.625 46.328125 -14.78125 C 46.234375 -15.351562 46.207031 -15.972656 46.25 -16.640625 C 46.300781 -17.304688 46.234375 -17.925781 46.046875 -18.5 C 45.660156 -20.125 45.273438 -21.796875 44.890625 -23.515625 C 44.515625 -25.242188 43.941406 -26.875 43.171875 -28.40625 C 41.359375 -32.03125 39.015625 -34.894531 36.140625 -37 C 33.273438 -39.101562 29.738281 -40.15625 25.53125 -40.15625 C 20.082031 -40.15625 16.734375 -37.476562 15.484375 -32.125 C 15.203125 -31.644531 15.253906 -31.21875 15.640625 -30.84375 C 16.015625 -30.75 16.367188 -30.722656 16.703125 -30.765625 C 17.046875 -30.816406 17.359375 -30.890625 17.640625 -30.984375 C 17.828125 -30.984375 18.015625 -31.101562 18.203125 -31.34375 C 18.398438 -31.582031 18.546875 -31.75 18.640625 -31.84375 C 26.960938 -35.957031 33.082031 -34.378906 37 -27.109375 C 38.050781 -25.097656 38.910156 -23.015625 39.578125 -20.859375 C 40.253906 -18.710938 40.5 -16.492188 40.3125 -14.203125 Z M 40.3125 -14.203125 "/></g></g><g style="fill:#000000;fill-opacity:1;"><g transform="translate(855.94858, 359.540325)"><path style="stroke:none" d="M -14.78125 -68.28125 C -14.101562 -67.707031 -12.972656 -67.320312 -11.390625 -67.125 C -9.816406 -66.9375 -8.503906 -66.648438 -7.453125 -66.265625 C -2.671875 -64.640625 1.148438 -62.65625 4.015625 -60.3125 C 6.878906 -57.96875 9.148438 -55.070312 10.828125 -51.625 C 12.503906 -48.1875 13.820312 -44.03125 14.78125 -39.15625 C 16.6875 -28.0625 16.15625 -17.585938 13.1875 -7.734375 C 10.226562 2.109375 5.976562 11.664062 0.4375 20.9375 C -0.519531 22.46875 -1.5 23.972656 -2.5 25.453125 C -3.507812 26.941406 -4.394531 28.5 -5.15625 30.125 C -6.113281 32.226562 -6.59375 34.332031 -6.59375 36.4375 L -1.71875 31.265625 C 5.445312 23.328125 11.085938 14.648438 15.203125 5.234375 C 19.316406 -4.179688 21.753906 -14.390625 22.515625 -25.390625 C 23.085938 -32.078125 22.726562 -38.476562 21.4375 -44.59375 C 20.144531 -50.71875 17.445312 -56.554688 13.34375 -62.109375 C 11.425781 -64.691406 9.535156 -66.578125 7.671875 -67.765625 C 5.804688 -68.960938 3.773438 -69.753906 1.578125 -70.140625 C -0.617188 -70.523438 -3.296875 -70.71875 -6.453125 -70.71875 C -7.691406 -70.71875 -9.148438 -70.597656 -10.828125 -70.359375 C -12.503906 -70.117188 -13.820312 -69.425781 -14.78125 -68.28125 Z M -14.78125 -68.28125 "/></g></g></g></svg>