<svg xmlns="http://www.w3.org/2000/svg" xmlns:xlink="http://www.w3.org/1999/xlink" width="1366" zoomAndPan="magnify" viewBox="0 0 1024.5 576" height="768" preserveAspectRatio="xMidYMid meet" version="1.2"><defs/><g id="61884ae6ec"><g style="fill:#000000;fill-opacity:1;"><g transform="translate(394.157471, 254.991214)"><path style="stroke:none" d="M 18.703125 -25.4375 C 16.628906 -28.820312 16.109375 -31.71875 17.140625 -34.125 C 18.179688 -36.53125 19.851562 -38.773438 22.15625 -40.859375 C 22.375 -41.191406 22.644531 -41.46875 22.96875 -41.6875 C 23.300781 -41.90625 23.578125 -42.175781 23.796875 -42.5 C 26.421875 -45.34375 29.15625 -48.128906 32 -50.859375 C 34.84375 -53.597656 37.628906 -56.445312 40.359375 -59.40625 C 43.429688 -62.90625 44.5 -66.078125 43.5625 -68.921875 C 42.632812 -71.765625 40.253906 -73.894531 36.421875 -75.3125 C 35.003906 -75.863281 32.816406 -76.03125 29.859375 -75.8125 C 26.910156 -75.59375 23.765625 -75.070312 20.421875 -74.25 C 17.085938 -73.425781 14 -72.382812 11.15625 -71.125 C 8.3125 -69.875 6.289062 -68.425781 5.09375 -66.78125 C 4.21875 -65.6875 3.613281 -64.457031 3.28125 -63.09375 C 2.957031 -61.726562 3.832031 -60.5 5.90625 -59.40625 C 7.875 -62.6875 10.253906 -65.007812 13.046875 -66.375 C 15.835938 -67.738281 18.84375 -68.640625 22.0625 -69.078125 C 25.289062 -69.515625 28.492188 -69.953125 31.671875 -70.390625 C 32.765625 -70.609375 33.859375 -70.5 34.953125 -70.0625 C 36.046875 -69.625 36.703125 -68.640625 36.921875 -67.109375 C 37.140625 -66.234375 37 -65.441406 36.5 -64.734375 C 36.007812 -64.023438 35.4375 -63.394531 34.78125 -62.84375 C 30.738281 -58.800781 26.582031 -54.835938 22.3125 -50.953125 C 18.050781 -47.066406 14.222656 -42.828125 10.828125 -38.234375 C 9.734375 -36.703125 8.992188 -35.222656 8.609375 -33.796875 C 8.234375 -32.378906 8.425781 -30.90625 9.1875 -29.375 C 10.832031 -25.65625 14.003906 -24.34375 18.703125 -25.4375 Z M 11.984375 -12.796875 C 10.992188 -12.472656 10.144531 -11.597656 9.4375 -10.171875 C 8.726562 -8.753906 8.484375 -7.113281 8.703125 -5.25 C 8.703125 -3.0625 9.300781 -1.3125 10.5 0 C 11.707031 1.3125 13.515625 1.859375 15.921875 1.640625 C 18.429688 1.203125 20.753906 0.628906 22.890625 -0.078125 C 25.023438 -0.796875 26.3125 -2.738281 26.75 -5.90625 C 26.851562 -6.238281 26.332031 -6.785156 25.1875 -7.546875 C 24.039062 -8.316406 22.617188 -9.082031 20.921875 -9.84375 C 19.222656 -10.613281 17.550781 -11.296875 15.90625 -11.890625 C 14.269531 -12.492188 12.960938 -12.796875 11.984375 -12.796875 Z M 15.59375 -7.21875 C 16.25 -7.21875 17.285156 -6.890625 18.703125 -6.234375 C 20.128906 -5.578125 20.734375 -5.140625 20.515625 -4.921875 C 20.398438 -3.828125 19.957031 -3.171875 19.1875 -2.953125 C 18.425781 -2.734375 17.664062 -2.515625 16.90625 -2.296875 C 16.132812 -2.191406 15.554688 -2.359375 15.171875 -2.796875 C 14.796875 -3.234375 14.609375 -3.832031 14.609375 -4.59375 C 14.492188 -5.144531 14.546875 -5.664062 14.765625 -6.15625 C 14.984375 -6.644531 15.257812 -7 15.59375 -7.21875 Z M 15.59375 -7.21875 "/></g></g><g style="fill:#000000;fill-opacity:1;"><g transform="translate(439.610845, 254.991214)"><path style="stroke:none" d="M -0.828125 1.640625 C 0.710938 3.285156 2.492188 3.832031 4.515625 3.28125 C 6.535156 2.738281 8.148438 1.921875 9.359375 0.828125 C 11.648438 -1.148438 13.453125 -3.640625 14.765625 -6.640625 C 16.078125 -9.648438 17.0625 -12.6875 17.71875 -15.75 C 18.925781 -23.738281 20.101562 -31.890625 21.25 -40.203125 C 22.394531 -48.515625 24.5 -56.335938 27.5625 -63.671875 C 30.082031 -69.796875 33.09375 -75.59375 36.59375 -81.0625 C 40.09375 -86.53125 44.46875 -90.6875 49.71875 -93.53125 C 50.925781 -94.1875 52.539062 -94.566406 54.5625 -94.671875 C 56.582031 -94.785156 58.25 -93.914062 59.5625 -92.0625 L 63.34375 -88.28125 C 64.320312 -87.300781 64.972656 -87.273438 65.296875 -88.203125 C 65.628906 -89.128906 65.710938 -90.46875 65.546875 -92.21875 C 65.390625 -93.96875 65.007812 -95.691406 64.40625 -97.390625 C 63.800781 -99.085938 63.007812 -100.207031 62.03125 -100.75 C 60.9375 -101.40625 59.320312 -101.867188 57.1875 -102.140625 C 55.050781 -102.421875 53.382812 -102.34375 52.1875 -101.90625 C 48.789062 -100.8125 45.5625 -99.140625 42.5 -96.890625 C 39.4375 -94.648438 36.484375 -91.945312 33.640625 -88.78125 C 29.921875 -84.507812 26.910156 -80.128906 24.609375 -75.640625 C 22.316406 -71.160156 20.515625 -66.40625 19.203125 -61.375 C 17.453125 -54.695312 15.921875 -47.910156 14.609375 -41.015625 C 13.296875 -34.128906 12.035156 -27.296875 10.828125 -20.515625 C 10.390625 -18.109375 9.785156 -15.453125 9.015625 -12.546875 C 8.253906 -9.648438 7.109375 -6.941406 5.578125 -4.421875 C 4.046875 -1.910156 1.910156 0.109375 -0.828125 1.640625 Z M -0.828125 1.640625 "/></g></g><g style="fill:#000000;fill-opacity:1;"><g transform="translate(462.747755, 254.991214)"><path style="stroke:none" d="M 15.09375 -34.296875 C 15.09375 -35.171875 15.09375 -35.90625 15.09375 -36.5 C 15.09375 -37.101562 14.984375 -37.625 14.765625 -38.0625 C 14.546875 -39.925781 13.617188 -40.910156 11.984375 -41.015625 C 11.109375 -41.242188 10.257812 -41.082031 9.4375 -40.53125 C 8.613281 -39.976562 8.148438 -39.210938 8.046875 -38.234375 C 7.273438 -34.734375 6.5625 -31.257812 5.90625 -27.8125 C 5.25 -24.363281 4.648438 -20.890625 4.109375 -17.390625 C 3.992188 -16.953125 4.097656 -16.457031 4.421875 -15.90625 C 4.753906 -15.363281 5.03125 -15.09375 5.25 -15.09375 C 5.800781 -15.09375 6.429688 -15.144531 7.140625 -15.25 C 7.847656 -15.363281 8.257812 -15.640625 8.375 -16.078125 C 10.007812 -19.140625 11.425781 -22.175781 12.625 -25.1875 C 13.832031 -28.195312 14.65625 -31.234375 15.09375 -34.296875 Z M 15.09375 -34.296875 "/></g></g><g style="fill:#000000;fill-opacity:1;"><g transform="translate(478.66464, 254.991214)"><path style="stroke:none" d="M 47.75 -27.734375 C 47.425781 -35.054688 45.429688 -40.03125 41.765625 -42.65625 C 38.097656 -45.289062 33.640625 -46.660156 28.390625 -46.765625 C 26.960938 -46.765625 25.644531 -46.570312 24.4375 -46.1875 C 23.238281 -45.8125 22.09375 -45.078125 21 -43.984375 C 20.34375 -42.453125 19.140625 -41.351562 17.390625 -40.6875 C 16.078125 -39.925781 15.117188 -39.078125 14.515625 -38.140625 C 13.921875 -37.210938 13.40625 -35.984375 12.96875 -34.453125 C 10.5625 -28.003906 8.5625 -21.414062 6.96875 -14.6875 C 5.382812 -7.957031 3.117188 -1.363281 0.171875 5.09375 C 0.0546875 5.195312 0.0234375 5.332031 0.078125 5.5 C 0.140625 5.664062 0.171875 5.859375 0.171875 6.078125 C 0.171875 6.835938 0.441406 7.4375 0.984375 7.875 C 1.421875 8.3125 2.078125 8.421875 2.953125 8.203125 C 4.265625 7.765625 5.332031 7.050781 6.15625 6.0625 C 6.976562 5.082031 7.609375 3.992188 8.046875 2.796875 C 9.359375 -0.816406 10.695312 -4.347656 12.0625 -7.796875 C 13.425781 -11.242188 14.765625 -14.71875 16.078125 -18.21875 C 16.410156 -19.414062 16.847656 -20.503906 17.390625 -21.484375 C 17.941406 -22.472656 18.925781 -23.023438 20.34375 -23.140625 C 21.4375 -23.359375 22.09375 -23.847656 22.3125 -24.609375 C 22.53125 -25.378906 22.695312 -26.144531 22.8125 -26.90625 C 22.695312 -28.21875 22.640625 -29.503906 22.640625 -30.765625 C 22.640625 -32.023438 22.695312 -33.203125 22.8125 -34.296875 C 23.25 -36.484375 24.453125 -38.015625 26.421875 -38.890625 C 28.390625 -39.765625 30.359375 -39.65625 32.328125 -38.5625 C 34.296875 -37.351562 35.9375 -35.984375 37.25 -34.453125 C 38.5625 -32.921875 39.378906 -31.007812 39.703125 -28.71875 C 39.921875 -26.414062 40.054688 -24.144531 40.109375 -21.90625 C 40.171875 -19.664062 39.816406 -17.453125 39.046875 -15.265625 C 38.066406 -13.179688 37.164062 -10.988281 36.34375 -8.6875 C 35.519531 -6.394531 34.726562 -4.15625 33.96875 -1.96875 C 34.070312 -1.75 34.148438 -1.472656 34.203125 -1.140625 C 34.265625 -0.816406 34.40625 -0.546875 34.625 -0.328125 C 34.84375 -0.222656 35.140625 -0.113281 35.515625 0 C 35.898438 0.113281 36.203125 0.0546875 36.421875 -0.171875 C 37.296875 -0.609375 38.195312 -1.070312 39.125 -1.5625 C 40.0625 -2.050781 40.75 -2.679688 41.1875 -3.453125 C 43.375 -7.054688 45.039062 -10.878906 46.1875 -14.921875 C 47.34375 -18.972656 47.863281 -23.242188 47.75 -27.734375 Z M 47.75 -27.734375 "/></g></g><g style="fill:#000000;fill-opacity:1;"><g transform="translate(528.056204, 254.991214)"><path style="stroke:none" d="M 20.515625 -27.890625 C 13.179688 -28.984375 9.84375 -26.25 10.5 -19.6875 C 10.832031 -18.050781 10.941406 -16.578125 10.828125 -15.265625 C 7.765625 -7.609375 4.207031 -0.304688 0.15625 6.640625 C -3.882812 13.585938 -9.132812 19.851562 -15.59375 25.4375 C -25.320312 33.851562 -36.039062 40.144531 -47.75 44.3125 C -50.15625 45.070312 -52.613281 45.585938 -55.125 45.859375 C -57.644531 46.140625 -60.164062 46.441406 -62.6875 46.765625 C -63.34375 46.878906 -64.050781 46.9375 -64.8125 46.9375 C -65.582031 46.9375 -66.347656 47.046875 -67.109375 47.265625 C -67.328125 47.367188 -67.050781 47.96875 -66.28125 49.0625 C -65.519531 50.15625 -64.648438 50.921875 -63.671875 51.359375 C -62.460938 52.128906 -61.175781 52.484375 -59.8125 52.421875 C -58.445312 52.367188 -57.050781 52.289062 -55.625 52.1875 C -50.15625 51.3125 -44.847656 49.96875 -39.703125 48.15625 C -34.566406 46.351562 -29.535156 44.25 -24.609375 41.84375 C -18.265625 38.5625 -12.878906 34.429688 -8.453125 29.453125 C -4.023438 24.472656 0.488281 19.578125 5.09375 14.765625 L 16.25 -8.046875 C 16.789062 -9.140625 17.28125 -10.3125 17.71875 -11.5625 C 18.15625 -12.820312 18.59375 -14.054688 19.03125 -15.265625 C 19.800781 -16.578125 20.785156 -16.6875 21.984375 -15.59375 C 23.953125 -13.945312 25.785156 -12.25 27.484375 -10.5 C 29.179688 -8.75 30.628906 -6.726562 31.828125 -4.4375 C 32.046875 -4 32.535156 -3.640625 33.296875 -3.359375 C 34.066406 -3.085938 34.671875 -3.0625 35.109375 -3.28125 C 35.546875 -3.394531 35.925781 -3.78125 36.25 -4.4375 C 36.582031 -5.09375 36.75 -5.640625 36.75 -6.078125 C 36.863281 -6.835938 36.78125 -7.570312 36.5 -8.28125 C 36.226562 -9 35.929688 -9.738281 35.609375 -10.5 C 34.296875 -13.675781 32.40625 -16.382812 29.9375 -18.625 C 27.476562 -20.863281 25.320312 -23.296875 23.46875 -25.921875 C 23.03125 -26.472656 22.507812 -26.910156 21.90625 -27.234375 C 21.300781 -27.566406 20.835938 -27.785156 20.515625 -27.890625 Z M 20.515625 -27.890625 "/></g><g transform="translate(566.453629, 254.991214)"><path style="stroke:none" d="M 14.765625 -42.828125 C 13.128906 -40.085938 12.09375 -37.160156 11.65625 -34.046875 C 11.21875 -30.929688 10.722656 -27.785156 10.171875 -24.609375 C 8.535156 -16.078125 5.960938 -7.984375 2.453125 -0.328125 C -1.046875 7.328125 -5.363281 14.601562 -10.5 21.5 C -12.90625 24.5625 -15.691406 27.128906 -18.859375 29.203125 C -22.035156 31.285156 -25.703125 32.65625 -29.859375 33.3125 C -33.253906 33.851562 -36.070312 33.382812 -38.3125 31.90625 C -40.5625 30.4375 -42.503906 28.332031 -44.140625 25.59375 C -45.015625 27.019531 -45.394531 28.171875 -45.28125 29.046875 C -45.175781 29.921875 -44.796875 30.628906 -44.140625 31.171875 C -40.859375 35.441406 -36.890625 38.066406 -32.234375 39.046875 C -27.585938 40.035156 -22.75 39.4375 -17.71875 37.25 C -12.46875 34.84375 -8.253906 31.5625 -5.078125 27.40625 C -1.910156 23.25 1.148438 18.875 4.109375 14.28125 C 9.242188 6.1875 12.769531 -2.179688 14.6875 -10.828125 C 16.601562 -19.472656 17.832031 -28.390625 18.375 -37.578125 C 18.59375 -38.773438 18.507812 -39.785156 18.125 -40.609375 C 17.75 -41.429688 16.628906 -42.171875 14.765625 -42.828125 Z M 14.765625 -42.828125 "/></g></g><g style="fill:#000000;fill-opacity:1;"><g transform="translate(588.277814, 254.991214)"><path style="stroke:none" d="M 36.59375 -35.109375 C 34.726562 -33.035156 32.617188 -31.203125 30.265625 -29.609375 C 27.921875 -28.023438 25.597656 -26.359375 23.296875 -24.609375 C 22.203125 -23.847656 20.644531 -22.921875 18.625 -21.828125 C 16.601562 -20.734375 14.988281 -20.078125 13.78125 -19.859375 C 13.894531 -21.054688 13.953125 -22.554688 13.953125 -24.359375 C 13.953125 -26.171875 14.003906 -27.675781 14.109375 -28.875 C 14.441406 -31.0625 15.125 -33.769531 16.15625 -37 C 17.195312 -40.226562 18.484375 -43.617188 20.015625 -47.171875 C 21.546875 -50.734375 23.238281 -54.097656 25.09375 -57.265625 C 26.957031 -60.441406 28.847656 -63.066406 30.765625 -65.140625 C 32.679688 -67.222656 34.566406 -68.375 36.421875 -68.59375 C 38.941406 -69.03125 41.210938 -68.535156 43.234375 -67.109375 C 45.265625 -65.691406 46.609375 -63.5625 47.265625 -60.71875 C 48.023438 -57.65625 47.859375 -54.507812 46.765625 -51.28125 C 45.671875 -48.050781 44.164062 -45.039062 42.25 -42.25 C 40.332031 -39.457031 38.445312 -37.078125 36.59375 -35.109375 Z M 28.21875 9.84375 C 28.875 9.738281 29.503906 9.628906 30.109375 9.515625 C 30.710938 9.410156 31.34375 9.300781 32 9.1875 C 36.914062 7.4375 41.257812 4.507812 45.03125 0.40625 C 48.8125 -3.695312 52.5625 -8.15625 56.28125 -12.96875 C 56.9375 -13.945312 57.070312 -15.117188 56.6875 -16.484375 C 56.3125 -17.859375 55.738281 -18.65625 54.96875 -18.875 C 54.644531 -19.09375 54.234375 -19.035156 53.734375 -18.703125 C 53.242188 -18.378906 52.78125 -18.050781 52.34375 -17.71875 C 52.125 -17.5 51.929688 -17.171875 51.765625 -16.734375 C 51.609375 -16.296875 51.421875 -15.96875 51.203125 -15.75 C 48.460938 -12.144531 45.453125 -8.945312 42.171875 -6.15625 C 38.890625 -3.363281 35.332031 -0.816406 31.5 1.484375 C 30.1875 2.242188 28.875 2.757812 27.5625 3.03125 C 26.25 3.3125 24.992188 3.394531 23.796875 3.28125 C 21.054688 3.28125 19.085938 2.128906 17.890625 -0.171875 C 17.015625 -2.242188 16.140625 -4.703125 15.265625 -7.546875 C 14.390625 -10.390625 14.113281 -12.6875 14.4375 -14.4375 C 15.644531 -14.65625 17.5625 -15.253906 20.1875 -16.234375 C 22.8125 -17.222656 24.832031 -18.101562 26.25 -18.875 C 29.09375 -20.40625 31.851562 -22.289062 34.53125 -24.53125 C 37.21875 -26.769531 39.820312 -29.148438 42.34375 -31.671875 C 45.1875 -34.398438 47.5625 -37.679688 49.46875 -41.515625 C 51.382812 -45.347656 52.890625 -49.285156 53.984375 -53.328125 C 54.640625 -55.515625 55.019531 -57.753906 55.125 -60.046875 C 55.238281 -62.347656 54.53125 -64.539062 53 -66.625 C 49.28125 -71.976562 45.125 -74.925781 40.53125 -75.46875 C 35.9375 -76.019531 31.503906 -74.488281 27.234375 -70.875 C 22.972656 -67.269531 19.3125 -61.914062 16.25 -54.8125 C 13.945312 -49.5625 11.894531 -44.195312 10.09375 -38.71875 C 8.289062 -33.25 7.113281 -27.617188 6.5625 -21.828125 C 6.675781 -21.710938 6.703125 -21.570312 6.640625 -21.40625 C 6.585938 -21.25 6.5625 -21.113281 6.5625 -21 C 6.5625 -18.707031 5.414062 -17.613281 3.125 -17.71875 C 2.46875 -17.9375 1.972656 -17.992188 1.640625 -17.890625 C 1.535156 -17.890625 1.265625 -17.78125 0.828125 -17.5625 C 0.609375 -17.007812 0.660156 -16.570312 0.984375 -16.25 C 1.316406 -15.8125 1.726562 -15.398438 2.21875 -15.015625 C 2.707031 -14.628906 3.171875 -14.382812 3.609375 -14.28125 C 5.472656 -14.164062 6.703125 -13.476562 7.296875 -12.21875 C 7.898438 -10.96875 8.367188 -9.578125 8.703125 -8.046875 C 9.242188 -6.835938 9.625 -5.550781 9.84375 -4.1875 C 10.0625 -2.820312 10.390625 -1.535156 10.828125 -0.328125 C 12.253906 3.722656 14.140625 6.539062 16.484375 8.125 C 18.835938 9.707031 22.203125 10.335938 26.578125 10.015625 C 26.796875 10.015625 27.039062 9.984375 27.3125 9.921875 C 27.59375 9.867188 27.894531 9.84375 28.21875 9.84375 Z M 28.21875 9.84375 "/></g></g></g></svg>