<svg xmlns="http://www.w3.org/2000/svg" xmlns:xlink="http://www.w3.org/1999/xlink" width="1366" zoomAndPan="magnify" viewBox="0 0 1024.5 576" height="768" preserveAspectRatio="xMidYMid meet" version="1.2"><defs><clipPath id="5696997c9c"><path d="M 0 0.140625 L 91.84375 0.140625 L 91.84375 575.859375 L 0 575.859375 Z M 0 0.140625 "/></clipPath><clipPath id="91659c98ba"><path d="M 46 79 L 75 79 L 75 107.566406 L 46 107.566406 Z M 46 79 "/></clipPath><clipPath id="7eff752c15"><path d="M 0 79 L 90.707031 79 L 90.707031 81 L 0 81 Z M 0 79 "/></clipPath><clipPath id="2b8e870946"><path d="M 46 79 L 75 79 L 75 107.566406 L 46 107.566406 Z M 46 79 "/></clipPath><clipPath id="6f2f988dbf"><path d="M 13 14.609375 L 23 14.609375 L 23 24 L 13 24 Z M 13 14.609375 "/></clipPath></defs><g id="3910bdda45"><g clip-rule="nonzero" clip-path="url(#5696997c9c)"><path style=" stroke:none;fill-rule:nonzero;fill:#d19800;fill-opacity:1;" d="M 0 0.140625 L 91.84375 0.140625 L 91.84375 575.96875 L 0 575.96875 Z M 0 0.140625 "/></g><g style="fill:#000000;fill-opacity:1;"><g transform="translate(76.119814, 495.200102)"><path style="stroke:none" d="M -61.761719 -5.328125 L -61.761719 -39.089844 L 1.738281 -39.089844 L 1.738281 -23.230469 L -49.835938 -23.230469 L -49.835938 -24.972656 L -48.097656 -24.972656 L -48.097656 -3.589844 L -61.761719 -3.589844 Z M -58.285156 -5.328125 L -60.023438 -5.328125 L -60.023438 -7.066406 L -49.835938 -7.066406 L -49.835938 -5.328125 L -51.574219 -5.328125 L -51.574219 -26.710938 L 0 -26.710938 L 0 -24.972656 L -1.738281 -24.972656 L -1.738281 -37.351562 L 0 -37.351562 L 0 -35.613281 L -60.023438 -35.613281 L -60.023438 -37.351562 L -58.285156 -37.351562 Z M 0 -3.695312 L -42.382812 -3.695312 L -42.382812 -19.605469 L 1.738281 -19.605469 L 1.738281 -3.695312 Z M 0 -7.171875 L 0 -5.433594 L -1.738281 -5.433594 L -1.738281 -17.867188 L 0 -17.867188 L 0 -16.128906 L -40.644531 -16.128906 L -40.644531 -17.867188 L -38.902344 -17.867188 L -38.902344 -5.433594 L -40.644531 -5.433594 L -40.644531 -7.171875 Z M 0 -7.171875 "/></g></g><g style="fill:#000000;fill-opacity:1;"><g transform="translate(76.119814, 452.468052)"><path style="stroke:none" d="M -61.761719 -1.621094 L -61.761719 -14.417969 C -61.761719 -17.996094 -60.972656 -20.878906 -59.394531 -23.0625 C -57.792969 -25.28125 -55.269531 -26.84375 -51.820312 -27.75 C -48.628906 -28.589844 -44.398438 -29.007812 -39.128906 -29.007812 L 1.738281 -29.007812 L 1.738281 -13.097656 L -38.917969 -13.097656 C -41.769531 -13.097656 -43.90625 -12.914062 -45.332031 -12.550781 C -46.449219 -12.265625 -47.171875 -11.859375 -47.5 -11.332031 C -47.898438 -10.691406 -48.097656 -9.734375 -48.097656 -8.464844 L -48.097656 0.121094 L -61.761719 0.121094 Z M -58.285156 -1.621094 L -60.023438 -1.621094 L -60.023438 -3.359375 L -49.835938 -3.359375 L -49.835938 -1.621094 L -51.574219 -1.621094 L -51.574219 -8.464844 C -51.574219 -10.394531 -51.199219 -11.964844 -50.449219 -13.167969 C -49.628906 -14.488281 -48.210938 -15.402344 -46.191406 -15.921875 C -44.484375 -16.355469 -42.058594 -16.574219 -38.917969 -16.574219 L 0 -16.574219 L 0 -14.835938 L -1.738281 -14.835938 L -1.738281 -27.269531 L 0 -27.269531 L 0 -25.53125 L -39.128906 -25.53125 C -44.097656 -25.53125 -48.035156 -25.148438 -50.9375 -24.386719 C -53.582031 -23.691406 -55.460938 -22.570312 -56.578125 -21.027344 C -57.714844 -19.449219 -58.285156 -17.246094 -58.285156 -14.417969 Z M -58.285156 -1.621094 "/></g></g><g style="fill:#000000;fill-opacity:1;"><g transform="translate(76.119814, 420.392895)"><path style="stroke:none" d="M -30.082031 -2.730469 C -32.722656 -4.28125 -35.105469 -5.316406 -37.238281 -5.832031 C -39.386719 -6.355469 -41.433594 -6.589844 -43.367188 -6.542969 C -45.398438 -6.492188 -47.480469 -6.332031 -49.617188 -6.058594 L -49.835938 -7.785156 L -48.097656 -7.785156 L -48.097656 0.484375 L -61.761719 0.484375 L -61.761719 -20.488281 L -60.433594 -20.808594 C -53.578125 -22.46875 -47.042969 -22.738281 -40.828125 -21.613281 C -34.589844 -20.488281 -28.921875 -18.03125 -23.828125 -14.246094 L -22.65625 -13.375 L -28.484375 -1.792969 Z M -28.320312 -5.730469 L -29.203125 -4.230469 L -30.753906 -5.011719 L -26.417969 -13.632812 L -24.867188 -12.851562 L -25.902344 -11.457031 C -30.5625 -14.914062 -35.742188 -17.160156 -41.449219 -18.191406 C -47.179688 -19.230469 -53.234375 -18.972656 -59.613281 -17.429688 L -60.023438 -19.121094 L -58.285156 -19.121094 L -58.285156 -1.253906 L -60.023438 -1.253906 L -60.023438 -2.992188 L -49.835938 -2.992188 L -49.835938 -1.253906 L -51.574219 -1.253906 L -51.574219 -9.316406 L -50.054688 -9.507812 C -47.804688 -9.792969 -45.601562 -9.964844 -43.453125 -10.019531 C -41.210938 -10.074219 -38.867188 -9.804688 -36.417969 -9.210938 C -33.953125 -8.613281 -31.253906 -7.453125 -28.320312 -5.730469 Z M -28.320312 -5.730469 "/></g></g><g style="fill:#000000;fill-opacity:1;"><g transform="translate(76.119814, 397.041762)"><path style="stroke:none" d="M -10.238281 -33.34375 L 1.738281 -33.34375 L 1.738281 -0.296875 L -11.976562 -0.296875 L -11.976562 -13.113281 L -10.238281 -13.113281 L -11.160156 -11.636719 L -11.996094 -12.160156 C -12.394531 -12.410156 -13.222656 -12.683594 -14.484375 -12.988281 C -15.796875 -13.304688 -17.742188 -13.464844 -20.320312 -13.464844 L -49.835938 -13.464844 L -49.835938 -15.203125 L -48.097656 -15.203125 L -48.097656 -0.351562 L -61.761719 -0.351562 L -61.761719 -29.375 L -24.082031 -29.375 C -20.785156 -29.375 -18.058594 -29.132812 -15.894531 -28.652344 C -13.738281 -28.175781 -12.109375 -27.683594 -11.007812 -27.179688 L -9.515625 -26.5 L -10.238281 -24.917969 L -11.976562 -24.917969 L -11.976562 -33.34375 Z M -10.238281 -29.867188 L -10.238281 -31.605469 L -8.5 -31.605469 L -8.5 -22.214844 L -12.449219 -24.015625 C -13.332031 -24.417969 -14.730469 -24.832031 -16.648438 -25.257812 C -18.5625 -25.683594 -21.039062 -25.894531 -24.082031 -25.894531 L -60.023438 -25.894531 L -60.023438 -27.636719 L -58.285156 -27.636719 L -58.285156 -2.089844 L -60.023438 -2.089844 L -60.023438 -3.828125 L -49.835938 -3.828125 L -49.835938 -2.089844 L -51.574219 -2.089844 L -51.574219 -16.941406 L -20.320312 -16.941406 C -17.46875 -16.941406 -15.25 -16.75 -13.671875 -16.371094 C -12.042969 -15.976562 -10.871094 -15.558594 -10.152344 -15.109375 L -8.5 -14.074219 L -8.5 -2.039062 L -10.238281 -2.039062 L -10.238281 -3.777344 L 0 -3.777344 L 0 -2.039062 L -1.738281 -2.039062 L -1.738281 -31.605469 L 0 -31.605469 L 0 -29.867188 Z M -10.238281 -29.867188 "/></g></g><g style="fill:#000000;fill-opacity:1;"><g transform="translate(76.119814, 363.503894)"><path style="stroke:none" d="M -10.679688 -34.835938 L -10.367188 -34.886719 L -10.082031 -33.171875 L -11.820312 -33.171875 C -11.820312 -33.976562 -11.898438 -34.824219 -12.054688 -35.71875 C -12.1875 -36.464844 -12.496094 -37.199219 -12.984375 -37.914062 C -13.457031 -38.617188 -14.222656 -39.265625 -15.277344 -39.863281 C -16.402344 -40.5 -17.96875 -41.019531 -19.980469 -41.417969 C -22.0625 -41.832031 -24.738281 -42.039062 -28 -42.039062 L -49.890625 -42.039062 L -49.890625 -43.777344 L -48.152344 -43.777344 L -48.152344 -38.902344 L -61.761719 -38.902344 L -61.761719 -57.53125 L -27.792969 -57.53125 C -21.949219 -57.53125 -17.140625 -56.984375 -13.363281 -55.894531 C -9.441406 -54.765625 -6.367188 -53.042969 -4.128906 -50.730469 C -1.894531 -48.417969 -0.347656 -45.546875 0.511719 -42.109375 C 1.328125 -38.835938 1.738281 -35.023438 1.738281 -30.664062 L 1.738281 -4.582031 L -49.835938 -4.582031 L -49.835938 -6.320312 L -48.097656 -6.320312 L -48.097656 -1.710938 L -61.761719 -1.710938 L -61.761719 -18.492188 L -58.285156 -18.492188 L -58.285156 -18.386719 L -60.023438 -18.386719 L -60.027344 -20.128906 L -10.035156 -20.230469 L -10.03125 -18.492188 L -11.769531 -18.492188 C -11.769531 -19.78125 -11.949219 -20.78125 -12.3125 -21.492188 C -12.582031 -22.023438 -13.152344 -22.433594 -14.019531 -22.71875 C -15.167969 -23.097656 -16.902344 -23.285156 -19.222656 -23.285156 L -49.890625 -23.285156 L -49.890625 -25.023438 L -48.152344 -25.023438 L -48.152344 -19.890625 L -61.761719 -19.890625 L -61.761719 -38.828125 L -29.203125 -38.828125 C -25.609375 -38.828125 -22.5625 -38.742188 -20.066406 -38.5625 C -17.453125 -38.378906 -15.289062 -37.980469 -13.574219 -37.371094 C -11.695312 -36.703125 -10.179688 -35.644531 -9.035156 -34.203125 L -10.394531 -33.121094 Z M -10.109375 -31.40625 L -11.121094 -31.238281 L -11.757812 -32.039062 C -12.492188 -32.964844 -13.484375 -33.648438 -14.738281 -34.09375 C -16.15625 -34.597656 -18.015625 -34.933594 -20.3125 -35.09375 C -22.726562 -35.265625 -25.691406 -35.351562 -29.203125 -35.351562 L -60.023438 -35.351562 L -60.023438 -37.089844 L -58.285156 -37.089844 L -58.285156 -21.628906 L -60.023438 -21.628906 L -60.023438 -23.367188 L -49.890625 -23.367188 L -49.890625 -21.628906 L -51.628906 -21.628906 L -51.628906 -26.761719 L -19.222656 -26.761719 C -16.53125 -26.761719 -14.433594 -26.515625 -12.933594 -26.023438 C -11.15625 -25.4375 -9.917969 -24.453125 -9.210938 -23.070312 C -8.597656 -21.863281 -8.292969 -20.339844 -8.292969 -18.492188 L -8.292969 -16.757812 L -61.761719 -16.644531 L -61.761719 -18.492188 L -58.285156 -18.492188 L -58.285156 -3.449219 L -60.023438 -3.449219 L -60.023438 -5.1875 L -49.835938 -5.1875 L -49.835938 -3.449219 L -51.574219 -3.449219 L -51.574219 -8.058594 L 0 -8.058594 L 0 -6.320312 L -1.738281 -6.320312 L -1.738281 -30.664062 C -1.738281 -34.734375 -2.113281 -38.269531 -2.863281 -41.265625 C -3.570312 -44.097656 -4.828125 -46.449219 -6.628906 -48.316406 C -8.4375 -50.183594 -11 -51.59375 -14.324219 -52.554688 C -17.789062 -53.554688 -22.277344 -54.054688 -27.792969 -54.054688 L -60.023438 -54.054688 L -60.023438 -55.792969 L -58.285156 -55.792969 L -58.285156 -40.644531 L -60.023438 -40.644531 L -60.023438 -42.382812 L -49.890625 -42.382812 L -49.890625 -40.644531 L -51.628906 -40.644531 L -51.628906 -45.515625 L -28 -45.515625 C -24.507812 -45.515625 -21.609375 -45.289062 -19.304688 -44.828125 C -16.925781 -44.359375 -15.011719 -43.710938 -13.558594 -42.886719 C -12.035156 -42.023438 -10.886719 -41.015625 -10.105469 -39.871094 C -9.339844 -38.742188 -8.847656 -37.558594 -8.632812 -36.320312 C -8.441406 -35.226562 -8.34375 -34.179688 -8.34375 -33.171875 L -8.34375 -31.699219 Z M -10.109375 -31.40625 "/></g></g><g style="fill:#000000;fill-opacity:1;"><g transform="translate(76.119814, 304.002911)"><path style="stroke:none" d="M -61.761719 -5.328125 L -61.761719 -39.089844 L 1.738281 -39.089844 L 1.738281 -23.230469 L -49.835938 -23.230469 L -49.835938 -24.972656 L -48.097656 -24.972656 L -48.097656 -3.589844 L -61.761719 -3.589844 Z M -58.285156 -5.328125 L -60.023438 -5.328125 L -60.023438 -7.066406 L -49.835938 -7.066406 L -49.835938 -5.328125 L -51.574219 -5.328125 L -51.574219 -26.710938 L 0 -26.710938 L 0 -24.972656 L -1.738281 -24.972656 L -1.738281 -37.351562 L 0 -37.351562 L 0 -35.613281 L -60.023438 -35.613281 L -60.023438 -37.351562 L -58.285156 -37.351562 Z M 0 -3.695312 L -42.382812 -3.695312 L -42.382812 -19.605469 L 1.738281 -19.605469 L 1.738281 -3.695312 Z M 0 -7.171875 L 0 -5.433594 L -1.738281 -5.433594 L -1.738281 -17.867188 L 0 -17.867188 L 0 -16.128906 L -40.644531 -16.128906 L -40.644531 -17.867188 L -38.902344 -17.867188 L -38.902344 -5.433594 L -40.644531 -5.433594 L -40.644531 -7.171875 Z M 0 -7.171875 "/></g></g><g style="fill:#000000;fill-opacity:1;"><g transform="translate(76.119814, 261.270861)"><path style="stroke:none" d=""/></g></g><g style="fill:#000000;fill-opacity:1;"><g transform="translate(76.119814, 244.031769)"><path style="stroke:none" d="M -47.433594 -41.703125 C -43.730469 -41.703125 -40.570312 -41.511719 -37.964844 -41.136719 C -35.339844 -40.753906 -33.105469 -40.261719 -31.269531 -39.65625 C -29.4375 -39.050781 -27.847656 -38.398438 -26.492188 -37.691406 C -25.199219 -37.019531 -24 -36.359375 -22.894531 -35.722656 C -21.894531 -35.136719 -20.832031 -34.628906 -19.714844 -34.191406 C -18.667969 -33.78125 -17.425781 -33.515625 -15.992188 -33.390625 C -14.507812 -33.261719 -12.640625 -33.328125 -10.390625 -33.59375 L -10.1875 -31.867188 L -11.925781 -31.867188 L -11.925781 -37.835938 L 1.738281 -37.835938 L 1.738281 -19.640625 L 0.296875 -19.390625 C -3.828125 -18.679688 -7.378906 -18.289062 -10.355469 -18.21875 C -13.351562 -18.144531 -15.96875 -18.292969 -18.199219 -18.65625 C -20.441406 -19.023438 -22.433594 -19.542969 -24.183594 -20.210938 C -25.867188 -20.859375 -27.464844 -21.546875 -28.972656 -22.285156 C -30.402344 -22.984375 -31.902344 -23.65625 -33.46875 -24.304688 C -34.972656 -24.925781 -36.679688 -25.433594 -38.59375 -25.828125 C -40.496094 -26.222656 -42.78125 -26.417969 -45.449219 -26.417969 C -46.527344 -26.417969 -47.414062 -26.3125 -48.101562 -26.101562 L -49.378906 -25.710938 L -49.890625 -27.375 L -48.152344 -27.375 L -48.152344 -18.285156 L -49.890625 -18.285156 L -49.167969 -19.867188 L -48.019531 -19.34375 C -47.390625 -19.058594 -46.199219 -18.761719 -44.445312 -18.457031 C -42.644531 -18.140625 -40.054688 -17.984375 -36.671875 -17.984375 L 13.164062 -17.984375 L 13.164062 -16.246094 L 11.425781 -16.246094 L 11.425781 -21.902344 L 25.140625 -21.902344 L 25.140625 -2.441406 L -35.785156 -2.441406 C -38.558594 -2.441406 -40.898438 -2.597656 -42.804688 -2.90625 C -44.730469 -3.222656 -46.277344 -3.601562 -47.445312 -4.042969 C -48.617188 -4.484375 -49.488281 -4.882812 -50.058594 -5.242188 L -50.761719 -5.6875 L -49.835938 -7.15625 L -48.097656 -7.15625 L -48.097656 -0.140625 L -61.761719 -0.140625 L -61.761719 -40.199219 L -59.117188 -40.609375 C -58.324219 -40.734375 -57.292969 -40.882812 -56.03125 -41.058594 C -54.746094 -41.238281 -53.355469 -41.390625 -51.863281 -41.511719 C -50.351562 -41.640625 -48.875 -41.703125 -47.433594 -41.703125 Z M -47.433594 -38.226562 C -48.777344 -38.226562 -50.160156 -38.167969 -51.574219 -38.046875 C -53.003906 -37.929688 -54.332031 -37.785156 -55.554688 -37.613281 C -56.796875 -37.441406 -57.808594 -37.296875 -58.582031 -37.175781 L -59.757812 -36.992188 L -60.023438 -38.710938 L -58.285156 -38.710938 L -58.285156 -1.878906 L -60.023438 -1.878906 L -60.023438 -3.621094 L -49.835938 -3.621094 L -49.835938 -1.878906 L -51.574219 -1.878906 L -51.574219 -10.304688 L -48.207031 -8.183594 C -47.835938 -7.949219 -47.171875 -7.652344 -46.21875 -7.292969 C -45.265625 -6.933594 -43.941406 -6.617188 -42.242188 -6.339844 C -40.523438 -6.058594 -38.371094 -5.917969 -35.785156 -5.917969 L 23.402344 -5.917969 L 23.402344 -4.179688 L 21.664062 -4.179688 L 21.664062 -20.164062 L 23.402344 -20.164062 L 23.402344 -18.425781 L 13.164062 -18.425781 L 13.164062 -20.164062 L 14.902344 -20.164062 L 14.902344 -14.507812 L -36.671875 -14.507812 C -40.253906 -14.507812 -43.046875 -14.683594 -45.042969 -15.03125 C -47.085938 -15.386719 -48.558594 -15.769531 -49.460938 -16.179688 L -51.628906 -17.164062 L -51.628906 -28.660156 L -49.117188 -29.429688 C -48.097656 -29.738281 -46.875 -29.894531 -45.449219 -29.894531 C -42.542969 -29.894531 -40.023438 -29.675781 -37.886719 -29.234375 C -35.761719 -28.792969 -33.847656 -28.222656 -32.144531 -27.519531 C -30.507812 -26.84375 -28.941406 -26.140625 -27.445312 -25.410156 C -26.03125 -24.71875 -24.527344 -24.070312 -22.9375 -23.460938 C -21.410156 -22.875 -19.644531 -22.417969 -17.636719 -22.089844 C -15.621094 -21.757812 -13.21875 -21.625 -10.4375 -21.695312 C -7.632812 -21.761719 -4.25 -22.136719 -0.296875 -22.820312 L 0 -21.105469 L -1.738281 -21.105469 L -1.738281 -36.097656 L 0 -36.097656 L 0 -34.359375 L -10.1875 -34.359375 L -10.1875 -36.097656 L -8.449219 -36.097656 L -8.449219 -30.320312 L -9.984375 -30.140625 C -12.46875 -29.847656 -14.574219 -29.777344 -16.292969 -29.925781 C -18.0625 -30.078125 -19.625 -30.421875 -20.980469 -30.953125 C -22.265625 -31.457031 -23.484375 -32.042969 -24.640625 -32.714844 C -25.699219 -33.328125 -26.851562 -33.957031 -28.097656 -34.609375 C -29.285156 -35.226562 -30.707031 -35.808594 -32.359375 -36.355469 C -34.003906 -36.894531 -36.039062 -37.34375 -38.460938 -37.695312 C -40.90625 -38.046875 -43.894531 -38.226562 -47.433594 -38.226562 Z M -47.433594 -38.226562 "/></g></g><g style="fill:#000000;fill-opacity:1;"><g transform="translate(76.119814, 200.881802)"><path style="stroke:none" d="M -61.761719 -2.613281 L -61.761719 -22.582031 L 1.738281 -22.582031 L 1.738281 -6.621094 L -49.835938 -6.621094 L -49.835938 -8.359375 L -48.097656 -8.359375 L -48.097656 -0.875 L -61.761719 -0.875 Z M -58.285156 -2.613281 L -60.023438 -2.613281 L -60.023438 -4.351562 L -49.835938 -4.351562 L -49.835938 -2.613281 L -51.574219 -2.613281 L -51.574219 -10.097656 L 0 -10.097656 L 0 -8.359375 L -1.738281 -8.359375 L -1.738281 -20.84375 L 0 -20.84375 L 0 -19.105469 L -60.023438 -19.105469 L -60.023438 -20.84375 L -58.285156 -20.84375 Z M -58.285156 -2.613281 "/></g></g><g style="fill:#000000;fill-opacity:1;"><g transform="translate(76.119814, 175.127656)"><path style="stroke:none" d="M -48.046875 -43.253906 L -48.046875 -40.484375 L -49.785156 -40.484375 L -49.1875 -42.117188 L -48.117188 -41.726562 C -47.507812 -41.503906 -46.445312 -41.269531 -44.9375 -41.027344 C -43.410156 -40.78125 -41.351562 -40.65625 -38.761719 -40.65625 L 1.738281 -40.65625 L 1.738281 -24.695312 L -38.03125 -24.695312 C -40.730469 -24.695312 -42.992188 -24.832031 -44.820312 -25.105469 C -46.632812 -25.378906 -48.007812 -25.644531 -48.949219 -25.910156 L -50.253906 -26.273438 L -49.785156 -27.949219 L -48.046875 -27.949219 L -48.046875 -19.851562 L -49.785156 -19.851562 L -49.269531 -21.511719 L -48.171875 -21.171875 C -47.53125 -20.972656 -46.453125 -20.765625 -44.945312 -20.554688 C -43.421875 -20.339844 -41.363281 -20.230469 -38.761719 -20.230469 L 1.738281 -20.230469 L 1.738281 -4.269531 L -38.03125 -4.269531 C -40.753906 -4.269531 -43.03125 -4.445312 -44.863281 -4.796875 C -46.671875 -5.144531 -48.0625 -5.488281 -49.03125 -5.832031 L -50.363281 -6.300781 L -49.785156 -7.941406 L -48.046875 -7.941406 L -48.046875 -1.96875 L -61.761719 -1.96875 L -61.761719 -44.992188 L -48.046875 -44.992188 Z M -51.523438 -43.253906 L -49.785156 -43.253906 L -49.785156 -41.515625 L -60.023438 -41.515625 L -60.023438 -43.253906 L -58.285156 -43.253906 L -58.285156 -3.710938 L -60.023438 -3.710938 L -60.023438 -5.449219 L -49.785156 -5.449219 L -49.785156 -3.710938 L -51.523438 -3.710938 L -51.523438 -10.398438 L -47.875 -9.109375 C -47.066406 -8.824219 -45.84375 -8.527344 -44.207031 -8.210938 C -42.589844 -7.902344 -40.53125 -7.746094 -38.03125 -7.746094 L 0 -7.746094 L 0 -6.007812 L -1.738281 -6.007812 L -1.738281 -18.492188 L 0 -18.492188 L 0 -16.753906 L -38.761719 -16.753906 C -41.523438 -16.753906 -43.75 -16.875 -45.429688 -17.109375 C -47.125 -17.351562 -48.382812 -17.597656 -49.203125 -17.851562 L -51.523438 -18.570312 L -51.523438 -30.242188 L -48.011719 -29.257812 C -47.207031 -29.03125 -45.972656 -28.796875 -44.304688 -28.542969 C -42.648438 -28.296875 -40.554688 -28.171875 -38.03125 -28.171875 L 0 -28.171875 L 0 -26.433594 L -1.738281 -26.433594 L -1.738281 -38.917969 L 0 -38.917969 L 0 -37.179688 L -38.761719 -37.179688 C -41.535156 -37.179688 -43.78125 -37.316406 -45.492188 -37.59375 C -47.21875 -37.875 -48.492188 -38.164062 -49.3125 -38.460938 L -51.523438 -39.269531 Z M -51.523438 -43.253906 "/></g></g><g style="fill:#ffffff;fill-opacity:1;"><g transform="translate(76.119814, 495.200102)"><path style="stroke:none" d="M -60.015625 -5.328125 L -60.015625 -37.34375 L 0 -37.34375 L 0 -24.96875 L -49.828125 -24.96875 L -49.828125 -5.328125 Z M 0 -5.4375 L -40.640625 -5.4375 L -40.640625 -17.859375 L 0 -17.859375 Z M 0 -5.4375 "/></g></g><g style="fill:#ffffff;fill-opacity:1;"><g transform="translate(76.119814, 452.468052)"><path style="stroke:none" d="M -60.015625 -1.625 L -60.015625 -14.421875 C -60.015625 -17.617188 -59.335938 -20.15625 -57.984375 -22.03125 C -56.628906 -23.914062 -54.425781 -25.257812 -51.375 -26.0625 C -48.332031 -26.863281 -44.25 -27.265625 -39.125 -27.265625 L 0 -27.265625 L 0 -14.828125 L -38.921875 -14.828125 C -41.910156 -14.828125 -44.1875 -14.628906 -45.75 -14.234375 C -47.320312 -13.835938 -48.394531 -13.175781 -48.96875 -12.25 C -49.539062 -11.320312 -49.828125 -10.0625 -49.828125 -8.46875 L -49.828125 -1.625 Z M -60.015625 -1.625 "/></g></g><g style="fill:#ffffff;fill-opacity:1;"><g transform="translate(76.119814, 420.392895)"><path style="stroke:none" d="M -29.203125 -4.234375 C -31.984375 -5.867188 -34.523438 -6.960938 -36.828125 -7.515625 C -39.128906 -8.078125 -41.320312 -8.332031 -43.40625 -8.28125 C -45.5 -8.226562 -47.640625 -8.0625 -49.828125 -7.78125 L -49.828125 -1.25 L -60.015625 -1.25 L -60.015625 -19.125 C -53.398438 -20.71875 -47.101562 -20.972656 -41.125 -19.890625 C -35.15625 -18.816406 -29.734375 -16.46875 -24.859375 -12.84375 Z M -29.203125 -4.234375 "/></g></g><g style="fill:#ffffff;fill-opacity:1;"><g transform="translate(76.119814, 397.041762)"><path style="stroke:none" d="M -10.234375 -31.609375 L 0 -31.609375 L 0 -2.03125 L -10.234375 -2.03125 L -10.234375 -13.109375 C -10.234375 -13.109375 -10.507812 -13.28125 -11.0625 -13.625 C -11.625 -13.976562 -12.628906 -14.328125 -14.078125 -14.671875 C -15.523438 -15.023438 -17.609375 -15.203125 -20.328125 -15.203125 L -49.828125 -15.203125 L -49.828125 -2.09375 L -60.015625 -2.09375 L -60.015625 -27.640625 L -24.078125 -27.640625 C -20.910156 -27.640625 -18.304688 -27.410156 -16.265625 -26.953125 C -14.234375 -26.503906 -12.71875 -26.050781 -11.71875 -25.59375 C -10.726562 -25.144531 -10.234375 -24.921875 -10.234375 -24.921875 Z M -10.234375 -31.609375 "/></g></g><g style="fill:#ffffff;fill-opacity:1;"><g transform="translate(76.119814, 363.503894)"><path style="stroke:none" d="M -10.390625 -33.125 L -10.078125 -33.171875 C -10.078125 -34.078125 -10.164062 -35.023438 -10.34375 -36.015625 C -10.519531 -37.003906 -10.921875 -37.960938 -11.546875 -38.890625 C -12.171875 -39.816406 -13.125 -40.644531 -14.40625 -41.375 C -15.695312 -42.101562 -17.441406 -42.6875 -19.640625 -43.125 C -21.835938 -43.5625 -24.625 -43.78125 -28 -43.78125 L -49.890625 -43.78125 L -49.890625 -40.640625 L -60.015625 -40.640625 L -60.015625 -55.796875 L -27.796875 -55.796875 C -22.117188 -55.796875 -17.46875 -55.269531 -13.84375 -54.21875 C -10.21875 -53.175781 -7.394531 -51.609375 -5.375 -49.515625 C -3.351562 -47.429688 -1.953125 -44.820312 -1.171875 -41.6875 C -0.390625 -38.550781 0 -34.875 0 -30.65625 L 0 -6.328125 L -49.828125 -6.328125 L -49.828125 -3.453125 L -60.015625 -3.453125 L -60.015625 -18.5 L -60.015625 -18.390625 L -10.03125 -18.5 C -10.03125 -20.0625 -10.273438 -21.320312 -10.765625 -22.28125 C -11.253906 -23.238281 -12.160156 -23.929688 -13.484375 -24.359375 C -14.804688 -24.796875 -16.71875 -25.015625 -19.21875 -25.015625 L -49.890625 -25.015625 L -49.890625 -21.625 L -60.015625 -21.625 L -60.015625 -37.09375 L -29.203125 -37.09375 C -25.648438 -37.09375 -22.644531 -37.003906 -20.1875 -36.828125 C -17.726562 -36.648438 -15.71875 -36.28125 -14.15625 -35.71875 C -12.59375 -35.164062 -11.335938 -34.300781 -10.390625 -33.125 Z M -10.390625 -33.125 "/></g></g><g style="fill:#ffffff;fill-opacity:1;"><g transform="translate(76.119814, 304.002911)"><path style="stroke:none" d="M -60.015625 -5.328125 L -60.015625 -37.34375 L 0 -37.34375 L 0 -24.96875 L -49.828125 -24.96875 L -49.828125 -5.328125 Z M 0 -5.4375 L -40.640625 -5.4375 L -40.640625 -17.859375 L 0 -17.859375 Z M 0 -5.4375 "/></g></g><g style="fill:#ffffff;fill-opacity:1;"><g transform="translate(76.119814, 261.270861)"><path style="stroke:none" d=""/></g></g><g style="fill:#ffffff;fill-opacity:1;"><g transform="translate(76.119814, 244.031769)"><path style="stroke:none" d="M -47.4375 -39.96875 C -43.8125 -39.96875 -40.734375 -39.78125 -38.203125 -39.40625 C -35.679688 -39.039062 -33.550781 -38.570312 -31.8125 -38 C -30.070312 -37.425781 -28.566406 -36.804688 -27.296875 -36.140625 C -26.023438 -35.484375 -24.847656 -34.84375 -23.765625 -34.21875 C -22.691406 -33.59375 -21.550781 -33.039062 -20.34375 -32.5625 C -19.144531 -32.09375 -17.742188 -31.789062 -16.140625 -31.65625 C -14.535156 -31.519531 -12.550781 -31.585938 -10.1875 -31.859375 L -10.1875 -36.09375 L 0 -36.09375 L 0 -21.109375 C -4.039062 -20.410156 -7.503906 -20.023438 -10.390625 -19.953125 C -13.285156 -19.878906 -15.796875 -20.015625 -17.921875 -20.359375 C -20.046875 -20.710938 -21.925781 -21.203125 -23.5625 -21.828125 C -25.195312 -22.460938 -26.742188 -23.132812 -28.203125 -23.84375 C -29.671875 -24.5625 -31.203125 -25.25 -32.796875 -25.90625 C -34.398438 -26.570312 -36.210938 -27.113281 -38.234375 -27.53125 C -40.253906 -27.945312 -42.660156 -28.15625 -45.453125 -28.15625 C -46.703125 -28.15625 -47.753906 -28.023438 -48.609375 -27.765625 C -49.460938 -27.503906 -49.890625 -27.375 -49.890625 -27.375 L -49.890625 -18.28125 C -49.890625 -18.28125 -49.503906 -18.101562 -48.734375 -17.75 C -47.972656 -17.40625 -46.640625 -17.066406 -44.734375 -16.734375 C -42.835938 -16.410156 -40.148438 -16.25 -36.671875 -16.25 L 13.171875 -16.25 L 13.171875 -20.15625 L 23.40625 -20.15625 L 23.40625 -4.171875 L -35.78125 -4.171875 C -38.46875 -4.171875 -40.710938 -4.316406 -42.515625 -4.609375 C -44.328125 -4.910156 -45.765625 -5.257812 -46.828125 -5.65625 C -47.890625 -6.0625 -48.65625 -6.410156 -49.125 -6.703125 C -49.59375 -7.003906 -49.828125 -7.15625 -49.828125 -7.15625 L -49.828125 -1.875 L -60.015625 -1.875 L -60.015625 -38.703125 C -60.015625 -38.703125 -59.625 -38.765625 -58.84375 -38.890625 C -58.0625 -39.015625 -57.039062 -39.160156 -55.78125 -39.328125 C -54.53125 -39.503906 -53.171875 -39.65625 -51.703125 -39.78125 C -50.242188 -39.90625 -48.820312 -39.96875 -47.4375 -39.96875 Z M -47.4375 -39.96875 "/></g></g><g style="fill:#ffffff;fill-opacity:1;"><g transform="translate(76.119814, 200.881802)"><path style="stroke:none" d="M -60.015625 -2.609375 L -60.015625 -20.84375 L 0 -20.84375 L 0 -8.359375 L -49.828125 -8.359375 L -49.828125 -2.609375 Z M -60.015625 -2.609375 "/></g></g><g style="fill:#ffffff;fill-opacity:1;"><g transform="translate(76.119814, 175.127656)"><path style="stroke:none" d="M -49.78125 -43.25 L -49.78125 -40.484375 C -49.78125 -40.484375 -49.421875 -40.351562 -48.703125 -40.09375 C -47.992188 -39.832031 -46.828125 -39.570312 -45.203125 -39.3125 C -43.585938 -39.050781 -41.441406 -38.921875 -38.765625 -38.921875 L 0 -38.921875 L 0 -26.4375 L -38.03125 -26.4375 C -40.644531 -26.4375 -42.820312 -26.566406 -44.5625 -26.828125 C -46.300781 -27.085938 -47.601562 -27.335938 -48.46875 -27.578125 C -49.34375 -27.828125 -49.78125 -27.953125 -49.78125 -27.953125 L -49.78125 -19.84375 C -49.78125 -19.84375 -49.414062 -19.726562 -48.6875 -19.5 C -47.957031 -19.28125 -46.789062 -19.054688 -45.1875 -18.828125 C -43.582031 -18.609375 -41.441406 -18.5 -38.765625 -18.5 L 0 -18.5 L 0 -6 L -38.03125 -6 C -40.644531 -6 -42.8125 -6.164062 -44.53125 -6.5 C -46.257812 -6.832031 -47.566406 -7.15625 -48.453125 -7.46875 C -49.335938 -7.78125 -49.78125 -7.9375 -49.78125 -7.9375 L -49.78125 -3.703125 L -60.015625 -3.703125 L -60.015625 -43.25 Z M -49.78125 -43.25 "/></g></g><g clip-rule="nonzero" clip-path="url(#91659c98ba)"><path style=" stroke:none;fill-rule:nonzero;fill:#ffffff;fill-opacity:1;" d="M 72.394531 96.546875 L 74.449219 107.699219 L 63.605469 104.371094 L 65.746094 102.46875 L 46.429688 79.761719 L 46.429688 79.699219 L 53.988281 79.699219 L 70.253906 98.453125 Z M 72.394531 96.546875 "/></g><path style=" stroke:none;fill-rule:nonzero;fill:#ffffff;fill-opacity:1;" d="M 34.28125 43.640625 L 53.828125 79.515625 L 46.359375 79.699219 L 28.933594 46.4375 Z M 34.28125 43.640625 "/><path style=" stroke:none;fill-rule:nonzero;fill:#ffffff;fill-opacity:1;" d="M 23.878906 36.800781 L 29.226562 34 L 32.027344 39.351562 L 26.683594 42.152344 Z M 23.878906 36.800781 "/><path style=" stroke:none;fill-rule:nonzero;fill:#ffffff;fill-opacity:1;" d="M 24.296875 24.589844 L 27.101562 29.9375 L 21.753906 32.738281 L 18.953125 27.394531 Z M 24.296875 24.589844 "/><path style=" stroke:none;fill-rule:nonzero;fill:#ffffff;fill-opacity:1;" d="M 14.019531 17.984375 L 19.367188 15.183594 L 22.167969 20.53125 L 16.824219 23.332031 Z M 14.019531 17.984375 "/><g clip-rule="nonzero" clip-path="url(#7eff752c15)"><path style=" stroke:none;fill-rule:nonzero;fill:#16284c;fill-opacity:1;" d="M 109.6875 80.125 L 0.441406 80.125 C 0.207031 80.125 0.015625 79.933594 0.015625 79.699219 C 0.015625 79.464844 0.207031 79.277344 0.441406 79.277344 L 109.6875 79.277344 C 109.921875 79.277344 110.109375 79.464844 110.109375 79.699219 C 110.109375 79.933594 109.921875 80.125 109.6875 80.125 Z M 109.6875 80.125 "/></g><g clip-rule="nonzero" clip-path="url(#2b8e870946)"><path style=" stroke:none;fill-rule:nonzero;fill:#16284c;fill-opacity:1;" d="M 74.988281 108.308594 L 62.761719 104.554688 L 65.152344 102.425781 L 46.105469 80.035156 C 45.953125 79.855469 45.972656 79.589844 46.152344 79.4375 C 46.332031 79.285156 46.597656 79.304688 46.75 79.484375 L 66.335938 102.507812 L 64.449219 104.1875 L 73.90625 107.085938 L 72.113281 97.359375 L 70.21875 99.050781 L 53.511719 79.789062 C 53.355469 79.613281 53.375 79.34375 53.554688 79.191406 C 53.730469 79.039062 54 79.058594 54.152344 79.234375 L 70.296875 97.847656 L 72.679688 95.726562 Z M 74.988281 108.308594 "/></g><path style=" stroke:none;fill-rule:nonzero;fill:#16284c;fill-opacity:1;" d="M 46.109375 80.128906 L 28.359375 46.257812 L 34.453125 43.070312 L 54.53125 79.921875 Z M 29.503906 46.617188 L 46.613281 79.273438 L 53.121094 79.113281 L 34.109375 44.207031 Z M 29.503906 46.617188 "/><path style=" stroke:none;fill-rule:nonzero;fill:#16284c;fill-opacity:1;" d="M 26.503906 42.722656 L 23.308594 36.621094 L 29.40625 33.425781 L 32.601562 39.523438 Z M 24.453125 36.980469 L 26.863281 41.578125 L 31.457031 39.167969 L 29.046875 34.570312 Z M 24.453125 36.980469 "/><path style=" stroke:none;fill-rule:nonzero;fill:#16284c;fill-opacity:1;" d="M 21.574219 33.308594 L 18.378906 27.214844 L 24.476562 24.015625 L 27.671875 30.117188 Z M 19.523438 27.570312 L 21.933594 32.167969 L 26.527344 29.761719 L 24.117188 25.160156 Z M 19.523438 27.570312 "/><g clip-rule="nonzero" clip-path="url(#6f2f988dbf)"><path style=" stroke:none;fill-rule:nonzero;fill:#16284c;fill-opacity:1;" d="M 16.644531 23.90625 L 13.449219 17.808594 L 19.546875 14.609375 L 22.742188 20.707031 Z M 14.59375 18.164062 L 17.003906 22.761719 L 21.597656 20.351562 L 19.1875 15.753906 Z M 14.59375 18.164062 "/></g></g></svg>