<svg xmlns="http://www.w3.org/2000/svg" xmlns:xlink="http://www.w3.org/1999/xlink" width="1366" zoomAndPan="magnify" viewBox="0 0 1024.5 576" height="768" preserveAspectRatio="xMidYMid meet" version="1.2"><defs><clipPath id="564aab54dd"><path d="M 0 0.140625 L 93.332031 0.140625 L 93.332031 575.859375 L 0 575.859375 Z M 0 0.140625 "/></clipPath><clipPath id="ba70c64450"><path d="M 0 92 L 91.042969 92 L 91.042969 93.765625 L 0 93.765625 Z M 0 92 "/></clipPath><clipPath id="99410fb8b5"><path d="M 19 51 L 88 51 L 88 93.765625 L 19 93.765625 Z M 19 51 "/></clipPath><clipPath id="00ff3938ee"><path d="M 0 30.796875 L 5 30.796875 L 5 42 L 0 42 Z M 0 30.796875 "/></clipPath></defs><g id="05cb3747ee"><g clip-rule="nonzero" clip-path="url(#564aab54dd)"><path style=" stroke:none;fill-rule:nonzero;fill:#ecb8c4;fill-opacity:1;" d="M -17.222656 0.140625 L 93.332031 0.140625 L 93.332031 575.785156 L -17.222656 575.785156 Z M -17.222656 0.140625 "/></g><path style=" stroke:none;fill-rule:nonzero;fill:#ffffff;fill-opacity:1;" d="M 86.992188 51.726562 L 84.023438 63.878906 L 81.785156 61.644531 L 55.492188 87.9375 L 50.78125 92.644531 L 19.730469 61.59375 L 24.4375 56.886719 L 50.78125 83.226562 L 77.078125 56.933594 L 74.839844 54.699219 Z M 86.992188 51.726562 "/><path style=" stroke:none;fill-rule:nonzero;fill:#ffffff;fill-opacity:1;" d="M 11.128906 52.996094 L 15.839844 48.285156 L 20.550781 52.996094 L 15.839844 57.703125 Z M 11.128906 52.996094 "/><path style=" stroke:none;fill-rule:nonzero;fill:#ffffff;fill-opacity:1;" d="M 2.730469 44.589844 L 7.441406 39.878906 L 12.148438 44.589844 L 7.441406 49.300781 Z M 2.730469 44.589844 "/><path style=" stroke:none;fill-rule:nonzero;fill:#ffffff;fill-opacity:1;" d="M -5.675781 36.1875 L -0.964844 31.480469 L 3.746094 36.1875 L -0.964844 40.898438 Z M -5.675781 36.1875 "/><g clip-rule="nonzero" clip-path="url(#ba70c64450)"><path style=" stroke:none;fill-rule:nonzero;fill:#16284c;fill-opacity:1;" d="M 110.070312 93.476562 L -10.441406 93.476562 C -10.699219 93.476562 -10.90625 93.269531 -10.90625 93.007812 C -10.90625 92.75 -10.699219 92.542969 -10.441406 92.542969 L 110.070312 92.542969 C 110.332031 92.542969 110.539062 92.75 110.539062 93.007812 C 110.539062 93.269531 110.332031 93.476562 110.070312 93.476562 Z M 110.070312 93.476562 "/></g><g clip-rule="nonzero" clip-path="url(#99410fb8b5)"><path style=" stroke:none;fill-rule:nonzero;fill:#16284c;fill-opacity:1;" d="M 50.78125 93.304688 L 19.066406 61.59375 L 24.4375 56.226562 L 50.78125 82.566406 L 76.417969 56.9375 L 73.921875 54.445312 L 87.625 51.089844 L 84.277344 64.796875 L 81.785156 62.304688 Z M 20.390625 61.59375 L 50.78125 91.984375 L 81.785156 60.980469 L 83.765625 62.960938 L 86.355469 52.359375 L 75.757812 54.953125 L 77.742188 56.929688 L 50.78125 83.886719 L 24.4375 57.546875 Z M 20.390625 61.59375 "/></g><path style=" stroke:none;fill-rule:nonzero;fill:#16284c;fill-opacity:1;" d="M 15.839844 58.363281 L 10.46875 52.992188 L 15.839844 47.625 L 21.210938 52.992188 Z M 11.789062 52.992188 L 15.839844 57.042969 L 19.890625 52.992188 L 15.839844 48.945312 Z M 11.789062 52.992188 "/><path style=" stroke:none;fill-rule:nonzero;fill:#16284c;fill-opacity:1;" d="M 7.4375 49.960938 L 2.066406 44.589844 L 7.4375 39.222656 L 12.808594 44.589844 Z M 3.390625 44.589844 L 7.4375 48.640625 L 11.488281 44.589844 L 7.4375 40.542969 Z M 3.390625 44.589844 "/><g clip-rule="nonzero" clip-path="url(#00ff3938ee)"><path style=" stroke:none;fill-rule:nonzero;fill:#16284c;fill-opacity:1;" d="M -0.964844 41.558594 L -6.332031 36.191406 L -0.964844 30.820312 L 4.40625 36.191406 Z M -5.015625 36.191406 L -0.964844 40.242188 L 3.082031 36.191406 L -0.964844 32.140625 Z M -5.015625 36.191406 "/></g><g style="fill:#000000;fill-opacity:1;"><g transform="translate(72.532558, 515.442502)"><path style="stroke:none" d="M -61.761719 -5.328125 L -61.761719 -39.089844 L 1.738281 -39.089844 L 1.738281 -23.230469 L -49.835938 -23.230469 L -49.835938 -24.972656 L -48.097656 -24.972656 L -48.097656 -3.589844 L -61.761719 -3.589844 Z M -58.285156 -5.328125 L -60.023438 -5.328125 L -60.023438 -7.066406 L -49.835938 -7.066406 L -49.835938 -5.328125 L -51.574219 -5.328125 L -51.574219 -26.710938 L 0 -26.710938 L 0 -24.972656 L -1.738281 -24.972656 L -1.738281 -37.351562 L 0 -37.351562 L 0 -35.613281 L -60.023438 -35.613281 L -60.023438 -37.351562 L -58.285156 -37.351562 Z M 0 -3.695312 L -42.382812 -3.695312 L -42.382812 -19.605469 L 1.738281 -19.605469 L 1.738281 -3.695312 Z M 0 -7.171875 L 0 -5.433594 L -1.738281 -5.433594 L -1.738281 -17.867188 L 0 -17.867188 L 0 -16.128906 L -40.644531 -16.128906 L -40.644531 -17.867188 L -38.902344 -17.867188 L -38.902344 -5.433594 L -40.644531 -5.433594 L -40.644531 -7.171875 Z M 0 -7.171875 "/></g></g><g style="fill:#000000;fill-opacity:1;"><g transform="translate(72.532558, 472.710452)"><path style="stroke:none" d="M -61.761719 -1.621094 L -61.761719 -14.417969 C -61.761719 -17.996094 -60.972656 -20.878906 -59.394531 -23.0625 C -57.792969 -25.28125 -55.269531 -26.84375 -51.820312 -27.75 C -48.628906 -28.589844 -44.398438 -29.007812 -39.128906 -29.007812 L 1.738281 -29.007812 L 1.738281 -13.097656 L -38.917969 -13.097656 C -41.769531 -13.097656 -43.90625 -12.914062 -45.332031 -12.550781 C -46.449219 -12.265625 -47.171875 -11.859375 -47.5 -11.332031 C -47.898438 -10.691406 -48.097656 -9.734375 -48.097656 -8.464844 L -48.097656 0.121094 L -61.761719 0.121094 Z M -58.285156 -1.621094 L -60.023438 -1.621094 L -60.023438 -3.359375 L -49.835938 -3.359375 L -49.835938 -1.621094 L -51.574219 -1.621094 L -51.574219 -8.464844 C -51.574219 -10.394531 -51.199219 -11.964844 -50.449219 -13.167969 C -49.628906 -14.488281 -48.210938 -15.402344 -46.191406 -15.921875 C -44.484375 -16.355469 -42.058594 -16.574219 -38.917969 -16.574219 L 0 -16.574219 L 0 -14.835938 L -1.738281 -14.835938 L -1.738281 -27.269531 L 0 -27.269531 L 0 -25.53125 L -39.128906 -25.53125 C -44.097656 -25.53125 -48.035156 -25.148438 -50.9375 -24.386719 C -53.582031 -23.691406 -55.460938 -22.570312 -56.578125 -21.027344 C -57.714844 -19.449219 -58.285156 -17.246094 -58.285156 -14.417969 Z M -58.285156 -1.621094 "/></g></g><g style="fill:#000000;fill-opacity:1;"><g transform="translate(72.532558, 440.635295)"><path style="stroke:none" d="M -0.292969 -7.480469 L -2.277344 -7.820312 C -3.5625 -8.039062 -5.410156 -8.269531 -7.824219 -8.507812 C -10.21875 -8.746094 -13.089844 -8.847656 -16.4375 -8.8125 C -18.382812 -8.8125 -20.023438 -8.671875 -21.367188 -8.382812 C -22.769531 -8.082031 -24.050781 -7.742188 -25.210938 -7.359375 C -26.453125 -6.949219 -27.742188 -6.558594 -29.074219 -6.1875 C -30.496094 -5.789062 -32.125 -5.535156 -33.953125 -5.421875 C -37.195312 -5.238281 -40.210938 -5.394531 -43.007812 -5.890625 C -45.78125 -6.378906 -48.265625 -7.042969 -50.460938 -7.882812 L -49.835938 -9.507812 L -48.097656 -9.507812 L -48.097656 -0.664062 L -61.761719 -0.664062 L -61.761719 -29.164062 L -48.097656 -29.164062 L -48.097656 -21.417969 L -49.835938 -21.417969 L -49.023438 -22.953125 C -48 -22.414062 -46.335938 -21.941406 -44.027344 -21.539062 C -41.671875 -21.125 -38.703125 -21.039062 -35.113281 -21.273438 C -33.644531 -21.371094 -32.375 -21.546875 -31.304688 -21.804688 C -30.164062 -22.074219 -29.042969 -22.371094 -27.941406 -22.695312 C -26.769531 -23.039062 -25.441406 -23.371094 -23.953125 -23.691406 C -22.425781 -24.023438 -20.539062 -24.261719 -18.292969 -24.40625 C -14.785156 -24.691406 -11.628906 -24.761719 -8.820312 -24.617188 C -6.03125 -24.476562 -3.8125 -24.289062 -2.160156 -24.054688 L 1.738281 -23.503906 L 1.738281 -7.132812 Z M 0.292969 -10.90625 L 0 -9.195312 L -1.738281 -9.195312 L -1.738281 -21.992188 L 0 -21.992188 L -0.242188 -20.273438 L -2.644531 -20.609375 C -4.195312 -20.832031 -6.3125 -21.007812 -8.996094 -21.144531 C -11.652344 -21.28125 -14.675781 -21.210938 -18.066406 -20.9375 C -20.140625 -20.804688 -21.855469 -20.589844 -23.21875 -20.292969 C -24.625 -19.988281 -25.871094 -19.675781 -26.964844 -19.359375 C -28.125 -19.019531 -29.300781 -18.707031 -30.496094 -18.421875 C -31.757812 -18.121094 -33.222656 -17.914062 -34.886719 -17.804688 C -38.753906 -17.550781 -42 -17.652344 -44.625 -18.113281 C -47.296875 -18.578125 -49.304688 -19.167969 -50.652344 -19.882812 L -51.574219 -20.371094 L -51.574219 -27.425781 L -49.835938 -27.425781 L -49.835938 -25.6875 L -60.023438 -25.6875 L -60.023438 -27.425781 L -58.285156 -27.425781 L -58.285156 -2.402344 L -60.023438 -2.402344 L -60.023438 -4.140625 L -49.835938 -4.140625 L -49.835938 -2.402344 L -51.574219 -2.402344 L -51.574219 -12.035156 L -49.214844 -11.132812 C -47.230469 -10.371094 -44.957031 -9.765625 -42.402344 -9.3125 C -39.871094 -8.867188 -37.125 -8.726562 -34.167969 -8.890625 C -32.582031 -8.988281 -31.199219 -9.203125 -30.011719 -9.535156 C -28.730469 -9.894531 -27.492188 -10.269531 -26.296875 -10.664062 C -25.019531 -11.082031 -23.621094 -11.457031 -22.097656 -11.78125 C -20.511719 -12.121094 -18.640625 -12.292969 -16.472656 -12.292969 C -12.996094 -12.328125 -10 -12.21875 -7.480469 -11.96875 C -4.984375 -11.722656 -3.054688 -11.480469 -1.691406 -11.246094 Z M 0.292969 -10.90625 "/></g></g><g style="fill:#000000;fill-opacity:1;"><g transform="translate(72.532558, 410.963163)"><path style="stroke:none" d="M -48.046875 -43.253906 L -48.046875 -40.484375 L -49.785156 -40.484375 L -49.1875 -42.117188 L -48.117188 -41.726562 C -47.507812 -41.503906 -46.445312 -41.269531 -44.9375 -41.027344 C -43.410156 -40.78125 -41.351562 -40.65625 -38.761719 -40.65625 L 1.738281 -40.65625 L 1.738281 -24.695312 L -38.03125 -24.695312 C -40.730469 -24.695312 -42.992188 -24.832031 -44.820312 -25.105469 C -46.632812 -25.378906 -48.007812 -25.644531 -48.949219 -25.910156 L -50.253906 -26.273438 L -49.785156 -27.949219 L -48.046875 -27.949219 L -48.046875 -19.851562 L -49.785156 -19.851562 L -49.269531 -21.511719 L -48.171875 -21.171875 C -47.53125 -20.972656 -46.453125 -20.765625 -44.945312 -20.554688 C -43.421875 -20.339844 -41.363281 -20.230469 -38.761719 -20.230469 L 1.738281 -20.230469 L 1.738281 -4.269531 L -38.03125 -4.269531 C -40.753906 -4.269531 -43.03125 -4.445312 -44.863281 -4.796875 C -46.671875 -5.144531 -48.0625 -5.488281 -49.03125 -5.832031 L -50.363281 -6.300781 L -49.785156 -7.941406 L -48.046875 -7.941406 L -48.046875 -1.96875 L -61.761719 -1.96875 L -61.761719 -44.992188 L -48.046875 -44.992188 Z M -51.523438 -43.253906 L -49.785156 -43.253906 L -49.785156 -41.515625 L -60.023438 -41.515625 L -60.023438 -43.253906 L -58.285156 -43.253906 L -58.285156 -3.710938 L -60.023438 -3.710938 L -60.023438 -5.449219 L -49.785156 -5.449219 L -49.785156 -3.710938 L -51.523438 -3.710938 L -51.523438 -10.398438 L -47.875 -9.109375 C -47.066406 -8.824219 -45.84375 -8.527344 -44.207031 -8.210938 C -42.589844 -7.902344 -40.53125 -7.746094 -38.03125 -7.746094 L 0 -7.746094 L 0 -6.007812 L -1.738281 -6.007812 L -1.738281 -18.492188 L 0 -18.492188 L 0 -16.753906 L -38.761719 -16.753906 C -41.523438 -16.753906 -43.75 -16.875 -45.429688 -17.109375 C -47.125 -17.351562 -48.382812 -17.597656 -49.203125 -17.851562 L -51.523438 -18.570312 L -51.523438 -30.242188 L -48.011719 -29.257812 C -47.207031 -29.03125 -45.972656 -28.796875 -44.304688 -28.542969 C -42.648438 -28.296875 -40.554688 -28.171875 -38.03125 -28.171875 L 0 -28.171875 L 0 -26.433594 L -1.738281 -26.433594 L -1.738281 -38.917969 L 0 -38.917969 L 0 -37.179688 L -38.761719 -37.179688 C -41.535156 -37.179688 -43.78125 -37.316406 -45.492188 -37.59375 C -47.21875 -37.875 -48.492188 -38.164062 -49.3125 -38.460938 L -51.523438 -39.269531 Z M -51.523438 -43.253906 "/></g></g><g style="fill:#000000;fill-opacity:1;"><g transform="translate(72.532558, 364.208658)"><path style="stroke:none" d="M -61.761719 -5.328125 L -61.761719 -39.089844 L 1.738281 -39.089844 L 1.738281 -23.230469 L -49.835938 -23.230469 L -49.835938 -24.972656 L -48.097656 -24.972656 L -48.097656 -3.589844 L -61.761719 -3.589844 Z M -58.285156 -5.328125 L -60.023438 -5.328125 L -60.023438 -7.066406 L -49.835938 -7.066406 L -49.835938 -5.328125 L -51.574219 -5.328125 L -51.574219 -26.710938 L 0 -26.710938 L 0 -24.972656 L -1.738281 -24.972656 L -1.738281 -37.351562 L 0 -37.351562 L 0 -35.613281 L -60.023438 -35.613281 L -60.023438 -37.351562 L -58.285156 -37.351562 Z M 0 -3.695312 L -42.382812 -3.695312 L -42.382812 -19.605469 L 1.738281 -19.605469 L 1.738281 -3.695312 Z M 0 -7.171875 L 0 -5.433594 L -1.738281 -5.433594 L -1.738281 -17.867188 L 0 -17.867188 L 0 -16.128906 L -40.644531 -16.128906 L -40.644531 -17.867188 L -38.902344 -17.867188 L -38.902344 -5.433594 L -40.644531 -5.433594 L -40.644531 -7.171875 Z M 0 -7.171875 "/></g></g><g style="fill:#000000;fill-opacity:1;"><g transform="translate(72.532558, 321.476597)"><path style="stroke:none" d="M -61.761719 -5.328125 L -61.761719 -39.089844 L 1.738281 -39.089844 L 1.738281 -23.230469 L -49.835938 -23.230469 L -49.835938 -24.972656 L -48.097656 -24.972656 L -48.097656 -3.589844 L -61.761719 -3.589844 Z M -58.285156 -5.328125 L -60.023438 -5.328125 L -60.023438 -7.066406 L -49.835938 -7.066406 L -49.835938 -5.328125 L -51.574219 -5.328125 L -51.574219 -26.710938 L 0 -26.710938 L 0 -24.972656 L -1.738281 -24.972656 L -1.738281 -37.351562 L 0 -37.351562 L 0 -35.613281 L -60.023438 -35.613281 L -60.023438 -37.351562 L -58.285156 -37.351562 Z M 0 -3.695312 L -42.382812 -3.695312 L -42.382812 -19.605469 L 1.738281 -19.605469 L 1.738281 -3.695312 Z M 0 -7.171875 L 0 -5.433594 L -1.738281 -5.433594 L -1.738281 -17.867188 L 0 -17.867188 L 0 -16.128906 L -40.644531 -16.128906 L -40.644531 -17.867188 L -38.902344 -17.867188 L -38.902344 -5.433594 L -40.644531 -5.433594 L -40.644531 -7.171875 Z M 0 -7.171875 "/></g></g><g style="fill:#000000;fill-opacity:1;"><g transform="translate(72.532558, 278.74457)"><path style="stroke:none" d=""/></g></g><g style="fill:#000000;fill-opacity:1;"><g transform="translate(72.532558, 261.505456)"><path style="stroke:none" d="M -47.433594 -41.703125 C -43.730469 -41.703125 -40.570312 -41.511719 -37.964844 -41.136719 C -35.339844 -40.753906 -33.105469 -40.261719 -31.269531 -39.65625 C -29.4375 -39.050781 -27.847656 -38.398438 -26.492188 -37.691406 C -25.199219 -37.019531 -24 -36.359375 -22.894531 -35.722656 C -21.894531 -35.136719 -20.832031 -34.628906 -19.714844 -34.191406 C -18.667969 -33.78125 -17.425781 -33.515625 -15.992188 -33.390625 C -14.507812 -33.261719 -12.640625 -33.328125 -10.390625 -33.59375 L -10.1875 -31.867188 L -11.925781 -31.867188 L -11.925781 -37.835938 L 1.738281 -37.835938 L 1.738281 -19.640625 L 0.296875 -19.390625 C -3.828125 -18.679688 -7.378906 -18.289062 -10.355469 -18.21875 C -13.351562 -18.144531 -15.96875 -18.292969 -18.199219 -18.65625 C -20.441406 -19.023438 -22.433594 -19.542969 -24.183594 -20.210938 C -25.867188 -20.859375 -27.464844 -21.546875 -28.972656 -22.285156 C -30.402344 -22.984375 -31.902344 -23.65625 -33.46875 -24.304688 C -34.972656 -24.925781 -36.679688 -25.433594 -38.59375 -25.828125 C -40.496094 -26.222656 -42.78125 -26.417969 -45.449219 -26.417969 C -46.527344 -26.417969 -47.414062 -26.3125 -48.101562 -26.101562 L -49.378906 -25.710938 L -49.890625 -27.375 L -48.152344 -27.375 L -48.152344 -18.285156 L -49.890625 -18.285156 L -49.167969 -19.867188 L -48.019531 -19.34375 C -47.390625 -19.058594 -46.199219 -18.761719 -44.445312 -18.457031 C -42.644531 -18.140625 -40.054688 -17.984375 -36.671875 -17.984375 L 13.164062 -17.984375 L 13.164062 -16.246094 L 11.425781 -16.246094 L 11.425781 -21.902344 L 25.140625 -21.902344 L 25.140625 -2.441406 L -35.785156 -2.441406 C -38.558594 -2.441406 -40.898438 -2.597656 -42.804688 -2.90625 C -44.730469 -3.222656 -46.277344 -3.601562 -47.445312 -4.042969 C -48.617188 -4.484375 -49.488281 -4.882812 -50.058594 -5.242188 L -50.761719 -5.6875 L -49.835938 -7.15625 L -48.097656 -7.15625 L -48.097656 -0.140625 L -61.761719 -0.140625 L -61.761719 -40.199219 L -59.117188 -40.609375 C -58.324219 -40.734375 -57.292969 -40.882812 -56.03125 -41.058594 C -54.746094 -41.238281 -53.355469 -41.390625 -51.863281 -41.511719 C -50.351562 -41.640625 -48.875 -41.703125 -47.433594 -41.703125 Z M -47.433594 -38.226562 C -48.777344 -38.226562 -50.160156 -38.167969 -51.574219 -38.046875 C -53.003906 -37.929688 -54.332031 -37.785156 -55.554688 -37.613281 C -56.796875 -37.441406 -57.808594 -37.296875 -58.582031 -37.175781 L -59.757812 -36.992188 L -60.023438 -38.710938 L -58.285156 -38.710938 L -58.285156 -1.878906 L -60.023438 -1.878906 L -60.023438 -3.621094 L -49.835938 -3.621094 L -49.835938 -1.878906 L -51.574219 -1.878906 L -51.574219 -10.304688 L -48.207031 -8.183594 C -47.835938 -7.949219 -47.171875 -7.652344 -46.21875 -7.292969 C -45.265625 -6.933594 -43.941406 -6.617188 -42.242188 -6.339844 C -40.523438 -6.058594 -38.371094 -5.917969 -35.785156 -5.917969 L 23.402344 -5.917969 L 23.402344 -4.179688 L 21.664062 -4.179688 L 21.664062 -20.164062 L 23.402344 -20.164062 L 23.402344 -18.425781 L 13.164062 -18.425781 L 13.164062 -20.164062 L 14.902344 -20.164062 L 14.902344 -14.507812 L -36.671875 -14.507812 C -40.253906 -14.507812 -43.046875 -14.683594 -45.042969 -15.03125 C -47.085938 -15.386719 -48.558594 -15.769531 -49.460938 -16.179688 L -51.628906 -17.164062 L -51.628906 -28.660156 L -49.117188 -29.429688 C -48.097656 -29.738281 -46.875 -29.894531 -45.449219 -29.894531 C -42.542969 -29.894531 -40.023438 -29.675781 -37.886719 -29.234375 C -35.761719 -28.792969 -33.847656 -28.222656 -32.144531 -27.519531 C -30.507812 -26.84375 -28.941406 -26.140625 -27.445312 -25.410156 C -26.03125 -24.71875 -24.527344 -24.070312 -22.9375 -23.460938 C -21.410156 -22.875 -19.644531 -22.417969 -17.636719 -22.089844 C -15.621094 -21.757812 -13.21875 -21.625 -10.4375 -21.695312 C -7.632812 -21.761719 -4.25 -22.136719 -0.296875 -22.820312 L 0 -21.105469 L -1.738281 -21.105469 L -1.738281 -36.097656 L 0 -36.097656 L 0 -34.359375 L -10.1875 -34.359375 L -10.1875 -36.097656 L -8.449219 -36.097656 L -8.449219 -30.320312 L -9.984375 -30.140625 C -12.46875 -29.847656 -14.574219 -29.777344 -16.292969 -29.925781 C -18.0625 -30.078125 -19.625 -30.421875 -20.980469 -30.953125 C -22.265625 -31.457031 -23.484375 -32.042969 -24.640625 -32.714844 C -25.699219 -33.328125 -26.851562 -33.957031 -28.097656 -34.609375 C -29.285156 -35.226562 -30.707031 -35.808594 -32.359375 -36.355469 C -34.003906 -36.894531 -36.039062 -37.34375 -38.460938 -37.695312 C -40.90625 -38.046875 -43.894531 -38.226562 -47.433594 -38.226562 Z M -47.433594 -38.226562 "/></g></g><g style="fill:#000000;fill-opacity:1;"><g transform="translate(72.532558, 218.355512)"><path style="stroke:none" d="M -61.761719 -2.613281 L -61.761719 -22.582031 L 1.738281 -22.582031 L 1.738281 -6.621094 L -49.835938 -6.621094 L -49.835938 -8.359375 L -48.097656 -8.359375 L -48.097656 -0.875 L -61.761719 -0.875 Z M -58.285156 -2.613281 L -60.023438 -2.613281 L -60.023438 -4.351562 L -49.835938 -4.351562 L -49.835938 -2.613281 L -51.574219 -2.613281 L -51.574219 -10.097656 L 0 -10.097656 L 0 -8.359375 L -1.738281 -8.359375 L -1.738281 -20.84375 L 0 -20.84375 L 0 -19.105469 L -60.023438 -19.105469 L -60.023438 -20.84375 L -58.285156 -20.84375 Z M -58.285156 -2.613281 "/></g></g><g style="fill:#000000;fill-opacity:1;"><g transform="translate(72.532558, 192.601343)"><path style="stroke:none" d="M -48.046875 -43.253906 L -48.046875 -40.484375 L -49.785156 -40.484375 L -49.1875 -42.117188 L -48.117188 -41.726562 C -47.507812 -41.503906 -46.445312 -41.269531 -44.9375 -41.027344 C -43.410156 -40.78125 -41.351562 -40.65625 -38.761719 -40.65625 L 1.738281 -40.65625 L 1.738281 -24.695312 L -38.03125 -24.695312 C -40.730469 -24.695312 -42.992188 -24.832031 -44.820312 -25.105469 C -46.632812 -25.378906 -48.007812 -25.644531 -48.949219 -25.910156 L -50.253906 -26.273438 L -49.785156 -27.949219 L -48.046875 -27.949219 L -48.046875 -19.851562 L -49.785156 -19.851562 L -49.269531 -21.511719 L -48.171875 -21.171875 C -47.53125 -20.972656 -46.453125 -20.765625 -44.945312 -20.554688 C -43.421875 -20.339844 -41.363281 -20.230469 -38.761719 -20.230469 L 1.738281 -20.230469 L 1.738281 -4.269531 L -38.03125 -4.269531 C -40.753906 -4.269531 -43.03125 -4.445312 -44.863281 -4.796875 C -46.671875 -5.144531 -48.0625 -5.488281 -49.03125 -5.832031 L -50.363281 -6.300781 L -49.785156 -7.941406 L -48.046875 -7.941406 L -48.046875 -1.96875 L -61.761719 -1.96875 L -61.761719 -44.992188 L -48.046875 -44.992188 Z M -51.523438 -43.253906 L -49.785156 -43.253906 L -49.785156 -41.515625 L -60.023438 -41.515625 L -60.023438 -43.253906 L -58.285156 -43.253906 L -58.285156 -3.710938 L -60.023438 -3.710938 L -60.023438 -5.449219 L -49.785156 -5.449219 L -49.785156 -3.710938 L -51.523438 -3.710938 L -51.523438 -10.398438 L -47.875 -9.109375 C -47.066406 -8.824219 -45.84375 -8.527344 -44.207031 -8.210938 C -42.589844 -7.902344 -40.53125 -7.746094 -38.03125 -7.746094 L 0 -7.746094 L 0 -6.007812 L -1.738281 -6.007812 L -1.738281 -18.492188 L 0 -18.492188 L 0 -16.753906 L -38.761719 -16.753906 C -41.523438 -16.753906 -43.75 -16.875 -45.429688 -17.109375 C -47.125 -17.351562 -48.382812 -17.597656 -49.203125 -17.851562 L -51.523438 -18.570312 L -51.523438 -30.242188 L -48.011719 -29.257812 C -47.207031 -29.03125 -45.972656 -28.796875 -44.304688 -28.542969 C -42.648438 -28.296875 -40.554688 -28.171875 -38.03125 -28.171875 L 0 -28.171875 L 0 -26.433594 L -1.738281 -26.433594 L -1.738281 -38.917969 L 0 -38.917969 L 0 -37.179688 L -38.761719 -37.179688 C -41.535156 -37.179688 -43.78125 -37.316406 -45.492188 -37.59375 C -47.21875 -37.875 -48.492188 -38.164062 -49.3125 -38.460938 L -51.523438 -39.269531 Z M -51.523438 -43.253906 "/></g></g><g style="fill:#ffffff;fill-opacity:1;"><g transform="translate(72.532558, 515.442502)"><path style="stroke:none" d="M -60.015625 -5.328125 L -60.015625 -37.34375 L 0 -37.34375 L 0 -24.96875 L -49.828125 -24.96875 L -49.828125 -5.328125 Z M 0 -5.4375 L -40.640625 -5.4375 L -40.640625 -17.859375 L 0 -17.859375 Z M 0 -5.4375 "/></g></g><g style="fill:#ffffff;fill-opacity:1;"><g transform="translate(72.532558, 472.710452)"><path style="stroke:none" d="M -60.015625 -1.625 L -60.015625 -14.421875 C -60.015625 -17.617188 -59.335938 -20.15625 -57.984375 -22.03125 C -56.628906 -23.914062 -54.425781 -25.257812 -51.375 -26.0625 C -48.332031 -26.863281 -44.25 -27.265625 -39.125 -27.265625 L 0 -27.265625 L 0 -14.828125 L -38.921875 -14.828125 C -41.910156 -14.828125 -44.1875 -14.628906 -45.75 -14.234375 C -47.320312 -13.835938 -48.394531 -13.175781 -48.96875 -12.25 C -49.539062 -11.320312 -49.828125 -10.0625 -49.828125 -8.46875 L -49.828125 -1.625 Z M -60.015625 -1.625 "/></g></g><g style="fill:#ffffff;fill-opacity:1;"><g transform="translate(72.532558, 440.635295)"><path style="stroke:none" d="M 0 -9.1875 C 0 -9.1875 -0.660156 -9.300781 -1.984375 -9.53125 C -3.304688 -9.757812 -5.191406 -9.992188 -7.640625 -10.234375 C -10.097656 -10.484375 -13.035156 -10.585938 -16.453125 -10.546875 C -18.503906 -10.546875 -20.257812 -10.390625 -21.71875 -10.078125 C -23.1875 -9.765625 -24.53125 -9.40625 -25.75 -9 C -26.96875 -8.601562 -28.226562 -8.222656 -29.53125 -7.859375 C -30.84375 -7.492188 -32.351562 -7.257812 -34.0625 -7.15625 C -37.15625 -6.976562 -40.035156 -7.125 -42.703125 -7.59375 C -45.367188 -8.070312 -47.742188 -8.707031 -49.828125 -9.5 L -49.828125 -2.40625 L -60.015625 -2.40625 L -60.015625 -27.421875 L -49.828125 -27.421875 L -49.828125 -21.421875 C -48.648438 -20.796875 -46.816406 -20.265625 -44.328125 -19.828125 C -41.835938 -19.390625 -38.726562 -19.289062 -35 -19.53125 C -33.4375 -19.632812 -32.070312 -19.828125 -30.90625 -20.109375 C -29.738281 -20.390625 -28.585938 -20.691406 -27.453125 -21.015625 C -26.316406 -21.347656 -25.023438 -21.671875 -23.578125 -21.984375 C -22.140625 -22.304688 -20.335938 -22.535156 -18.171875 -22.671875 C -14.722656 -22.953125 -11.632812 -23.019531 -8.90625 -22.875 C -6.175781 -22.738281 -4.007812 -22.554688 -2.40625 -22.328125 C -0.800781 -22.109375 0 -22 0 -22 Z M 0 -9.1875 "/></g></g><g style="fill:#ffffff;fill-opacity:1;"><g transform="translate(72.532558, 410.963163)"><path style="stroke:none" d="M -49.78125 -43.25 L -49.78125 -40.484375 C -49.78125 -40.484375 -49.421875 -40.351562 -48.703125 -40.09375 C -47.992188 -39.832031 -46.828125 -39.570312 -45.203125 -39.3125 C -43.585938 -39.050781 -41.441406 -38.921875 -38.765625 -38.921875 L 0 -38.921875 L 0 -26.4375 L -38.03125 -26.4375 C -40.644531 -26.4375 -42.820312 -26.566406 -44.5625 -26.828125 C -46.300781 -27.085938 -47.601562 -27.335938 -48.46875 -27.578125 C -49.34375 -27.828125 -49.78125 -27.953125 -49.78125 -27.953125 L -49.78125 -19.84375 C -49.78125 -19.84375 -49.414062 -19.726562 -48.6875 -19.5 C -47.957031 -19.28125 -46.789062 -19.054688 -45.1875 -18.828125 C -43.582031 -18.609375 -41.441406 -18.5 -38.765625 -18.5 L 0 -18.5 L 0 -6 L -38.03125 -6 C -40.644531 -6 -42.8125 -6.164062 -44.53125 -6.5 C -46.257812 -6.832031 -47.566406 -7.15625 -48.453125 -7.46875 C -49.335938 -7.78125 -49.78125 -7.9375 -49.78125 -7.9375 L -49.78125 -3.703125 L -60.015625 -3.703125 L -60.015625 -43.25 Z M -49.78125 -43.25 "/></g></g><g style="fill:#ffffff;fill-opacity:1;"><g transform="translate(72.532558, 364.208658)"><path style="stroke:none" d="M -60.015625 -5.328125 L -60.015625 -37.34375 L 0 -37.34375 L 0 -24.96875 L -49.828125 -24.96875 L -49.828125 -5.328125 Z M 0 -5.4375 L -40.640625 -5.4375 L -40.640625 -17.859375 L 0 -17.859375 Z M 0 -5.4375 "/></g></g><g style="fill:#ffffff;fill-opacity:1;"><g transform="translate(72.532558, 321.476597)"><path style="stroke:none" d="M -60.015625 -5.328125 L -60.015625 -37.34375 L 0 -37.34375 L 0 -24.96875 L -49.828125 -24.96875 L -49.828125 -5.328125 Z M 0 -5.4375 L -40.640625 -5.4375 L -40.640625 -17.859375 L 0 -17.859375 Z M 0 -5.4375 "/></g></g><g style="fill:#ffffff;fill-opacity:1;"><g transform="translate(72.532558, 278.74457)"><path style="stroke:none" d=""/></g></g><g style="fill:#ffffff;fill-opacity:1;"><g transform="translate(72.532558, 261.505456)"><path style="stroke:none" d="M -47.4375 -39.96875 C -43.8125 -39.96875 -40.734375 -39.78125 -38.203125 -39.40625 C -35.679688 -39.039062 -33.550781 -38.570312 -31.8125 -38 C -30.070312 -37.425781 -28.566406 -36.804688 -27.296875 -36.140625 C -26.023438 -35.484375 -24.847656 -34.84375 -23.765625 -34.21875 C -22.691406 -33.59375 -21.550781 -33.039062 -20.34375 -32.5625 C -19.144531 -32.09375 -17.742188 -31.789062 -16.140625 -31.65625 C -14.535156 -31.519531 -12.550781 -31.585938 -10.1875 -31.859375 L -10.1875 -36.09375 L 0 -36.09375 L 0 -21.109375 C -4.039062 -20.410156 -7.503906 -20.023438 -10.390625 -19.953125 C -13.285156 -19.878906 -15.796875 -20.015625 -17.921875 -20.359375 C -20.046875 -20.710938 -21.925781 -21.203125 -23.5625 -21.828125 C -25.195312 -22.460938 -26.742188 -23.132812 -28.203125 -23.84375 C -29.671875 -24.5625 -31.203125 -25.25 -32.796875 -25.90625 C -34.398438 -26.570312 -36.210938 -27.113281 -38.234375 -27.53125 C -40.253906 -27.945312 -42.660156 -28.15625 -45.453125 -28.15625 C -46.703125 -28.15625 -47.753906 -28.023438 -48.609375 -27.765625 C -49.460938 -27.503906 -49.890625 -27.375 -49.890625 -27.375 L -49.890625 -18.28125 C -49.890625 -18.28125 -49.503906 -18.101562 -48.734375 -17.75 C -47.972656 -17.40625 -46.640625 -17.066406 -44.734375 -16.734375 C -42.835938 -16.410156 -40.148438 -16.25 -36.671875 -16.25 L 13.171875 -16.25 L 13.171875 -20.15625 L 23.40625 -20.15625 L 23.40625 -4.171875 L -35.78125 -4.171875 C -38.46875 -4.171875 -40.710938 -4.316406 -42.515625 -4.609375 C -44.328125 -4.910156 -45.765625 -5.257812 -46.828125 -5.65625 C -47.890625 -6.0625 -48.65625 -6.410156 -49.125 -6.703125 C -49.59375 -7.003906 -49.828125 -7.15625 -49.828125 -7.15625 L -49.828125 -1.875 L -60.015625 -1.875 L -60.015625 -38.703125 C -60.015625 -38.703125 -59.625 -38.765625 -58.84375 -38.890625 C -58.0625 -39.015625 -57.039062 -39.160156 -55.78125 -39.328125 C -54.53125 -39.503906 -53.171875 -39.65625 -51.703125 -39.78125 C -50.242188 -39.90625 -48.820312 -39.96875 -47.4375 -39.96875 Z M -47.4375 -39.96875 "/></g></g><g style="fill:#ffffff;fill-opacity:1;"><g transform="translate(72.532558, 218.355512)"><path style="stroke:none" d="M -60.015625 -2.609375 L -60.015625 -20.84375 L 0 -20.84375 L 0 -8.359375 L -49.828125 -8.359375 L -49.828125 -2.609375 Z M -60.015625 -2.609375 "/></g></g><g style="fill:#ffffff;fill-opacity:1;"><g transform="translate(72.532558, 192.601343)"><path style="stroke:none" d="M -49.78125 -43.25 L -49.78125 -40.484375 C -49.78125 -40.484375 -49.421875 -40.351562 -48.703125 -40.09375 C -47.992188 -39.832031 -46.828125 -39.570312 -45.203125 -39.3125 C -43.585938 -39.050781 -41.441406 -38.921875 -38.765625 -38.921875 L 0 -38.921875 L 0 -26.4375 L -38.03125 -26.4375 C -40.644531 -26.4375 -42.820312 -26.566406 -44.5625 -26.828125 C -46.300781 -27.085938 -47.601562 -27.335938 -48.46875 -27.578125 C -49.34375 -27.828125 -49.78125 -27.953125 -49.78125 -27.953125 L -49.78125 -19.84375 C -49.78125 -19.84375 -49.414062 -19.726562 -48.6875 -19.5 C -47.957031 -19.28125 -46.789062 -19.054688 -45.1875 -18.828125 C -43.582031 -18.609375 -41.441406 -18.5 -38.765625 -18.5 L 0 -18.5 L 0 -6 L -38.03125 -6 C -40.644531 -6 -42.8125 -6.164062 -44.53125 -6.5 C -46.257812 -6.832031 -47.566406 -7.15625 -48.453125 -7.46875 C -49.335938 -7.78125 -49.78125 -7.9375 -49.78125 -7.9375 L -49.78125 -3.703125 L -60.015625 -3.703125 L -60.015625 -43.25 Z M -49.78125 -43.25 "/></g></g></g></svg>