<svg xmlns="http://www.w3.org/2000/svg" xmlns:xlink="http://www.w3.org/1999/xlink" width="1366" zoomAndPan="magnify" viewBox="0 0 1024.5 576" height="768" preserveAspectRatio="xMidYMid meet" version="1.2"><defs><clipPath id="ef5a0e1b56"><path d="M 0 0.140625 L 91.84375 0.140625 L 91.84375 575.859375 L 0 575.859375 Z M 0 0.140625 "/></clipPath><clipPath id="40a4411306"><path d="M 1.570312 44.269531 L 90 44.269531 L 90 116.234375 L 1.570312 116.234375 Z M 1.570312 44.269531 "/></clipPath></defs><g id="915e753182"><g clip-rule="nonzero" clip-path="url(#ef5a0e1b56)"><path style=" stroke:none;fill-rule:nonzero;fill:#7c4756;fill-opacity:1;" d="M 0 0.140625 L 91.84375 0.140625 L 91.84375 575.96875 L 0 575.96875 Z M 0 0.140625 "/></g><g style="fill:#000000;fill-opacity:1;"><g transform="translate(79.855172, 444.884981)"><path style="stroke:none" d="M -0.0976562 -25.722656 L 5.464844 -2.5625 L -10.964844 1.054688 L -13.136719 -8.601562 L -11.191406 -9.039062 L -10.640625 -7.125 C -14.589844 -5.984375 -18.632812 -5.089844 -22.765625 -4.4375 C -26.914062 -3.78125 -31.023438 -3.445312 -35.09375 -3.425781 C -39.195312 -3.402344 -43.175781 -3.765625 -47.035156 -4.507812 C -50.941406 -5.261719 -54.589844 -6.472656 -57.984375 -8.148438 L -57.101562 -9.9375 L -55.109375 -9.9375 L -55.109375 -1.898438 L -70.765625 -1.898438 L -70.765625 -47.003906 L 1.992188 -47.003906 L 1.992188 -28.832031 L -57.160156 -28.832031 L -57.160156 -30.824219 L -55.167969 -30.824219 L -55.167969 -23.640625 L -57.160156 -23.640625 L -56.238281 -25.410156 C -53.671875 -24.070312 -50.71875 -23.117188 -47.371094 -22.554688 C -43.933594 -21.976562 -40.289062 -21.695312 -36.429688 -21.714844 C -32.542969 -21.734375 -28.613281 -21.996094 -24.644531 -22.507812 C -20.648438 -23.019531 -16.761719 -23.675781 -12.984375 -24.484375 C -9.214844 -25.289062 -5.761719 -26.179688 -2.628906 -27.160156 L -0.59375 -27.796875 Z M -3.972656 -24.792969 L -2.035156 -25.257812 L -1.441406 -23.355469 C -4.691406 -22.339844 -8.261719 -21.417969 -12.152344 -20.585938 C -16.039062 -19.757812 -20.03125 -19.078125 -24.136719 -18.554688 C -28.269531 -18.023438 -32.359375 -17.75 -36.410156 -17.730469 C -40.496094 -17.710938 -44.371094 -18.007812 -48.035156 -18.625 C -51.792969 -19.257812 -55.144531 -20.34375 -58.082031 -21.875 L -59.152344 -22.433594 L -59.152344 -32.816406 L 0 -32.816406 L 0 -30.824219 L -1.992188 -30.824219 L -1.992188 -45.011719 L 0 -45.011719 L 0 -43.019531 L -68.773438 -43.019531 L -68.773438 -45.011719 L -66.78125 -45.011719 L -66.78125 -3.890625 L -68.773438 -3.890625 L -68.773438 -5.882812 L -57.101562 -5.882812 L -57.101562 -3.890625 L -59.09375 -3.890625 L -59.09375 -13.140625 L -56.21875 -11.722656 C -53.148438 -10.207031 -49.835938 -9.105469 -46.28125 -8.421875 C -42.675781 -7.726562 -38.953125 -7.390625 -35.113281 -7.410156 C -31.246094 -7.429688 -27.335938 -7.75 -23.382812 -8.371094 C -19.414062 -8.996094 -15.535156 -9.859375 -11.746094 -10.953125 L -9.714844 -11.539062 L -7.511719 -1.753906 L -9.457031 -1.316406 L -9.886719 -3.261719 L 2.625 -6.015625 L 3.050781 -4.070312 L 1.117188 -3.605469 Z M -3.972656 -24.792969 "/></g></g><g style="fill:#000000;fill-opacity:1;"><g transform="translate(79.855172, 393.769619)"><path style="stroke:none" d="M -70.765625 -2.992188 L -70.765625 -25.875 L 1.992188 -25.875 L 1.992188 -7.585938 L -57.101562 -7.585938 L -57.101562 -9.578125 L -55.109375 -9.578125 L -55.109375 -1 L -70.765625 -1 Z M -66.78125 -2.992188 L -68.773438 -2.992188 L -68.773438 -4.984375 L -57.101562 -4.984375 L -57.101562 -2.992188 L -59.09375 -2.992188 L -59.09375 -11.570312 L 0 -11.570312 L 0 -9.578125 L -1.992188 -9.578125 L -1.992188 -23.882812 L 0 -23.882812 L 0 -21.890625 L -68.773438 -21.890625 L -68.773438 -23.882812 L -66.78125 -23.882812 Z M -66.78125 -2.992188 "/></g></g><g style="fill:#000000;fill-opacity:1;"><g transform="translate(79.855172, 364.26157)"><path style="stroke:none" d="M -12.238281 -39.914062 L -11.878906 -39.972656 L -11.550781 -38.007812 L -13.542969 -38.007812 C -13.542969 -38.929688 -13.632812 -39.902344 -13.8125 -40.925781 C -13.964844 -41.78125 -14.316406 -42.621094 -14.875 -43.441406 C -15.421875 -44.242188 -16.296875 -44.988281 -17.503906 -45.671875 C -18.792969 -46.40625 -20.589844 -47 -22.894531 -47.457031 C -25.277344 -47.929688 -28.34375 -48.167969 -32.082031 -48.167969 L -57.160156 -48.167969 L -57.160156 -50.15625 L -55.167969 -50.15625 L -55.167969 -44.574219 L -70.765625 -44.574219 L -70.765625 -65.917969 L -31.84375 -65.917969 C -25.152344 -65.917969 -19.640625 -65.292969 -15.308594 -64.042969 C -10.820312 -62.746094 -7.292969 -60.777344 -4.734375 -58.125 C -2.171875 -55.476562 -0.398438 -52.183594 0.585938 -48.246094 C 1.523438 -44.496094 1.992188 -40.125 1.992188 -35.132812 L 1.992188 -5.25 L -57.101562 -5.25 L -57.101562 -7.242188 L -55.109375 -7.242188 L -55.109375 -1.957031 L -70.765625 -1.957031 L -70.765625 -21.1875 L -66.78125 -21.1875 L -66.78125 -21.070312 L -68.773438 -21.070312 L -68.777344 -23.0625 L -11.496094 -23.179688 L -11.492188 -21.1875 L -13.484375 -21.1875 C -13.484375 -22.664062 -13.691406 -23.8125 -14.105469 -24.625 C -14.414062 -25.234375 -15.070312 -25.703125 -16.066406 -26.03125 C -17.378906 -26.460938 -19.367188 -26.679688 -22.027344 -26.679688 L -57.160156 -26.679688 L -57.160156 -28.671875 L -55.167969 -28.671875 L -55.167969 -22.789062 L -70.765625 -22.789062 L -70.765625 -44.488281 L -33.457031 -44.488281 C -29.339844 -44.488281 -25.851562 -44.386719 -22.992188 -44.183594 C -20 -43.972656 -17.519531 -43.515625 -15.554688 -42.816406 C -13.398438 -42.050781 -11.664062 -40.839844 -10.351562 -39.1875 L -11.910156 -37.949219 Z M -11.582031 -35.984375 L -12.742188 -35.789062 L -13.472656 -36.707031 C -14.3125 -37.769531 -15.449219 -38.550781 -16.886719 -39.0625 C -18.511719 -39.640625 -20.640625 -40.023438 -23.273438 -40.210938 C -26.039062 -40.40625 -29.4375 -40.503906 -33.457031 -40.503906 L -68.773438 -40.503906 L -68.773438 -42.496094 L -66.78125 -42.496094 L -66.78125 -24.78125 L -68.773438 -24.78125 L -68.773438 -26.773438 L -57.160156 -26.773438 L -57.160156 -24.78125 L -59.152344 -24.78125 L -59.152344 -30.664062 L -22.027344 -30.664062 C -18.941406 -30.664062 -16.539062 -30.378906 -14.820312 -29.816406 C -12.785156 -29.144531 -11.363281 -28.015625 -10.554688 -26.433594 C -9.851562 -25.050781 -9.5 -23.304688 -9.5 -21.1875 L -9.5 -19.199219 L -70.765625 -19.074219 L -70.765625 -21.1875 L -66.78125 -21.1875 L -66.78125 -3.949219 L -68.773438 -3.949219 L -68.773438 -5.941406 L -57.101562 -5.941406 L -57.101562 -3.949219 L -59.09375 -3.949219 L -59.09375 -9.234375 L 0 -9.234375 L 0 -7.242188 L -1.992188 -7.242188 L -1.992188 -35.132812 C -1.992188 -39.800781 -2.421875 -43.847656 -3.28125 -47.28125 C -4.089844 -50.527344 -5.53125 -53.21875 -7.597656 -55.359375 C -9.664062 -57.496094 -12.605469 -59.117188 -16.414062 -60.214844 C -20.382812 -61.359375 -25.527344 -61.933594 -31.84375 -61.933594 L -68.773438 -61.933594 L -68.773438 -63.925781 L -66.78125 -63.925781 L -66.78125 -46.566406 L -68.773438 -46.566406 L -68.773438 -48.558594 L -57.160156 -48.558594 L -57.160156 -46.566406 L -59.152344 -46.566406 L -59.152344 -52.148438 L -32.082031 -52.148438 C -28.082031 -52.148438 -24.757812 -51.886719 -22.117188 -51.363281 C -19.394531 -50.824219 -17.199219 -50.082031 -15.535156 -49.136719 C -13.789062 -48.148438 -12.472656 -46.996094 -11.578125 -45.679688 C -10.703125 -44.386719 -10.136719 -43.03125 -9.890625 -41.613281 C -9.667969 -40.363281 -9.558594 -39.160156 -9.558594 -38.007812 L -9.558594 -36.320312 Z M -11.582031 -35.984375 "/></g></g><g style="fill:#000000;fill-opacity:1;"><g transform="translate(79.855172, 296.087802)"><path style="stroke:none" d="M -57.101562 0.316406 L -70.765625 0.316406 L -70.765625 -38.265625 L -55.109375 -38.265625 L -55.109375 -31.125 L -57.101562 -31.125 L -56.472656 -33.015625 L -55.394531 -32.65625 C -54.792969 -32.453125 -53.675781 -32.242188 -52.042969 -32.019531 C -50.378906 -31.792969 -48.054688 -31.679688 -45.070312 -31.679688 L 1.992188 -31.679688 L 1.992188 -13.332031 L -44.234375 -13.332031 C -47.355469 -13.332031 -49.929688 -13.53125 -51.957031 -13.9375 C -53.984375 -14.34375 -55.507812 -14.761719 -56.53125 -15.195312 L -57.875 -15.761719 L -57.101562 -17.597656 L -55.109375 -17.597656 L -55.109375 0.316406 Z M -57.101562 -3.667969 L -57.101562 -1.675781 L -59.09375 -1.675781 L -59.09375 -20.601562 L -54.980469 -18.863281 C -54.207031 -18.539062 -52.9375 -18.199219 -51.175781 -17.84375 C -49.40625 -17.492188 -47.09375 -17.316406 -44.234375 -17.316406 L 0 -17.316406 L 0 -15.324219 L -1.992188 -15.324219 L -1.992188 -29.6875 L 0 -29.6875 L 0 -27.695312 L -45.070312 -27.695312 C -48.234375 -27.695312 -50.738281 -27.820312 -52.582031 -28.074219 C -54.460938 -28.328125 -55.816406 -28.597656 -56.652344 -28.875 L -59.09375 -29.6875 L -59.09375 -36.273438 L -57.101562 -36.273438 L -57.101562 -34.28125 L -68.773438 -34.28125 L -68.773438 -36.273438 L -66.78125 -36.273438 L -66.78125 -1.675781 L -68.773438 -1.675781 L -68.773438 -3.667969 Z M -57.101562 -3.667969 "/></g></g><g style="fill:#000000;fill-opacity:1;"><g transform="translate(79.855172, 258.020624)"><path style="stroke:none" d="M -70.765625 -3.589844 L -70.765625 -23.121094 L -33.9375 -23.121094 C -30.253906 -23.121094 -27.101562 -23.257812 -24.476562 -23.527344 C -21.921875 -23.792969 -19.695312 -24.234375 -17.792969 -24.847656 C -15.921875 -25.453125 -14.160156 -26.289062 -12.511719 -27.351562 L -11.433594 -25.675781 L -13.425781 -25.675781 C -13.425781 -26.257812 -13.53125 -26.6875 -13.75 -26.964844 C -13.816406 -27.046875 -13.949219 -27.140625 -14.148438 -27.238281 C -14.46875 -27.398438 -14.890625 -27.539062 -15.417969 -27.652344 C -16.652344 -27.921875 -18.5 -28.054688 -20.949219 -28.054688 L -57.101562 -28.054688 L -57.101562 -30.046875 L -55.109375 -30.046875 L -55.109375 -23.566406 L -70.765625 -23.566406 L -70.765625 -46.226562 L -27.355469 -46.226562 C -21.683594 -46.226562 -17 -45.875 -13.304688 -45.171875 C -9.421875 -44.433594 -6.371094 -43.210938 -4.144531 -41.503906 C -1.839844 -39.734375 -0.226562 -37.417969 0.699219 -34.550781 C 1.5625 -31.875 1.992188 -28.621094 1.992188 -24.78125 L 1.992188 -1.539062 L -13.722656 -1.539062 L -13.722656 -11.851562 L -11.730469 -11.851562 L -10.773438 -10.105469 C -12.917969 -8.925781 -15.070312 -7.988281 -17.222656 -7.292969 C -19.390625 -6.589844 -21.871094 -6.09375 -24.660156 -5.800781 C -27.382812 -5.511719 -30.695312 -5.371094 -34.597656 -5.371094 L -57.097656 -5.308594 L -57.101562 -7.300781 L -55.109375 -7.300781 L -55.109375 -1.597656 L -70.765625 -1.597656 Z M -66.78125 -3.589844 L -68.773438 -3.589844 L -68.773438 -5.582031 L -57.101562 -5.582031 L -57.101562 -3.589844 L -59.09375 -3.589844 L -59.09375 -9.289062 L -34.597656 -9.355469 C -30.835938 -9.355469 -27.664062 -9.488281 -25.078125 -9.761719 C -22.5625 -10.027344 -20.351562 -10.46875 -18.449219 -11.082031 C -16.535156 -11.703125 -14.613281 -12.539062 -12.691406 -13.597656 L -9.738281 -15.21875 L -9.738281 -3.53125 L -11.730469 -3.53125 L -11.730469 -5.523438 L 0 -5.523438 L 0 -3.53125 L -1.992188 -3.53125 L -1.992188 -24.78125 C -1.992188 -28.203125 -2.359375 -31.050781 -3.09375 -33.324219 C -3.765625 -35.40625 -4.921875 -37.078125 -6.570312 -38.34375 C -8.292969 -39.667969 -10.789062 -40.636719 -14.046875 -41.257812 C -17.496094 -41.914062 -21.933594 -42.242188 -27.355469 -42.242188 L -68.773438 -42.242188 L -68.773438 -44.234375 L -66.78125 -44.234375 L -66.78125 -25.558594 L -68.773438 -25.558594 L -68.773438 -27.550781 L -57.101562 -27.550781 L -57.101562 -25.558594 L -59.09375 -25.558594 L -59.09375 -32.039062 L -20.949219 -32.039062 C -18.210938 -32.039062 -16.085938 -31.875 -14.570312 -31.542969 C -12.726562 -31.144531 -11.40625 -30.433594 -10.609375 -29.417969 C -9.832031 -28.417969 -9.441406 -27.171875 -9.441406 -25.675781 L -9.441406 -24.589844 L -10.351562 -24.003906 C -12.292969 -22.753906 -14.363281 -21.769531 -16.566406 -21.058594 C -18.734375 -20.359375 -21.234375 -19.859375 -24.066406 -19.566406 C -26.828125 -19.28125 -30.117188 -19.136719 -33.9375 -19.136719 L -68.773438 -19.136719 L -68.773438 -21.128906 L -66.78125 -21.128906 Z M -66.78125 -3.589844 "/></g></g><g style="fill:#ffffff;fill-opacity:1;"><g transform="translate(79.855172, 444.884981)"><path style="stroke:none" d="M -2.03125 -25.25 L 3.046875 -4.0625 L -9.453125 -1.3125 L -11.1875 -9.03125 C -15.0625 -7.914062 -19.019531 -7.039062 -23.0625 -6.40625 C -27.113281 -5.769531 -31.125 -5.441406 -35.09375 -5.421875 C -39.070312 -5.398438 -42.925781 -5.75 -46.65625 -6.46875 C -50.382812 -7.1875 -53.863281 -8.34375 -57.09375 -9.9375 L -57.09375 -3.890625 L -68.765625 -3.890625 L -68.765625 -45.015625 L 0 -45.015625 L 0 -30.828125 L -57.15625 -30.828125 L -57.15625 -23.640625 C -54.40625 -22.203125 -51.253906 -21.179688 -47.703125 -20.578125 C -44.148438 -19.984375 -40.390625 -19.695312 -36.421875 -19.71875 C -32.453125 -19.738281 -28.441406 -20.007812 -24.390625 -20.53125 C -20.335938 -21.050781 -16.394531 -21.71875 -12.5625 -22.53125 C -8.738281 -23.351562 -5.226562 -24.257812 -2.03125 -25.25 Z M -2.03125 -25.25 "/></g></g><g style="fill:#ffffff;fill-opacity:1;"><g transform="translate(79.855172, 393.769619)"><path style="stroke:none" d="M -68.765625 -3 L -68.765625 -23.875 L 0 -23.875 L 0 -9.578125 L -57.09375 -9.578125 L -57.09375 -3 Z M -68.765625 -3 "/></g></g><g style="fill:#ffffff;fill-opacity:1;"><g transform="translate(79.855172, 364.26157)"><path style="stroke:none" d="M -11.90625 -37.953125 L -11.546875 -38 C -11.546875 -39.039062 -11.644531 -40.128906 -11.84375 -41.265625 C -12.050781 -42.398438 -12.515625 -43.492188 -13.234375 -44.546875 C -13.953125 -45.609375 -15.046875 -46.554688 -16.515625 -47.390625 C -17.992188 -48.234375 -19.988281 -48.90625 -22.5 -49.40625 C -25.019531 -49.90625 -28.210938 -50.15625 -32.078125 -50.15625 L -57.15625 -50.15625 L -57.15625 -46.5625 L -68.765625 -46.5625 L -68.765625 -63.921875 L -31.84375 -63.921875 C -25.332031 -63.921875 -20.003906 -63.320312 -15.859375 -62.125 C -11.710938 -60.925781 -8.476562 -59.128906 -6.15625 -56.734375 C -3.84375 -54.347656 -2.238281 -51.359375 -1.34375 -47.765625 C -0.445312 -44.171875 0 -39.960938 0 -35.140625 L 0 -7.234375 L -57.09375 -7.234375 L -57.09375 -3.953125 L -68.765625 -3.953125 L -68.765625 -21.1875 L -68.765625 -21.0625 L -11.484375 -21.1875 C -11.484375 -22.976562 -11.765625 -24.421875 -12.328125 -25.515625 C -12.890625 -26.617188 -13.925781 -27.421875 -15.4375 -27.921875 C -16.957031 -28.421875 -19.15625 -28.671875 -22.03125 -28.671875 L -57.15625 -28.671875 L -57.15625 -24.78125 L -68.765625 -24.78125 L -68.765625 -42.5 L -33.453125 -42.5 C -29.390625 -42.5 -25.945312 -42.394531 -23.125 -42.1875 C -20.3125 -41.988281 -18.007812 -41.570312 -16.21875 -40.9375 C -14.425781 -40.300781 -12.988281 -39.304688 -11.90625 -37.953125 Z M -11.90625 -37.953125 "/></g></g><g style="fill:#ffffff;fill-opacity:1;"><g transform="translate(79.855172, 296.087802)"><path style="stroke:none" d="M -57.09375 -1.671875 L -68.765625 -1.671875 L -68.765625 -36.265625 L -57.09375 -36.265625 L -57.09375 -31.125 C -57.09375 -31.125 -56.734375 -31.003906 -56.015625 -30.765625 C -55.296875 -30.523438 -54.054688 -30.285156 -52.296875 -30.046875 C -50.546875 -29.804688 -48.132812 -29.6875 -45.0625 -29.6875 L 0 -29.6875 L 0 -15.328125 L -44.234375 -15.328125 C -47.222656 -15.328125 -49.664062 -15.515625 -51.5625 -15.890625 C -53.457031 -16.265625 -54.851562 -16.640625 -55.75 -17.015625 C -56.644531 -17.398438 -57.09375 -17.59375 -57.09375 -17.59375 Z M -57.09375 -1.671875 "/></g></g><g style="fill:#ffffff;fill-opacity:1;"><g transform="translate(79.855172, 258.020624)"><path style="stroke:none" d="M -68.765625 -3.59375 L -68.765625 -21.125 L -33.9375 -21.125 C -30.1875 -21.125 -26.960938 -21.265625 -24.265625 -21.546875 C -21.578125 -21.828125 -19.210938 -22.296875 -17.171875 -22.953125 C -15.140625 -23.609375 -13.226562 -24.515625 -11.4375 -25.671875 C -11.4375 -26.710938 -11.679688 -27.550781 -12.171875 -28.1875 C -12.671875 -28.820312 -13.609375 -29.289062 -14.984375 -29.59375 C -16.367188 -29.894531 -18.359375 -30.046875 -20.953125 -30.046875 L -57.09375 -30.046875 L -57.09375 -25.5625 L -68.765625 -25.5625 L -68.765625 -44.234375 L -27.359375 -44.234375 C -21.804688 -44.234375 -17.242188 -43.894531 -13.671875 -43.21875 C -10.097656 -42.539062 -7.320312 -41.441406 -5.34375 -39.921875 C -3.375 -38.398438 -1.988281 -36.398438 -1.1875 -33.921875 C -0.394531 -31.453125 0 -28.40625 0 -24.78125 L 0 -3.53125 L -11.734375 -3.53125 L -11.734375 -11.84375 C -13.765625 -10.726562 -15.796875 -9.84375 -17.828125 -9.1875 C -19.867188 -8.53125 -22.210938 -8.0625 -24.859375 -7.78125 C -27.515625 -7.5 -30.757812 -7.359375 -34.59375 -7.359375 L -57.09375 -7.296875 L -57.09375 -3.59375 Z M -68.765625 -3.59375 "/></g></g><g clip-rule="nonzero" clip-path="url(#40a4411306)"><path style=" stroke:none;fill-rule:nonzero;fill:#000000;fill-opacity:1;" d="M 83.082031 103.257812 L 83.71875 102.617188 C 84.019531 102.3125 84.019531 101.820312 83.71875 101.515625 L 64.835938 82.382812 L 66.417969 82.382812 L 84.496094 100.707031 C 84.644531 100.855469 84.84375 100.9375 85.050781 100.9375 C 85.261719 100.9375 85.460938 100.855469 85.609375 100.707031 L 86.226562 100.082031 L 87.789062 104.859375 Z M 60.269531 80.816406 L 48.566406 80.816406 L 48.566406 79.691406 L 82.046875 79.691406 C 82.480469 79.691406 82.828125 79.34375 82.828125 78.910156 L 82.828125 78.019531 L 87.277344 80.253906 L 82.828125 82.492188 L 82.828125 81.601562 C 82.828125 81.167969 82.480469 80.816406 82.046875 80.816406 Z M 46.59375 98.203125 C 46.753906 97.492188 46.898438 96.8125 47.019531 96.152344 L 60.59375 82.382812 L 62.207031 82.382812 Z M 38.890625 114.675781 L 36.570312 114.675781 C 31.359375 104.921875 28.492188 92.71875 28.492188 80.253906 C 28.492188 67.792969 31.359375 55.589844 36.570312 45.835938 L 38.890625 45.835938 C 44.121094 55.570312 47 67.769531 47 80.253906 C 47 92.738281 44.121094 104.941406 38.890625 114.675781 Z M 3.148438 106.695312 L 3.148438 105.539062 L 30.929688 105.539062 C 31.027344 105.816406 31.128906 106.09375 31.230469 106.371094 C 31.265625 106.480469 31.304688 106.585938 31.34375 106.695312 Z M 3.148438 54.972656 L 3.148438 53.816406 L 31.34375 53.816406 C 31.308594 53.917969 31.269531 54.023438 31.234375 54.125 C 31.132812 54.40625 31.03125 54.691406 30.929688 54.972656 Z M 58.398438 82.382812 L 47.507812 93.433594 C 48.082031 89.84375 48.414062 86.148438 48.507812 82.382812 Z M 47.507812 67.078125 L 58.398438 78.128906 L 48.507812 78.128906 C 48.414062 74.359375 48.082031 70.667969 47.507812 67.078125 Z M 62.207031 78.128906 L 60.59375 78.128906 L 47.019531 64.355469 C 46.898438 63.695312 46.753906 63.015625 46.59375 62.304688 Z M 83.71875 58.996094 C 84.019531 58.691406 84.019531 58.199219 83.71875 57.894531 L 83.082031 57.25 L 87.789062 55.652344 L 86.226562 60.425781 L 85.609375 59.804688 C 85.460938 59.65625 85.261719 59.574219 85.050781 59.574219 C 84.84375 59.574219 84.644531 59.65625 84.496094 59.804688 L 66.417969 78.128906 L 64.835938 78.128906 Z M 26.925781 80.816406 L 3.148438 80.816406 L 3.148438 79.691406 L 26.925781 79.691406 Z M 87.3125 98.378906 C 87.230469 98.121094 87.015625 97.925781 86.75 97.863281 C 86.480469 97.800781 86.207031 97.878906 86.015625 98.070312 L 85.054688 99.042969 L 68.613281 82.382812 L 81.265625 82.382812 L 81.265625 83.757812 C 81.265625 84.03125 81.40625 84.28125 81.636719 84.425781 C 81.761719 84.503906 81.90625 84.542969 82.046875 84.542969 C 82.167969 84.542969 82.289062 84.515625 82.398438 84.457031 L 89.371094 80.953125 C 89.632812 80.820312 89.800781 80.550781 89.800781 80.253906 C 89.800781 79.960938 89.632812 79.6875 89.367188 79.554688 L 82.398438 76.050781 C 82.15625 75.929688 81.867188 75.941406 81.636719 76.085938 C 81.40625 76.226562 81.265625 76.480469 81.265625 76.75 L 81.265625 78.128906 L 68.613281 78.128906 L 85.054688 61.464844 L 86.015625 62.4375 C 86.207031 62.632812 86.484375 62.710938 86.75 62.648438 C 87.015625 62.585938 87.230469 62.390625 87.3125 62.128906 L 89.761719 54.652344 C 89.855469 54.371094 89.777344 54.0625 89.566406 53.851562 C 89.355469 53.644531 89.046875 53.574219 88.765625 53.667969 L 81.394531 56.171875 C 81.136719 56.257812 80.945312 56.46875 80.882812 56.734375 C 80.820312 56.996094 80.898438 57.269531 81.089844 57.460938 L 82.0625 58.445312 L 63.519531 77.234375 L 45.832031 59.308594 C 44.421875 54.097656 42.503906 49.167969 40.042969 44.675781 C 39.90625 44.425781 39.640625 44.269531 39.355469 44.269531 L 36.105469 44.269531 C 35.816406 44.269531 35.554688 44.425781 35.417969 44.679688 C 34.105469 47.085938 32.949219 49.625 31.933594 52.25 L 2.367188 52.25 C 1.933594 52.25 1.582031 52.601562 1.582031 53.03125 L 1.582031 55.753906 C 1.582031 56.1875 1.933594 56.539062 2.367188 56.539062 L 30.4375 56.539062 C 28.328125 63.269531 27.171875 70.554688 26.984375 78.128906 L 2.367188 78.128906 C 1.933594 78.128906 1.582031 78.476562 1.582031 78.910156 L 1.582031 81.601562 C 1.582031 82.03125 1.933594 82.382812 2.367188 82.382812 L 26.984375 82.382812 C 27.171875 89.957031 28.328125 97.242188 30.4375 103.972656 L 2.367188 103.972656 C 1.933594 103.972656 1.582031 104.324219 1.582031 104.753906 L 1.582031 107.476562 C 1.582031 107.910156 1.933594 108.261719 2.367188 108.261719 L 31.933594 108.261719 C 32.949219 110.886719 34.105469 113.421875 35.417969 115.832031 C 35.554688 116.082031 35.816406 116.238281 36.105469 116.238281 L 39.355469 116.238281 C 39.640625 116.238281 39.90625 116.082031 40.042969 115.832031 C 42.503906 111.339844 44.421875 106.414062 45.832031 101.203125 L 63.519531 83.277344 L 82.0625 102.0625 L 81.089844 103.046875 C 80.898438 103.238281 80.820312 103.515625 80.882812 103.777344 C 80.945312 104.039062 81.136719 104.25 81.394531 104.339844 L 88.765625 106.84375 C 88.847656 106.871094 88.933594 106.882812 89.015625 106.882812 C 89.21875 106.882812 89.417969 106.804688 89.566406 106.65625 C 89.777344 106.449219 89.855469 106.140625 89.761719 105.859375 L 87.3125 98.378906 "/></g><path style=" stroke:none;fill-rule:nonzero;fill:#000000;fill-opacity:1;" d="M 41.191406 59.011719 C 41.074219 58.597656 40.636719 58.355469 40.226562 58.476562 C 39.808594 58.59375 39.570312 59.027344 39.6875 59.445312 C 43.355469 72.238281 43.359375 88.613281 39.691406 101.15625 C 39.570312 101.570312 39.808594 102.007812 40.222656 102.125 C 40.292969 102.148438 40.367188 102.160156 40.441406 102.160156 C 40.78125 102.160156 41.09375 101.9375 41.191406 101.597656 C 44.9375 88.789062 44.9375 72.074219 41.191406 59.011719 "/></g></svg>