<svg xmlns="http://www.w3.org/2000/svg" xmlns:xlink="http://www.w3.org/1999/xlink" width="1366" zoomAndPan="magnify" viewBox="0 0 1024.5 576" height="768" preserveAspectRatio="xMidYMid meet" version="1.2"><defs><clipPath id="cf9f69c9b9"><path d="M 0 0.140625 L 91.84375 0.140625 L 91.84375 575.859375 L 0 575.859375 Z M 0 0.140625 "/></clipPath><clipPath id="bec08cb027"><path d="M 1.570312 44.269531 L 90 44.269531 L 90 116.234375 L 1.570312 116.234375 Z M 1.570312 44.269531 "/></clipPath><clipPath id="def96f92ec"><path d="M 932.519531 479 L 999.988281 479 L 999.988281 525 L 932.519531 525 Z M 932.519531 479 "/></clipPath><clipPath id="80eb8b16cd"><path d="M 942 473.492188 L 991 473.492188 L 991 522 L 942 522 Z M 942 473.492188 "/></clipPath><clipPath id="26d93018aa"><path d="M 942 473.492188 L 989 473.492188 L 989 521 L 942 521 Z M 942 473.492188 "/></clipPath><clipPath id="913b08171f"><path d="M 953 509 L 979 509 L 979 534.964844 L 953 534.964844 Z M 953 509 "/></clipPath></defs><g id="500ce4bc04"><g clip-rule="nonzero" clip-path="url(#cf9f69c9b9)"><path style=" stroke:none;fill-rule:nonzero;fill:#f9dde3;fill-opacity:1;" d="M 0 0.140625 L 91.84375 0.140625 L 91.84375 575.96875 L 0 575.96875 Z M 0 0.140625 "/></g><g style="fill:#000000;fill-opacity:1;"><g transform="translate(79.855172, 444.884981)"><path style="stroke:none" d="M -0.0976562 -25.722656 L 5.464844 -2.5625 L -10.964844 1.054688 L -13.136719 -8.601562 L -11.191406 -9.039062 L -10.640625 -7.125 C -14.589844 -5.984375 -18.632812 -5.089844 -22.765625 -4.4375 C -26.914062 -3.78125 -31.023438 -3.445312 -35.09375 -3.425781 C -39.195312 -3.402344 -43.175781 -3.765625 -47.035156 -4.507812 C -50.941406 -5.261719 -54.589844 -6.472656 -57.984375 -8.148438 L -57.101562 -9.9375 L -55.109375 -9.9375 L -55.109375 -1.898438 L -70.765625 -1.898438 L -70.765625 -47.003906 L 1.992188 -47.003906 L 1.992188 -28.832031 L -57.160156 -28.832031 L -57.160156 -30.824219 L -55.167969 -30.824219 L -55.167969 -23.640625 L -57.160156 -23.640625 L -56.238281 -25.410156 C -53.671875 -24.070312 -50.71875 -23.117188 -47.371094 -22.554688 C -43.933594 -21.976562 -40.289062 -21.695312 -36.429688 -21.714844 C -32.542969 -21.734375 -28.613281 -21.996094 -24.644531 -22.507812 C -20.648438 -23.019531 -16.761719 -23.675781 -12.984375 -24.484375 C -9.214844 -25.289062 -5.761719 -26.179688 -2.628906 -27.160156 L -0.59375 -27.796875 Z M -3.972656 -24.792969 L -2.035156 -25.257812 L -1.441406 -23.355469 C -4.691406 -22.339844 -8.261719 -21.417969 -12.152344 -20.585938 C -16.039062 -19.757812 -20.03125 -19.078125 -24.136719 -18.554688 C -28.269531 -18.023438 -32.359375 -17.75 -36.410156 -17.730469 C -40.496094 -17.710938 -44.371094 -18.007812 -48.035156 -18.625 C -51.792969 -19.257812 -55.144531 -20.34375 -58.082031 -21.875 L -59.152344 -22.433594 L -59.152344 -32.816406 L 0 -32.816406 L 0 -30.824219 L -1.992188 -30.824219 L -1.992188 -45.011719 L 0 -45.011719 L 0 -43.019531 L -68.773438 -43.019531 L -68.773438 -45.011719 L -66.78125 -45.011719 L -66.78125 -3.890625 L -68.773438 -3.890625 L -68.773438 -5.882812 L -57.101562 -5.882812 L -57.101562 -3.890625 L -59.09375 -3.890625 L -59.09375 -13.140625 L -56.21875 -11.722656 C -53.148438 -10.207031 -49.835938 -9.105469 -46.28125 -8.421875 C -42.675781 -7.726562 -38.953125 -7.390625 -35.113281 -7.410156 C -31.246094 -7.429688 -27.335938 -7.75 -23.382812 -8.371094 C -19.414062 -8.996094 -15.535156 -9.859375 -11.746094 -10.953125 L -9.714844 -11.539062 L -7.511719 -1.753906 L -9.457031 -1.316406 L -9.886719 -3.261719 L 2.625 -6.015625 L 3.050781 -4.070312 L 1.117188 -3.605469 Z M -3.972656 -24.792969 "/></g></g><g style="fill:#000000;fill-opacity:1;"><g transform="translate(79.855172, 393.769619)"><path style="stroke:none" d="M -70.765625 -2.992188 L -70.765625 -25.875 L 1.992188 -25.875 L 1.992188 -7.585938 L -57.101562 -7.585938 L -57.101562 -9.578125 L -55.109375 -9.578125 L -55.109375 -1 L -70.765625 -1 Z M -66.78125 -2.992188 L -68.773438 -2.992188 L -68.773438 -4.984375 L -57.101562 -4.984375 L -57.101562 -2.992188 L -59.09375 -2.992188 L -59.09375 -11.570312 L 0 -11.570312 L 0 -9.578125 L -1.992188 -9.578125 L -1.992188 -23.882812 L 0 -23.882812 L 0 -21.890625 L -68.773438 -21.890625 L -68.773438 -23.882812 L -66.78125 -23.882812 Z M -66.78125 -2.992188 "/></g></g><g style="fill:#000000;fill-opacity:1;"><g transform="translate(79.855172, 364.26157)"><path style="stroke:none" d="M -12.238281 -39.914062 L -11.878906 -39.972656 L -11.550781 -38.007812 L -13.542969 -38.007812 C -13.542969 -38.929688 -13.632812 -39.902344 -13.8125 -40.925781 C -13.964844 -41.78125 -14.316406 -42.621094 -14.875 -43.441406 C -15.421875 -44.242188 -16.296875 -44.988281 -17.503906 -45.671875 C -18.792969 -46.40625 -20.589844 -47 -22.894531 -47.457031 C -25.277344 -47.929688 -28.34375 -48.167969 -32.082031 -48.167969 L -57.160156 -48.167969 L -57.160156 -50.15625 L -55.167969 -50.15625 L -55.167969 -44.574219 L -70.765625 -44.574219 L -70.765625 -65.917969 L -31.84375 -65.917969 C -25.152344 -65.917969 -19.640625 -65.292969 -15.308594 -64.042969 C -10.820312 -62.746094 -7.292969 -60.777344 -4.734375 -58.125 C -2.171875 -55.476562 -0.398438 -52.183594 0.585938 -48.246094 C 1.523438 -44.496094 1.992188 -40.125 1.992188 -35.132812 L 1.992188 -5.25 L -57.101562 -5.25 L -57.101562 -7.242188 L -55.109375 -7.242188 L -55.109375 -1.957031 L -70.765625 -1.957031 L -70.765625 -21.1875 L -66.78125 -21.1875 L -66.78125 -21.070312 L -68.773438 -21.070312 L -68.777344 -23.0625 L -11.496094 -23.179688 L -11.492188 -21.1875 L -13.484375 -21.1875 C -13.484375 -22.664062 -13.691406 -23.8125 -14.105469 -24.625 C -14.414062 -25.234375 -15.070312 -25.703125 -16.066406 -26.03125 C -17.378906 -26.460938 -19.367188 -26.679688 -22.027344 -26.679688 L -57.160156 -26.679688 L -57.160156 -28.671875 L -55.167969 -28.671875 L -55.167969 -22.789062 L -70.765625 -22.789062 L -70.765625 -44.488281 L -33.457031 -44.488281 C -29.339844 -44.488281 -25.851562 -44.386719 -22.992188 -44.183594 C -20 -43.972656 -17.519531 -43.515625 -15.554688 -42.816406 C -13.398438 -42.050781 -11.664062 -40.839844 -10.351562 -39.1875 L -11.910156 -37.949219 Z M -11.582031 -35.984375 L -12.742188 -35.789062 L -13.472656 -36.707031 C -14.3125 -37.769531 -15.449219 -38.550781 -16.886719 -39.0625 C -18.511719 -39.640625 -20.640625 -40.023438 -23.273438 -40.210938 C -26.039062 -40.40625 -29.4375 -40.503906 -33.457031 -40.503906 L -68.773438 -40.503906 L -68.773438 -42.496094 L -66.78125 -42.496094 L -66.78125 -24.78125 L -68.773438 -24.78125 L -68.773438 -26.773438 L -57.160156 -26.773438 L -57.160156 -24.78125 L -59.152344 -24.78125 L -59.152344 -30.664062 L -22.027344 -30.664062 C -18.941406 -30.664062 -16.539062 -30.378906 -14.820312 -29.816406 C -12.785156 -29.144531 -11.363281 -28.015625 -10.554688 -26.433594 C -9.851562 -25.050781 -9.5 -23.304688 -9.5 -21.1875 L -9.5 -19.199219 L -70.765625 -19.074219 L -70.765625 -21.1875 L -66.78125 -21.1875 L -66.78125 -3.949219 L -68.773438 -3.949219 L -68.773438 -5.941406 L -57.101562 -5.941406 L -57.101562 -3.949219 L -59.09375 -3.949219 L -59.09375 -9.234375 L 0 -9.234375 L 0 -7.242188 L -1.992188 -7.242188 L -1.992188 -35.132812 C -1.992188 -39.800781 -2.421875 -43.847656 -3.28125 -47.28125 C -4.089844 -50.527344 -5.53125 -53.21875 -7.597656 -55.359375 C -9.664062 -57.496094 -12.605469 -59.117188 -16.414062 -60.214844 C -20.382812 -61.359375 -25.527344 -61.933594 -31.84375 -61.933594 L -68.773438 -61.933594 L -68.773438 -63.925781 L -66.78125 -63.925781 L -66.78125 -46.566406 L -68.773438 -46.566406 L -68.773438 -48.558594 L -57.160156 -48.558594 L -57.160156 -46.566406 L -59.152344 -46.566406 L -59.152344 -52.148438 L -32.082031 -52.148438 C -28.082031 -52.148438 -24.757812 -51.886719 -22.117188 -51.363281 C -19.394531 -50.824219 -17.199219 -50.082031 -15.535156 -49.136719 C -13.789062 -48.148438 -12.472656 -46.996094 -11.578125 -45.679688 C -10.703125 -44.386719 -10.136719 -43.03125 -9.890625 -41.613281 C -9.667969 -40.363281 -9.558594 -39.160156 -9.558594 -38.007812 L -9.558594 -36.320312 Z M -11.582031 -35.984375 "/></g></g><g style="fill:#000000;fill-opacity:1;"><g transform="translate(79.855172, 296.087802)"><path style="stroke:none" d="M -57.101562 0.316406 L -70.765625 0.316406 L -70.765625 -38.265625 L -55.109375 -38.265625 L -55.109375 -31.125 L -57.101562 -31.125 L -56.472656 -33.015625 L -55.394531 -32.65625 C -54.792969 -32.453125 -53.675781 -32.242188 -52.042969 -32.019531 C -50.378906 -31.792969 -48.054688 -31.679688 -45.070312 -31.679688 L 1.992188 -31.679688 L 1.992188 -13.332031 L -44.234375 -13.332031 C -47.355469 -13.332031 -49.929688 -13.53125 -51.957031 -13.9375 C -53.984375 -14.34375 -55.507812 -14.761719 -56.53125 -15.195312 L -57.875 -15.761719 L -57.101562 -17.597656 L -55.109375 -17.597656 L -55.109375 0.316406 Z M -57.101562 -3.667969 L -57.101562 -1.675781 L -59.09375 -1.675781 L -59.09375 -20.601562 L -54.980469 -18.863281 C -54.207031 -18.539062 -52.9375 -18.199219 -51.175781 -17.84375 C -49.40625 -17.492188 -47.09375 -17.316406 -44.234375 -17.316406 L 0 -17.316406 L 0 -15.324219 L -1.992188 -15.324219 L -1.992188 -29.6875 L 0 -29.6875 L 0 -27.695312 L -45.070312 -27.695312 C -48.234375 -27.695312 -50.738281 -27.820312 -52.582031 -28.074219 C -54.460938 -28.328125 -55.816406 -28.597656 -56.652344 -28.875 L -59.09375 -29.6875 L -59.09375 -36.273438 L -57.101562 -36.273438 L -57.101562 -34.28125 L -68.773438 -34.28125 L -68.773438 -36.273438 L -66.78125 -36.273438 L -66.78125 -1.675781 L -68.773438 -1.675781 L -68.773438 -3.667969 Z M -57.101562 -3.667969 "/></g></g><g style="fill:#000000;fill-opacity:1;"><g transform="translate(79.855172, 258.020624)"><path style="stroke:none" d="M -70.765625 -3.589844 L -70.765625 -23.121094 L -33.9375 -23.121094 C -30.253906 -23.121094 -27.101562 -23.257812 -24.476562 -23.527344 C -21.921875 -23.792969 -19.695312 -24.234375 -17.792969 -24.847656 C -15.921875 -25.453125 -14.160156 -26.289062 -12.511719 -27.351562 L -11.433594 -25.675781 L -13.425781 -25.675781 C -13.425781 -26.257812 -13.53125 -26.6875 -13.75 -26.964844 C -13.816406 -27.046875 -13.949219 -27.140625 -14.148438 -27.238281 C -14.46875 -27.398438 -14.890625 -27.539062 -15.417969 -27.652344 C -16.652344 -27.921875 -18.5 -28.054688 -20.949219 -28.054688 L -57.101562 -28.054688 L -57.101562 -30.046875 L -55.109375 -30.046875 L -55.109375 -23.566406 L -70.765625 -23.566406 L -70.765625 -46.226562 L -27.355469 -46.226562 C -21.683594 -46.226562 -17 -45.875 -13.304688 -45.171875 C -9.421875 -44.433594 -6.371094 -43.210938 -4.144531 -41.503906 C -1.839844 -39.734375 -0.226562 -37.417969 0.699219 -34.550781 C 1.5625 -31.875 1.992188 -28.621094 1.992188 -24.78125 L 1.992188 -1.539062 L -13.722656 -1.539062 L -13.722656 -11.851562 L -11.730469 -11.851562 L -10.773438 -10.105469 C -12.917969 -8.925781 -15.070312 -7.988281 -17.222656 -7.292969 C -19.390625 -6.589844 -21.871094 -6.09375 -24.660156 -5.800781 C -27.382812 -5.511719 -30.695312 -5.371094 -34.597656 -5.371094 L -57.097656 -5.308594 L -57.101562 -7.300781 L -55.109375 -7.300781 L -55.109375 -1.597656 L -70.765625 -1.597656 Z M -66.78125 -3.589844 L -68.773438 -3.589844 L -68.773438 -5.582031 L -57.101562 -5.582031 L -57.101562 -3.589844 L -59.09375 -3.589844 L -59.09375 -9.289062 L -34.597656 -9.355469 C -30.835938 -9.355469 -27.664062 -9.488281 -25.078125 -9.761719 C -22.5625 -10.027344 -20.351562 -10.46875 -18.449219 -11.082031 C -16.535156 -11.703125 -14.613281 -12.539062 -12.691406 -13.597656 L -9.738281 -15.21875 L -9.738281 -3.53125 L -11.730469 -3.53125 L -11.730469 -5.523438 L 0 -5.523438 L 0 -3.53125 L -1.992188 -3.53125 L -1.992188 -24.78125 C -1.992188 -28.203125 -2.359375 -31.050781 -3.09375 -33.324219 C -3.765625 -35.40625 -4.921875 -37.078125 -6.570312 -38.34375 C -8.292969 -39.667969 -10.789062 -40.636719 -14.046875 -41.257812 C -17.496094 -41.914062 -21.933594 -42.242188 -27.355469 -42.242188 L -68.773438 -42.242188 L -68.773438 -44.234375 L -66.78125 -44.234375 L -66.78125 -25.558594 L -68.773438 -25.558594 L -68.773438 -27.550781 L -57.101562 -27.550781 L -57.101562 -25.558594 L -59.09375 -25.558594 L -59.09375 -32.039062 L -20.949219 -32.039062 C -18.210938 -32.039062 -16.085938 -31.875 -14.570312 -31.542969 C -12.726562 -31.144531 -11.40625 -30.433594 -10.609375 -29.417969 C -9.832031 -28.417969 -9.441406 -27.171875 -9.441406 -25.675781 L -9.441406 -24.589844 L -10.351562 -24.003906 C -12.292969 -22.753906 -14.363281 -21.769531 -16.566406 -21.058594 C -18.734375 -20.359375 -21.234375 -19.859375 -24.066406 -19.566406 C -26.828125 -19.28125 -30.117188 -19.136719 -33.9375 -19.136719 L -68.773438 -19.136719 L -68.773438 -21.128906 L -66.78125 -21.128906 Z M -66.78125 -3.589844 "/></g></g><g style="fill:#ffffff;fill-opacity:1;"><g transform="translate(79.855172, 444.884981)"><path style="stroke:none" d="M -2.03125 -25.25 L 3.046875 -4.0625 L -9.453125 -1.3125 L -11.1875 -9.03125 C -15.0625 -7.914062 -19.019531 -7.039062 -23.0625 -6.40625 C -27.113281 -5.769531 -31.125 -5.441406 -35.09375 -5.421875 C -39.070312 -5.398438 -42.925781 -5.75 -46.65625 -6.46875 C -50.382812 -7.1875 -53.863281 -8.34375 -57.09375 -9.9375 L -57.09375 -3.890625 L -68.765625 -3.890625 L -68.765625 -45.015625 L 0 -45.015625 L 0 -30.828125 L -57.15625 -30.828125 L -57.15625 -23.640625 C -54.40625 -22.203125 -51.253906 -21.179688 -47.703125 -20.578125 C -44.148438 -19.984375 -40.390625 -19.695312 -36.421875 -19.71875 C -32.453125 -19.738281 -28.441406 -20.007812 -24.390625 -20.53125 C -20.335938 -21.050781 -16.394531 -21.71875 -12.5625 -22.53125 C -8.738281 -23.351562 -5.226562 -24.257812 -2.03125 -25.25 Z M -2.03125 -25.25 "/></g></g><g style="fill:#ffffff;fill-opacity:1;"><g transform="translate(79.855172, 393.769619)"><path style="stroke:none" d="M -68.765625 -3 L -68.765625 -23.875 L 0 -23.875 L 0 -9.578125 L -57.09375 -9.578125 L -57.09375 -3 Z M -68.765625 -3 "/></g></g><g style="fill:#ffffff;fill-opacity:1;"><g transform="translate(79.855172, 364.26157)"><path style="stroke:none" d="M -11.90625 -37.953125 L -11.546875 -38 C -11.546875 -39.039062 -11.644531 -40.128906 -11.84375 -41.265625 C -12.050781 -42.398438 -12.515625 -43.492188 -13.234375 -44.546875 C -13.953125 -45.609375 -15.046875 -46.554688 -16.515625 -47.390625 C -17.992188 -48.234375 -19.988281 -48.90625 -22.5 -49.40625 C -25.019531 -49.90625 -28.210938 -50.15625 -32.078125 -50.15625 L -57.15625 -50.15625 L -57.15625 -46.5625 L -68.765625 -46.5625 L -68.765625 -63.921875 L -31.84375 -63.921875 C -25.332031 -63.921875 -20.003906 -63.320312 -15.859375 -62.125 C -11.710938 -60.925781 -8.476562 -59.128906 -6.15625 -56.734375 C -3.84375 -54.347656 -2.238281 -51.359375 -1.34375 -47.765625 C -0.445312 -44.171875 0 -39.960938 0 -35.140625 L 0 -7.234375 L -57.09375 -7.234375 L -57.09375 -3.953125 L -68.765625 -3.953125 L -68.765625 -21.1875 L -68.765625 -21.0625 L -11.484375 -21.1875 C -11.484375 -22.976562 -11.765625 -24.421875 -12.328125 -25.515625 C -12.890625 -26.617188 -13.925781 -27.421875 -15.4375 -27.921875 C -16.957031 -28.421875 -19.15625 -28.671875 -22.03125 -28.671875 L -57.15625 -28.671875 L -57.15625 -24.78125 L -68.765625 -24.78125 L -68.765625 -42.5 L -33.453125 -42.5 C -29.390625 -42.5 -25.945312 -42.394531 -23.125 -42.1875 C -20.3125 -41.988281 -18.007812 -41.570312 -16.21875 -40.9375 C -14.425781 -40.300781 -12.988281 -39.304688 -11.90625 -37.953125 Z M -11.90625 -37.953125 "/></g></g><g style="fill:#ffffff;fill-opacity:1;"><g transform="translate(79.855172, 296.087802)"><path style="stroke:none" d="M -57.09375 -1.671875 L -68.765625 -1.671875 L -68.765625 -36.265625 L -57.09375 -36.265625 L -57.09375 -31.125 C -57.09375 -31.125 -56.734375 -31.003906 -56.015625 -30.765625 C -55.296875 -30.523438 -54.054688 -30.285156 -52.296875 -30.046875 C -50.546875 -29.804688 -48.132812 -29.6875 -45.0625 -29.6875 L 0 -29.6875 L 0 -15.328125 L -44.234375 -15.328125 C -47.222656 -15.328125 -49.664062 -15.515625 -51.5625 -15.890625 C -53.457031 -16.265625 -54.851562 -16.640625 -55.75 -17.015625 C -56.644531 -17.398438 -57.09375 -17.59375 -57.09375 -17.59375 Z M -57.09375 -1.671875 "/></g></g><g style="fill:#ffffff;fill-opacity:1;"><g transform="translate(79.855172, 258.020624)"><path style="stroke:none" d="M -68.765625 -3.59375 L -68.765625 -21.125 L -33.9375 -21.125 C -30.1875 -21.125 -26.960938 -21.265625 -24.265625 -21.546875 C -21.578125 -21.828125 -19.210938 -22.296875 -17.171875 -22.953125 C -15.140625 -23.609375 -13.226562 -24.515625 -11.4375 -25.671875 C -11.4375 -26.710938 -11.679688 -27.550781 -12.171875 -28.1875 C -12.671875 -28.820312 -13.609375 -29.289062 -14.984375 -29.59375 C -16.367188 -29.894531 -18.359375 -30.046875 -20.953125 -30.046875 L -57.09375 -30.046875 L -57.09375 -25.5625 L -68.765625 -25.5625 L -68.765625 -44.234375 L -27.359375 -44.234375 C -21.804688 -44.234375 -17.242188 -43.894531 -13.671875 -43.21875 C -10.097656 -42.539062 -7.320312 -41.441406 -5.34375 -39.921875 C -3.375 -38.398438 -1.988281 -36.398438 -1.1875 -33.921875 C -0.394531 -31.453125 0 -28.40625 0 -24.78125 L 0 -3.53125 L -11.734375 -3.53125 L -11.734375 -11.84375 C -13.765625 -10.726562 -15.796875 -9.84375 -17.828125 -9.1875 C -19.867188 -8.53125 -22.210938 -8.0625 -24.859375 -7.78125 C -27.515625 -7.5 -30.757812 -7.359375 -34.59375 -7.359375 L -57.09375 -7.296875 L -57.09375 -3.59375 Z M -68.765625 -3.59375 "/></g></g><g clip-rule="nonzero" clip-path="url(#bec08cb027)"><path style=" stroke:none;fill-rule:nonzero;fill:#000000;fill-opacity:1;" d="M 83.082031 103.257812 L 83.71875 102.617188 C 84.019531 102.3125 84.019531 101.820312 83.71875 101.515625 L 64.835938 82.382812 L 66.417969 82.382812 L 84.496094 100.707031 C 84.644531 100.855469 84.84375 100.9375 85.050781 100.9375 C 85.261719 100.9375 85.460938 100.855469 85.609375 100.707031 L 86.226562 100.082031 L 87.789062 104.859375 Z M 60.269531 80.816406 L 48.566406 80.816406 L 48.566406 79.691406 L 82.046875 79.691406 C 82.480469 79.691406 82.828125 79.34375 82.828125 78.910156 L 82.828125 78.019531 L 87.277344 80.253906 L 82.828125 82.492188 L 82.828125 81.601562 C 82.828125 81.167969 82.480469 80.816406 82.046875 80.816406 Z M 46.59375 98.203125 C 46.753906 97.492188 46.898438 96.8125 47.019531 96.152344 L 60.59375 82.382812 L 62.207031 82.382812 Z M 38.890625 114.675781 L 36.570312 114.675781 C 31.359375 104.921875 28.492188 92.71875 28.492188 80.253906 C 28.492188 67.792969 31.359375 55.589844 36.570312 45.835938 L 38.890625 45.835938 C 44.121094 55.570312 47 67.769531 47 80.253906 C 47 92.738281 44.121094 104.941406 38.890625 114.675781 Z M 3.148438 106.695312 L 3.148438 105.539062 L 30.929688 105.539062 C 31.027344 105.816406 31.128906 106.09375 31.230469 106.371094 C 31.265625 106.480469 31.304688 106.585938 31.34375 106.695312 Z M 3.148438 54.972656 L 3.148438 53.816406 L 31.34375 53.816406 C 31.308594 53.917969 31.269531 54.023438 31.234375 54.125 C 31.132812 54.40625 31.03125 54.691406 30.929688 54.972656 Z M 58.398438 82.382812 L 47.507812 93.433594 C 48.082031 89.84375 48.414062 86.148438 48.507812 82.382812 Z M 47.507812 67.078125 L 58.398438 78.128906 L 48.507812 78.128906 C 48.414062 74.359375 48.082031 70.667969 47.507812 67.078125 Z M 62.207031 78.128906 L 60.59375 78.128906 L 47.019531 64.355469 C 46.898438 63.695312 46.753906 63.015625 46.59375 62.304688 Z M 83.71875 58.996094 C 84.019531 58.691406 84.019531 58.199219 83.71875 57.894531 L 83.082031 57.25 L 87.789062 55.652344 L 86.226562 60.425781 L 85.609375 59.804688 C 85.460938 59.65625 85.261719 59.574219 85.050781 59.574219 C 84.84375 59.574219 84.644531 59.65625 84.496094 59.804688 L 66.417969 78.128906 L 64.835938 78.128906 Z M 26.925781 80.816406 L 3.148438 80.816406 L 3.148438 79.691406 L 26.925781 79.691406 Z M 87.3125 98.378906 C 87.230469 98.121094 87.015625 97.925781 86.75 97.863281 C 86.480469 97.800781 86.207031 97.878906 86.015625 98.070312 L 85.054688 99.042969 L 68.613281 82.382812 L 81.265625 82.382812 L 81.265625 83.757812 C 81.265625 84.03125 81.40625 84.28125 81.636719 84.425781 C 81.761719 84.503906 81.90625 84.542969 82.046875 84.542969 C 82.167969 84.542969 82.289062 84.515625 82.398438 84.457031 L 89.371094 80.953125 C 89.632812 80.820312 89.800781 80.550781 89.800781 80.253906 C 89.800781 79.960938 89.632812 79.6875 89.367188 79.554688 L 82.398438 76.050781 C 82.15625 75.929688 81.867188 75.941406 81.636719 76.085938 C 81.40625 76.226562 81.265625 76.480469 81.265625 76.75 L 81.265625 78.128906 L 68.613281 78.128906 L 85.054688 61.464844 L 86.015625 62.4375 C 86.207031 62.632812 86.484375 62.710938 86.75 62.648438 C 87.015625 62.585938 87.230469 62.390625 87.3125 62.128906 L 89.761719 54.652344 C 89.855469 54.371094 89.777344 54.0625 89.566406 53.851562 C 89.355469 53.644531 89.046875 53.574219 88.765625 53.667969 L 81.394531 56.171875 C 81.136719 56.257812 80.945312 56.46875 80.882812 56.734375 C 80.820312 56.996094 80.898438 57.269531 81.089844 57.460938 L 82.0625 58.445312 L 63.519531 77.234375 L 45.832031 59.308594 C 44.421875 54.097656 42.503906 49.167969 40.042969 44.675781 C 39.90625 44.425781 39.640625 44.269531 39.355469 44.269531 L 36.105469 44.269531 C 35.816406 44.269531 35.554688 44.425781 35.417969 44.679688 C 34.105469 47.085938 32.949219 49.625 31.933594 52.25 L 2.367188 52.25 C 1.933594 52.25 1.582031 52.601562 1.582031 53.03125 L 1.582031 55.753906 C 1.582031 56.1875 1.933594 56.539062 2.367188 56.539062 L 30.4375 56.539062 C 28.328125 63.269531 27.171875 70.554688 26.984375 78.128906 L 2.367188 78.128906 C 1.933594 78.128906 1.582031 78.476562 1.582031 78.910156 L 1.582031 81.601562 C 1.582031 82.03125 1.933594 82.382812 2.367188 82.382812 L 26.984375 82.382812 C 27.171875 89.957031 28.328125 97.242188 30.4375 103.972656 L 2.367188 103.972656 C 1.933594 103.972656 1.582031 104.324219 1.582031 104.753906 L 1.582031 107.476562 C 1.582031 107.910156 1.933594 108.261719 2.367188 108.261719 L 31.933594 108.261719 C 32.949219 110.886719 34.105469 113.421875 35.417969 115.832031 C 35.554688 116.082031 35.816406 116.238281 36.105469 116.238281 L 39.355469 116.238281 C 39.640625 116.238281 39.90625 116.082031 40.042969 115.832031 C 42.503906 111.339844 44.421875 106.414062 45.832031 101.203125 L 63.519531 83.277344 L 82.0625 102.0625 L 81.089844 103.046875 C 80.898438 103.238281 80.820312 103.515625 80.882812 103.777344 C 80.945312 104.039062 81.136719 104.25 81.394531 104.339844 L 88.765625 106.84375 C 88.847656 106.871094 88.933594 106.882812 89.015625 106.882812 C 89.21875 106.882812 89.417969 106.804688 89.566406 106.65625 C 89.777344 106.449219 89.855469 106.140625 89.761719 105.859375 L 87.3125 98.378906 "/></g><path style=" stroke:none;fill-rule:nonzero;fill:#000000;fill-opacity:1;" d="M 41.191406 59.011719 C 41.074219 58.597656 40.636719 58.355469 40.226562 58.476562 C 39.808594 58.59375 39.570312 59.027344 39.6875 59.445312 C 43.355469 72.238281 43.359375 88.613281 39.691406 101.15625 C 39.570312 101.570312 39.808594 102.007812 40.222656 102.125 C 40.292969 102.148438 40.367188 102.160156 40.441406 102.160156 C 40.78125 102.160156 41.09375 101.9375 41.191406 101.597656 C 44.9375 88.789062 44.9375 72.074219 41.191406 59.011719 "/><g clip-rule="nonzero" clip-path="url(#def96f92ec)"><path style=" stroke:none;fill-rule:nonzero;fill:#ff66c4;fill-opacity:1;" d="M 966.238281 523.464844 C 970.691406 522.609375 976.347656 522.371094 982.964844 522.542969 C 989.304688 522.710938 994.753906 523.605469 999.105469 524.667969 C 999.519531 524.769531 999.929688 524.425781 999.929688 524.015625 L 999.929688 480.863281 C 999.929688 480.519531 999.6875 480.210938 999.347656 480.175781 C 996.191406 479.765625 992.664062 479.492188 988.753906 479.59375 C 979.433594 479.800781 971.753906 481.925781 966.238281 484.015625 C 960.753906 481.960938 953.074219 479.835938 943.753906 479.59375 C 939.84375 479.492188 936.3125 479.765625 933.160156 480.175781 C 932.816406 480.210938 932.578125 480.519531 932.578125 480.863281 L 932.578125 523.980469 C 932.578125 524.425781 932.957031 524.769531 933.402344 524.632812 C 937.71875 523.605469 943.203125 522.679688 949.542969 522.507812 C 956.125 522.371094 961.78125 522.609375 966.238281 523.464844 Z M 966.238281 523.464844 "/></g><path style=" stroke:none;fill-rule:nonzero;fill:#d2d2d2;fill-opacity:1;" d="M 966.238281 522.644531 C 962.945312 520.964844 957.289062 518.601562 949.851562 518.050781 C 944.816406 517.675781 940.566406 518.292969 937.445312 518.976562 C 937.035156 519.078125 936.621094 518.769531 936.621094 518.324219 L 936.621094 478.566406 C 936.621094 478.222656 936.863281 477.949219 937.207031 477.914062 C 940.324219 477.503906 944.402344 477.296875 949.066406 477.914062 C 956.878906 478.910156 962.742188 481.71875 966.238281 483.742188 C 969.734375 481.71875 975.59375 478.910156 983.410156 477.878906 C 988.070312 477.265625 992.113281 477.46875 995.269531 477.878906 C 995.609375 477.914062 995.851562 478.1875 995.851562 478.53125 L 995.851562 518.292969 C 995.851562 518.703125 995.472656 519.011719 995.027344 518.941406 C 991.910156 518.257812 987.660156 517.675781 982.621094 518.015625 C 975.183594 518.601562 969.527344 520.964844 966.238281 522.644531 Z M 966.238281 522.644531 "/><path style=" stroke:none;fill-rule:nonzero;fill:#f6f4e6;fill-opacity:1;" d="M 965.550781 521.546875 C 962.328125 519.902344 956.8125 517.570312 949.542969 517.058594 C 944.644531 516.714844 940.460938 517.261719 937.445312 517.949219 C 937.035156 518.050781 936.65625 517.742188 936.65625 517.332031 L 936.65625 478.53125 C 936.65625 478.222656 936.898438 477.914062 937.207031 477.878906 C 940.257812 477.46875 944.230469 477.296875 948.789062 477.878906 C 956.433594 478.875 962.15625 481.617188 965.550781 483.605469 C 968.980469 481.617188 974.703125 478.875 982.3125 477.878906 C 986.871094 477.296875 990.8125 477.503906 993.898438 477.878906 C 994.238281 477.914062 994.445312 478.1875 994.445312 478.53125 L 994.445312 517.332031 C 994.445312 517.742188 994.066406 518.050781 993.65625 517.949219 C 990.640625 517.261719 986.460938 516.714844 981.558594 517.058594 C 974.257812 517.605469 968.738281 519.9375 965.550781 521.546875 Z M 965.550781 521.546875 "/><g clip-rule="nonzero" clip-path="url(#80eb8b16cd)"><path style=" stroke:none;fill-rule:nonzero;fill:#d2d2d2;fill-opacity:1;" d="M 990.195312 511.023438 C 990.195312 511.675781 989.613281 512.191406 988.960938 512.121094 C 986.390625 511.8125 982.003906 511.675781 977.238281 513.457031 C 972.441406 515.242188 969.289062 518.121094 967.46875 520.140625 C 966.921875 520.757812 966.511719 521.308594 966.203125 521.683594 C 965.894531 521.273438 965.484375 520.726562 964.933594 520.140625 C 963.117188 518.121094 959.964844 515.207031 955.164062 513.457031 C 950.4375 511.675781 946.015625 511.8125 943.445312 512.121094 C 942.792969 512.191406 942.210938 511.675781 942.210938 511.023438 L 942.210938 509.824219 C 942.175781 497.964844 942.210938 490.015625 942.210938 479.527344 C 942.210938 478.085938 942.210938 476.613281 942.210938 475.070312 C 942.210938 475 942.210938 474.933594 942.210938 474.863281 C 942.3125 474.382812 942.65625 474.007812 943.136719 473.972656 C 945.84375 473.664062 950.46875 473.527344 955.75 475.445312 C 960.066406 476.988281 963.082031 479.285156 965.003906 481.066406 C 965.242188 481.308594 965.484375 481.515625 965.6875 481.71875 C 965.929688 481.925781 966.097656 482.128906 966.269531 482.300781 C 966.375 482.199219 966.441406 482.128906 966.546875 481.992188 C 966.820312 481.683594 967.160156 481.375 967.539062 481.035156 C 969.425781 479.25 972.441406 476.957031 976.65625 475.378906 C 979.878906 474.214844 982.859375 473.800781 985.292969 473.734375 L 985.5 473.734375 C 986.972656 473.699219 988.242188 473.800781 989.234375 473.90625 C 989.785156 473.972656 990.195312 474.453125 990.195312 475 C 990.195312 488.367188 990.230469 497.074219 990.195312 511.023438 Z M 990.195312 511.023438 "/></g><g clip-rule="nonzero" clip-path="url(#26d93018aa)"><path style=" stroke:none;fill-rule:nonzero;fill:#f6f4e6;fill-opacity:1;" d="M 988.617188 509.824219 C 988.617188 510.441406 988.070312 510.957031 987.453125 510.886719 C 984.949219 510.578125 980.734375 510.476562 976.140625 512.15625 C 970.144531 514.382812 966.75 518.429688 965.484375 520.140625 C 964.214844 518.429688 960.820312 514.382812 954.824219 512.15625 C 950.195312 510.476562 945.980469 510.578125 943.511719 510.886719 C 942.894531 510.957031 942.3125 510.441406 942.3125 509.824219 C 942.277344 497.964844 942.3125 490.015625 942.3125 479.527344 L 942.3125 475 C 942.3125 474.933594 942.3125 474.898438 942.347656 474.832031 C 942.449219 474.351562 942.792969 473.972656 943.273438 473.9375 C 945.945312 473.628906 950.605469 473.492188 955.851562 475.445312 C 960.066406 476.988281 963.082031 479.285156 964.96875 481.066406 C 965.207031 481.308594 965.449219 481.515625 965.652344 481.71875 C 965.894531 481.925781 966.066406 482.128906 966.238281 482.300781 C 966.339844 482.199219 966.40625 482.128906 966.511719 481.992188 C 966.785156 481.683594 967.128906 481.375 967.503906 481.035156 C 969.390625 479.25 972.40625 476.957031 976.621094 475.378906 C 979.84375 474.214844 982.824219 473.800781 985.257812 473.734375 L 985.464844 473.734375 C 986.289062 473.769531 987.042969 473.835938 987.660156 473.90625 C 988.207031 473.972656 988.585938 474.417969 988.585938 474.96875 C 988.652344 487.890625 988.652344 496.320312 988.617188 509.824219 Z M 988.617188 509.824219 "/></g><path style=" stroke:none;fill-rule:nonzero;fill:#52575d;fill-opacity:1;" d="M 971.582031 484.425781 C 974.839844 482.746094 978.472656 481.960938 982.140625 482.0625 C 983.820312 482.097656 983.71875 484.667969 982.070312 484.597656 C 978.78125 484.496094 975.558594 485.25 972.714844 486.6875 C 971.242188 487.445312 970.109375 485.179688 971.582031 484.425781 Z M 971.582031 484.425781 "/><path style=" stroke:none;fill-rule:nonzero;fill:#52575d;fill-opacity:1;" d="M 970.761719 492.722656 C 974.804688 490.460938 979.398438 489.226562 984.230469 489.363281 C 985.945312 489.429688 985.773438 492.003906 984.164062 491.898438 C 979.980469 491.761719 975.800781 492.789062 971.996094 494.914062 C 970.554688 495.738281 969.289062 493.542969 970.761719 492.722656 Z M 970.761719 492.722656 "/><path style=" stroke:none;fill-rule:nonzero;fill:#52575d;fill-opacity:1;" d="M 970.761719 498.960938 C 974.804688 496.699219 979.398438 495.464844 984.230469 495.601562 C 985.910156 495.667969 985.808594 498.238281 984.164062 498.136719 C 979.808594 498 975.664062 499.097656 971.996094 501.152344 C 970.519531 501.976562 969.320312 499.75 970.761719 498.960938 Z M 970.761719 498.960938 "/><path style=" stroke:none;fill-rule:nonzero;fill:#52575d;fill-opacity:1;" d="M 970.761719 505.574219 C 974.976562 503.210938 979.605469 502.078125 984.230469 502.214844 C 985.945312 502.285156 985.773438 504.855469 984.164062 504.753906 C 979.945312 504.617188 975.800781 505.644531 971.996094 507.769531 C 970.519531 508.625 969.320312 506.398438 970.761719 505.574219 Z M 970.761719 505.574219 "/><path style=" stroke:none;fill-rule:nonzero;fill:#52575d;fill-opacity:1;" d="M 959.757812 486.6875 C 956.84375 485.214844 953.625 484.496094 950.402344 484.597656 C 948.757812 484.703125 948.652344 482.128906 950.332031 482.0625 C 954 481.960938 957.632812 482.78125 960.890625 484.425781 C 962.363281 485.179688 961.265625 487.445312 959.757812 486.6875 Z M 959.757812 486.6875 "/><path style=" stroke:none;fill-rule:nonzero;fill:#52575d;fill-opacity:1;" d="M 960.511719 494.914062 C 956.640625 492.757812 952.457031 491.761719 948.34375 491.898438 C 946.699219 492.003906 946.5625 489.429688 948.277344 489.363281 C 953.007812 489.191406 957.632812 490.390625 961.746094 492.722656 C 963.21875 493.542969 961.917969 495.738281 960.511719 494.914062 Z M 960.511719 494.914062 "/><path style=" stroke:none;fill-rule:nonzero;fill:#52575d;fill-opacity:1;" d="M 960.511719 501.152344 C 956.878906 499.097656 952.699219 498 948.34375 498.136719 C 946.699219 498.238281 946.5625 495.667969 948.277344 495.601562 C 953.074219 495.429688 957.703125 496.664062 961.746094 498.960938 C 963.1875 499.75 961.953125 501.976562 960.511719 501.152344 Z M 960.511719 501.152344 "/><path style=" stroke:none;fill-rule:nonzero;fill:#52575d;fill-opacity:1;" d="M 960.511719 507.804688 C 956.878906 505.746094 952.699219 504.648438 948.34375 504.785156 C 946.699219 504.890625 946.5625 502.320312 948.277344 502.25 C 952.9375 502.113281 957.566406 503.246094 961.746094 505.609375 C 963.1875 506.398438 961.953125 508.625 960.511719 507.804688 Z M 960.511719 507.804688 "/><path style=" stroke:none;fill-rule:nonzero;fill:#52575d;fill-opacity:1;" d="M 967.503906 481.066406 L 967.503906 520.140625 C 966.957031 520.757812 966.546875 521.308594 966.238281 521.683594 C 965.929688 521.273438 965.515625 520.726562 964.96875 520.140625 L 964.96875 481.066406 C 965.449219 481.515625 965.894531 481.960938 966.238281 482.300781 C 966.578125 481.960938 967.023438 481.515625 967.503906 481.066406 Z M 967.503906 481.066406 "/><g clip-rule="nonzero" clip-path="url(#913b08171f)"><path style=" stroke:none;fill-rule:nonzero;fill:#d19800;fill-opacity:1;" d="M 978.917969 521.789062 C 978.917969 522.621094 978.835938 523.445312 978.675781 524.261719 C 978.511719 525.078125 978.273438 525.871094 977.953125 526.640625 C 977.632812 527.410156 977.242188 528.140625 976.78125 528.832031 C 976.320312 529.523438 975.792969 530.164062 975.203125 530.753906 C 974.617188 531.34375 973.976562 531.871094 973.28125 532.332031 C 972.589844 532.792969 971.859375 533.183594 971.089844 533.503906 C 970.320312 533.824219 969.527344 534.0625 968.710938 534.226562 C 967.894531 534.386719 967.070312 534.46875 966.238281 534.46875 C 965.402344 534.46875 964.578125 534.386719 963.761719 534.226562 C 962.945312 534.0625 962.152344 533.824219 961.382812 533.503906 C 960.613281 533.183594 959.882812 532.792969 959.191406 532.332031 C 958.5 531.871094 957.859375 531.34375 957.269531 530.753906 C 956.679688 530.164062 956.15625 529.523438 955.691406 528.832031 C 955.230469 528.140625 954.839844 527.410156 954.519531 526.640625 C 954.203125 525.871094 953.960938 525.078125 953.796875 524.261719 C 953.636719 523.445312 953.554688 522.621094 953.554688 521.789062 C 953.554688 520.953125 953.636719 520.128906 953.796875 519.3125 C 953.960938 518.496094 954.203125 517.703125 954.519531 516.933594 C 954.839844 516.164062 955.230469 515.433594 955.691406 514.742188 C 956.15625 514.050781 956.679688 513.410156 957.269531 512.820312 C 957.859375 512.230469 958.5 511.707031 959.191406 511.242188 C 959.882812 510.78125 960.613281 510.390625 961.382812 510.070312 C 962.152344 509.753906 962.945312 509.511719 963.761719 509.347656 C 964.578125 509.1875 965.402344 509.105469 966.238281 509.105469 C 967.070312 509.105469 967.894531 509.1875 968.710938 509.347656 C 969.527344 509.511719 970.320312 509.753906 971.089844 510.070312 C 971.859375 510.390625 972.589844 510.78125 973.28125 511.242188 C 973.976562 511.707031 974.617188 512.230469 975.203125 512.820312 C 975.792969 513.410156 976.320312 514.050781 976.78125 514.742188 C 977.242188 515.433594 977.632812 516.164062 977.953125 516.933594 C 978.273438 517.703125 978.511719 518.496094 978.675781 519.3125 C 978.835938 520.128906 978.917969 520.953125 978.917969 521.789062 Z M 978.917969 521.789062 "/></g><path style=" stroke:none;fill-rule:nonzero;fill:#f6f4e6;fill-opacity:1;" d="M 968.773438 527.304688 L 967.503906 527.304688 L 967.503906 519.9375 C 967.503906 518.941406 966.714844 518.152344 965.722656 518.152344 L 964.214844 518.152344 C 962.535156 518.152344 962.535156 520.691406 964.214844 520.691406 L 964.96875 520.691406 L 964.96875 527.304688 L 963.699219 527.304688 C 962.019531 527.304688 962.019531 529.84375 963.699219 529.84375 L 968.773438 529.84375 C 970.453125 529.84375 970.453125 527.304688 968.773438 527.304688 Z M 968.773438 527.304688 "/><path style=" stroke:none;fill-rule:nonzero;fill:#f6f4e6;fill-opacity:1;" d="M 967.332031 515.171875 C 967.332031 515.382812 967.292969 515.582031 967.214844 515.777344 C 967.132812 515.96875 967.019531 516.140625 966.871094 516.285156 C 966.722656 516.433594 966.554688 516.546875 966.359375 516.628906 C 966.167969 516.707031 965.964844 516.75 965.757812 516.75 C 965.546875 516.75 965.347656 516.707031 965.152344 516.628906 C 964.960938 516.546875 964.789062 516.433594 964.640625 516.285156 C 964.492188 516.140625 964.378906 515.96875 964.300781 515.777344 C 964.21875 515.582031 964.179688 515.382812 964.179688 515.171875 C 964.179688 514.964844 964.21875 514.761719 964.300781 514.570312 C 964.378906 514.375 964.492188 514.207031 964.640625 514.058594 C 964.789062 513.910156 964.960938 513.796875 965.152344 513.714844 C 965.347656 513.636719 965.546875 513.59375 965.757812 513.59375 C 965.964844 513.59375 966.167969 513.636719 966.359375 513.714844 C 966.554688 513.796875 966.722656 513.910156 966.871094 514.058594 C 967.019531 514.207031 967.132812 514.375 967.214844 514.570312 C 967.292969 514.761719 967.332031 514.964844 967.332031 515.171875 Z M 967.332031 515.171875 "/><g style="fill:#000000;fill-opacity:1;"><g transform="translate(946.137708, 558.304736)"><path style="stroke:none" d="M 5.5 3.34375 L 6.15625 3.34375 L 6.15625 4.796875 L 3.59375 4.796875 L 3.59375 -10.859375 L 0.375 -10.859375 L 0.375 -12.3125 L 5.5 -12.3125 Z M 5.5 3.34375 "/></g></g><g style="fill:#000000;fill-opacity:1;"><g transform="translate(952.841153, 558.304736)"><path style="stroke:none" d="M 1.40625 -5.96875 C 1.75 -6.539062 1.976562 -7.113281 2.09375 -7.6875 C 2.21875 -8.269531 2.273438 -8.832031 2.265625 -9.375 C 2.265625 -9.914062 2.234375 -10.410156 2.171875 -10.859375 L 0.328125 -10.859375 L 0.328125 -12.3125 L 3.859375 -12.3125 C 4.179688 -10.945312 4.25 -9.671875 4.0625 -8.484375 C 3.882812 -7.304688 3.421875 -6.21875 2.671875 -5.21875 Z M 1.40625 -5.96875 "/></g></g><g style="fill:#000000;fill-opacity:1;"><g transform="translate(957.574256, 558.304736)"><path style="stroke:none" d="M 0.359375 -12.3125 L 2.984375 -12.3125 C 3.640625 -12.3125 4.160156 -12.160156 4.546875 -11.859375 C 4.929688 -11.566406 5.207031 -11.097656 5.375 -10.453125 C 5.539062 -9.804688 5.625 -8.960938 5.625 -7.921875 L 5.625 0 L 3.71875 0 L 3.71875 -8.171875 C 3.71875 -8.785156 3.6875 -9.289062 3.625 -9.6875 C 3.5625 -10.082031 3.425781 -10.375 3.21875 -10.5625 C 3.019531 -10.757812 2.722656 -10.859375 2.328125 -10.859375 L 0.359375 -10.859375 Z M 0.359375 -12.3125 "/></g></g><g style="fill:#000000;fill-opacity:1;"><g transform="translate(964.213451, 558.304736)"><path style="stroke:none" d="M 0.328125 -10.859375 L 0.328125 -12.3125 L 6.1875 -12.3125 L 6.1875 -10.859375 L 5.453125 -10.859375 C 5.453125 -10.859375 5.410156 -10.671875 5.328125 -10.296875 C 5.253906 -9.921875 5.21875 -9.320312 5.21875 -8.5 L 5.21875 0 L 3.28125 0 L 3.28125 -8.34375 C 3.28125 -8.875 3.3125 -9.328125 3.375 -9.703125 C 3.445312 -10.078125 3.515625 -10.363281 3.578125 -10.5625 C 3.640625 -10.757812 3.671875 -10.859375 3.671875 -10.859375 Z M 0.328125 -10.859375 "/></g></g><g style="fill:#000000;fill-opacity:1;"><g transform="translate(970.938312, 558.304736)"><path style="stroke:none" d="M 4.171875 -0.359375 L 0.796875 0.296875 L 0.484375 -1.140625 L 2.046875 -1.453125 C 1.847656 -2.140625 1.679688 -2.890625 1.546875 -3.703125 C 1.410156 -4.515625 1.320312 -5.347656 1.28125 -6.203125 C 1.25 -7.054688 1.289062 -7.878906 1.40625 -8.671875 C 1.519531 -9.460938 1.726562 -10.191406 2.03125 -10.859375 L 0.78125 -10.859375 L 0.78125 -12.3125 L 7.921875 -12.3125 L 7.921875 0 L 6.03125 0 L 6.03125 -10.875 L 3.890625 -10.875 C 3.628906 -10.382812 3.445312 -9.796875 3.34375 -9.109375 C 3.238281 -8.429688 3.1875 -7.707031 3.1875 -6.9375 C 3.1875 -6.164062 3.234375 -5.382812 3.328125 -4.59375 C 3.421875 -3.800781 3.539062 -3.039062 3.6875 -2.3125 C 3.832031 -1.582031 3.992188 -0.929688 4.171875 -0.359375 Z M 4.171875 -0.359375 "/></g></g><g style="fill:#000000;fill-opacity:1;"><g transform="translate(979.986896, 558.304736)"><path style="stroke:none" d="M 2.109375 -12.3125 L 5.9375 -12.3125 C 5.9375 -12.3125 5.945312 -12.226562 5.96875 -12.0625 C 6 -11.90625 6.03125 -11.695312 6.0625 -11.4375 C 6.09375 -11.175781 6.125 -10.894531 6.15625 -10.59375 C 6.1875 -10.300781 6.203125 -10.007812 6.203125 -9.71875 C 6.203125 -9.019531 6.144531 -8.421875 6.03125 -7.921875 C 5.925781 -7.421875 5.785156 -6.988281 5.609375 -6.625 C 5.441406 -6.257812 5.253906 -5.929688 5.046875 -5.640625 C 4.835938 -5.359375 4.628906 -5.082031 4.421875 -4.8125 C 4.222656 -4.550781 4.039062 -4.265625 3.875 -3.953125 C 3.707031 -3.648438 3.578125 -3.296875 3.484375 -2.890625 C 3.398438 -2.492188 3.367188 -2.015625 3.390625 -1.453125 L 4.75 -1.453125 L 4.75 0 L 1.71875 0 C 1.71875 0 1.707031 -0.0664062 1.6875 -0.203125 C 1.664062 -0.347656 1.648438 -0.519531 1.640625 -0.71875 C 1.597656 -1.5 1.617188 -2.171875 1.703125 -2.734375 C 1.785156 -3.304688 1.90625 -3.800781 2.0625 -4.21875 C 2.21875 -4.632812 2.394531 -5 2.59375 -5.3125 C 2.800781 -5.625 3.003906 -5.921875 3.203125 -6.203125 C 3.398438 -6.484375 3.582031 -6.765625 3.75 -7.046875 C 3.925781 -7.335938 4.066406 -7.660156 4.171875 -8.015625 C 4.285156 -8.378906 4.34375 -8.800781 4.34375 -9.28125 C 4.34375 -9.863281 4.316406 -10.269531 4.265625 -10.5 C 4.222656 -10.738281 4.203125 -10.859375 4.203125 -10.859375 L 0.25 -10.859375 L 0.25 -14.875 L 2.109375 -14.875 Z M 2.109375 -12.3125 "/></g></g></g></svg>